<?xml version="1.0" encoding="UTF-8"?>
<svg width="245px" height="245px" viewBox="0 0 245 245" version="1.1" xmlns="http://www.w3.org/2000/svg" xmlns:xlink="http://www.w3.org/1999/xlink">
    <!-- Generator: Sketch 53.2 (72643) - https://sketchapp.com -->
    <title>lf_Logo</title>
    <desc>Created with Sketch.</desc>
    <defs>
        <linearGradient x1="0.260883299%" y1="10.3043172%" x2="95.3936038%" y2="72.4618806%" id="linearGradient-1">
            <stop stop-color="#2BEAED" offset="0%"></stop>
            <stop stop-color="#0FCCCE" offset="100%"></stop>
        </linearGradient>
    </defs>
    <g id="lf_Logo" stroke="none" stroke-width="1" fill="none" fill-rule="evenodd">
        <g id="Logo" transform="translate(39.607873, 43.766155)">
            <rect id="Rectangle" fill="url(#linearGradient-1)" fill-rule="nonzero" x="0" y="0" width="156.235102" height="156.644295" rx="12.6881879"></rect>
            <path d="M119.051594,30.8255039 C123.336947,31.4603785 126.294995,35.4543174 125.662603,39.744408 C125.030002,44.0359205 121.043533,47.0033043 116.756754,46.3682183 C109.165831,45.2436237 97.7937371,57.0646985 85.0619695,81.3710892 C68.8082808,112.401227 53.679639,127.185853 37.7520893,126.00602 C33.4315183,125.685974 30.1904166,121.918243 30.5091961,117.5931 C30.8280292,113.267228 34.5875305,110.01692 38.9088326,110.33702 C46.7741162,110.91964 58.3269568,98.5949648 71.1726655,74.0710477 C87.5303275,42.8424127 102.86428,28.4273547 119.051594,30.8255039 Z" id="path" fill="#FFFFFF" fill-rule="nonzero"></path>
        </g>
    </g>
</svg>