<?xml version="1.0" encoding="UTF-8" standalone="no"?>
<!-- Created with Pixodesk SVG (https://pixodesk.com) -->
<svg xmlns="http://www.w3.org/2000/svg" viewBox="0 0 680 680" text-rendering="geometricPrecision" shape-rendering="geometricPrecision" fill="url(#_px_svg_1k6s3uev)" stroke="none" id="_px_2kagth8o" data-px-attrs="animation:{duration:15000;loop:true;inThreshold:0.5;startOn:scrollIntoView}">
  <style>@keyframes _px_2kppeh4a {0% {transform:scale(1,1);animation-timing-function:cubic-bezier(0.167,0.167,0.833,0.833);}
1% {transform:scale(0.1116,1);animation-timing-function:cubic-bezier(0.167,0.167,0.833,0.833);}
3.1333% {transform:scale(1,1);animation-timing-function:cubic-bezier(0.167,0.167,0.833,0.833);}
3.6667% {transform:scale(0.1116,1);animation-timing-function:cubic-bezier(0.167,0.167,0.833,0.833);}
4.1333% {transform:scale(1,1);animation-timing-function:cubic-bezier(0.167,0.167,0.833,0.833);}
5.8% {transform:scale(0.1116,1);animation-timing-function:cubic-bezier(0.167,0.167,0.833,0.833);}
6.6% {transform:scale(1,1);animation-timing-function:cubic-bezier(0.167,0.167,0.833,0.833);}
7.9333% {transform:scale(0.1116,1);animation-timing-function:cubic-bezier(0.167,0.167,0.833,0.833);}
9.2667% {transform:scale(1,1);animation-timing-function:cubic-bezier(0.167,0.167,0.833,0.833);}
10.1333% {transform:scale(0.1116,1);animation-timing-function:cubic-bezier(0.167,0.167,0.833,0.833);}
12.2667% {transform:scale(1,1);animation-timing-function:cubic-bezier(0.167,0.167,0.833,0.833);}
13.7333% {transform:scale(0.1116,1);animation-timing-function:cubic-bezier(0.167,0.167,0.833,0.833);}
14.9333% {transform:scale(1,1);animation-timing-function:cubic-bezier(0.167,0.167,0.833,0.833);}
16.5333% {transform:scale(0.1116,1);animation-timing-function:cubic-bezier(0.167,0.167,0.833,0.833);}
17.3333% {transform:scale(1,1);animation-timing-function:cubic-bezier(0.167,0.167,0.833,0.833);}
18.7333% {transform:scale(0.1116,1);animation-timing-function:cubic-bezier(0.167,0.167,0.833,0.833);}
20% {transform:scale(1,1);animation-timing-function:cubic-bezier(0.167,0.167,0.833,0.833);}
20.0001% {transform:scale(1,1);animation-timing-function:cubic-bezier(0.167,0.167,0.833,0.833);}
21% {transform:scale(0.1116,1);animation-timing-function:cubic-bezier(0.167,0.167,0.833,0.833);}
23.1333% {transform:scale(1,1);animation-timing-function:cubic-bezier(0.167,0.167,0.833,0.833);}
23.6667% {transform:scale(0.1116,1);animation-timing-function:cubic-bezier(0.167,0.167,0.833,0.833);}
24.1333% {transform:scale(1,1);animation-timing-function:cubic-bezier(0.167,0.167,0.833,0.833);}
25.8% {transform:scale(0.1116,1);animation-timing-function:cubic-bezier(0.167,0.167,0.833,0.833);}
26.6% {transform:scale(1,1);animation-timing-function:cubic-bezier(0.167,0.167,0.833,0.833);}
27.9333% {transform:scale(0.1116,1);animation-timing-function:cubic-bezier(0.167,0.167,0.833,0.833);}
29.2667% {transform:scale(1,1);animation-timing-function:cubic-bezier(0.167,0.167,0.833,0.833);}
30.1333% {transform:scale(0.1116,1);animation-timing-function:cubic-bezier(0.167,0.167,0.833,0.833);}
32.2667% {transform:scale(1,1);animation-timing-function:cubic-bezier(0.167,0.167,0.833,0.833);}
33.7333% {transform:scale(0.1116,1);animation-timing-function:cubic-bezier(0.167,0.167,0.833,0.833);}
34.9333% {transform:scale(1,1);animation-timing-function:cubic-bezier(0.167,0.167,0.833,0.833);}
36.5333% {transform:scale(0.1116,1);animation-timing-function:cubic-bezier(0.167,0.167,0.833,0.833);}
37.3333% {transform:scale(1,1);animation-timing-function:cubic-bezier(0.167,0.167,0.833,0.833);}
38.7333% {transform:scale(0.1116,1);animation-timing-function:cubic-bezier(0.167,0.167,0.833,0.833);}
40% {transform:scale(1,1);animation-timing-function:cubic-bezier(0.167,0.167,0.833,0.833);}
40.0001% {transform:scale(1,1);animation-timing-function:cubic-bezier(0.167,0.167,0.833,0.833);}
41% {transform:scale(0.1116,1);animation-timing-function:cubic-bezier(0.167,0.167,0.833,0.833);}
43.1333% {transform:scale(1,1);animation-timing-function:cubic-bezier(0.167,0.167,0.833,0.833);}
43.6667% {transform:scale(0.1116,1);animation-timing-function:cubic-bezier(0.167,0.167,0.833,0.833);}
44.1333% {transform:scale(1,1);animation-timing-function:cubic-bezier(0.167,0.167,0.833,0.833);}
45.8% {transform:scale(0.1116,1);animation-timing-function:cubic-bezier(0.167,0.167,0.833,0.833);}
46.6% {transform:scale(1,1);animation-timing-function:cubic-bezier(0.167,0.167,0.833,0.833);}
47.9333% {transform:scale(0.1116,1);animation-timing-function:cubic-bezier(0.167,0.167,0.833,0.833);}
49.2667% {transform:scale(1,1);animation-timing-function:cubic-bezier(0.167,0.167,0.833,0.833);}
50.1333% {transform:scale(0.1116,1);animation-timing-function:cubic-bezier(0.167,0.167,0.833,0.833);}
52.2667% {transform:scale(1,1);animation-timing-function:cubic-bezier(0.167,0.167,0.833,0.833);}
53.7333% {transform:scale(0.1116,1);animation-timing-function:cubic-bezier(0.167,0.167,0.833,0.833);}
54.9333% {transform:scale(1,1);animation-timing-function:cubic-bezier(0.167,0.167,0.833,0.833);}
56.5333% {transform:scale(0.1116,1);animation-timing-function:cubic-bezier(0.167,0.167,0.833,0.833);}
57.3333% {transform:scale(1,1);animation-timing-function:cubic-bezier(0.167,0.167,0.833,0.833);}
58.7333% {transform:scale(0.1116,1);animation-timing-function:cubic-bezier(0.167,0.167,0.833,0.833);}
60% {transform:scale(1,1);animation-timing-function:cubic-bezier(0.167,0.167,0.833,0.833);}
60.0001% {transform:scale(1,1);animation-timing-function:cubic-bezier(0.167,0.167,0.833,0.833);}
61% {transform:scale(0.1116,1);animation-timing-function:cubic-bezier(0.167,0.167,0.833,0.833);}
63.1333% {transform:scale(1,1);animation-timing-function:cubic-bezier(0.167,0.167,0.833,0.833);}
63.6667% {transform:scale(0.1116,1);animation-timing-function:cubic-bezier(0.167,0.167,0.833,0.833);}
64.1333% {transform:scale(1,1);animation-timing-function:cubic-bezier(0.167,0.167,0.833,0.833);}
65.8% {transform:scale(0.1116,1);animation-timing-function:cubic-bezier(0.167,0.167,0.833,0.833);}
66.6% {transform:scale(1,1);animation-timing-function:cubic-bezier(0.167,0.167,0.833,0.833);}
67.9333% {transform:scale(0.1116,1);animation-timing-function:cubic-bezier(0.167,0.167,0.833,0.833);}
69.2667% {transform:scale(1,1);animation-timing-function:cubic-bezier(0.167,0.167,0.833,0.833);}
70.1333% {transform:scale(0.1116,1);animation-timing-function:cubic-bezier(0.167,0.167,0.833,0.833);}
72.2667% {transform:scale(1,1);animation-timing-function:cubic-bezier(0.167,0.167,0.833,0.833);}
73.7333% {transform:scale(0.1116,1);animation-timing-function:cubic-bezier(0.167,0.167,0.833,0.833);}
74.9333% {transform:scale(1,1);animation-timing-function:cubic-bezier(0.167,0.167,0.833,0.833);}
76.5333% {transform:scale(0.1116,1);animation-timing-function:cubic-bezier(0.167,0.167,0.833,0.833);}
77.3333% {transform:scale(1,1);animation-timing-function:cubic-bezier(0.167,0.167,0.833,0.833);}
78.7333% {transform:scale(0.1116,1);animation-timing-function:cubic-bezier(0.167,0.167,0.833,0.833);}
80% {transform:scale(1,1);animation-timing-function:cubic-bezier(0.167,0.167,0.833,0.833);}
80.0001% {transform:scale(1,1);animation-timing-function:cubic-bezier(0.167,0.167,0.833,0.833);}
81% {transform:scale(0.1116,1);animation-timing-function:cubic-bezier(0.167,0.167,0.833,0.833);}
83.1333% {transform:scale(1,1);animation-timing-function:cubic-bezier(0.167,0.167,0.833,0.833);}
83.6667% {transform:scale(0.1116,1);animation-timing-function:cubic-bezier(0.167,0.167,0.833,0.833);}
84.1333% {transform:scale(1,1);animation-timing-function:cubic-bezier(0.167,0.167,0.833,0.833);}
85.8% {transform:scale(0.1116,1);animation-timing-function:cubic-bezier(0.167,0.167,0.833,0.833);}
86.6% {transform:scale(1,1);animation-timing-function:cubic-bezier(0.167,0.167,0.833,0.833);}
87.9333% {transform:scale(0.1116,1);animation-timing-function:cubic-bezier(0.167,0.167,0.833,0.833);}
89.2667% {transform:scale(1,1);animation-timing-function:cubic-bezier(0.167,0.167,0.833,0.833);}
90.1333% {transform:scale(0.1116,1);animation-timing-function:cubic-bezier(0.167,0.167,0.833,0.833);}
92.2667% {transform:scale(1,1);animation-timing-function:cubic-bezier(0.167,0.167,0.833,0.833);}
93.7333% {transform:scale(0.1116,1);animation-timing-function:cubic-bezier(0.167,0.167,0.833,0.833);}
94.9333% {transform:scale(1,1);animation-timing-function:cubic-bezier(0.167,0.167,0.833,0.833);}
96.5333% {transform:scale(0.1116,1);animation-timing-function:cubic-bezier(0.167,0.167,0.833,0.833);}
97.3333% {transform:scale(1,1);animation-timing-function:cubic-bezier(0.167,0.167,0.833,0.833);}
98.7333% {transform:scale(0.1116,1);animation-timing-function:cubic-bezier(0.167,0.167,0.833,0.833);}
100% {transform:scale(1,1)}}
@keyframes _px_2kagth8b {0% {offset-distance:0%;animation-timing-function:cubic-bezier(0.3333,0.6666,0.6666,1);}
29.9333% {offset-distance:35.7972%;animation-timing-function:cubic-bezier(0.645,0.045,0.355,1);}
69.3333% {offset-distance:78.1352%;animation-timing-function:cubic-bezier(0.3333,0,0.6666,0.3333);}
99.9333%, 100% {offset-distance:100%}}
@keyframes _px_2kagth8d {0%, 0.8667% {transform:translate(-0.8764px,-1.705px);animation-timing-function:cubic-bezier(0.1692,0.1692,0.5784,0.5784);}
7.6667% {transform:translate(-1.0642px,-4.0272px);animation-timing-function:cubic-bezier(0.4108,0.4108,0.835,0.835);}
15.4% {transform:translate(-0.1715px,-6.6524px);animation-timing-function:cubic-bezier(0.1641,0.1641,0.8007,0.8007);}
43% {transform:translate(1.3601px,-7.3911px);animation-timing-function:cubic-bezier(0.365,0.365,0.6992,0.6992);}
46.2% {transform:translate(1.3924px,-7.4067px);animation-timing-function:cubic-bezier(0,0,1,1);}
48.2667% {transform:translate(-0.7191px,-5.8812px);animation-timing-function:cubic-bezier(0,0,1,1);}
53.4% {transform:translate(-1.1458px,-3.1006px);animation-timing-function:cubic-bezier(0,0,1,1);}
59.4667% {transform:translate(-0.0047px,-0.1786px);animation-timing-function:cubic-bezier(0.167,0.167,0.833,0.833);}
69.2667% {transform:translate(-0.5187px,-0.4448px);animation-timing-function:cubic-bezier(0.167,0.167,0.833,0.833);}
85.4667% {transform:translate(-0.515px,-0.7036px);animation-timing-function:cubic-bezier(0.167,0.167,0.833,0.833);}
99.9333%, 100% {transform:translate(-0.8764px,-1.705px)}}
._px_animate ._px_2kppeh4b { animation: 15000ms _px_2kppeh4a infinite both; }
._px_animate ._px_2kagth8c { animation: 15000ms _px_2kagth8b infinite both; }
._px_animate ._px_2kagth8e { animation: 15000ms _px_2kagth8d infinite both; }
._px_animate._px_paused ._px-animated {animation-play-state: paused;}
._px_animate._px_running ._px-animated {animation-play-state: running !important;}
._px_animate._px_init_paused ._px-animated {animation-play-state: paused;}
._px_animate._px_init_paused._px_running ._px-animated {animation-play-state: running !important;}</style>
  <defs>
    <path id="_px_2j65bh8t" d="M-1001.428,244.99C-946.9914,124.8453,-838.1105,47.8849,-775.8711,84.0988C-713.6317,120.3127,-851.6755,352.3806,-938.3438,367.1863C-1025.0121,381.992,-1032.2004,319.5423,-1001.3708,245.0117"/>
    <radialGradient id="_px_2kbjlutc" spreadMethod="pad" cx="0" cy="0" fx="0" fy="0" r="280.8352" gradientUnits="userSpaceOnUse">
      <stop offset="0%" stop-color="rgb(255,253,240)"/>
      <stop offset="67.1%" stop-color="rgba(255,253,240,0.8764)"/>
      <stop offset="100%" stop-color="rgba(255,253,240,0)"/>
    </radialGradient>
    <mask id="_px_2jo02g3p" mask-type="alpha">
      <ellipse fill="url(#_px_2kbjlutc)" stroke="none" transform="translate(684.1429,-285.0586)scale(1.0754,1.0754)" rx="280.8352" ry="280.8352"/>
    </mask>
    <symbol id="_px_2kagth89" viewBox="0 0 18.8264 2.1311">
      <g transform="translate(18.8264,1.0655)rotate(-270)translate(-78.5,-369)">
        <rect fill="#ffffff" stroke="none" transform="translate(79,383.1368)translate(-1,-14.1368)" width="1" height="17"/>
        <rect fill="#ffffff" stroke="none" transform="translate(79,383.1368)translate(-1,-14.1368)" rx="3" ry="3" x="-0.5655" y="12.118" width="2.1311" height="6.7084"/>
      </g>
    </symbol>
    <symbol id="_px_2kagth83" viewBox="0 0 37.6528 49.1586">
      <g data-px-label="dandelion-seed" transform="translate(19.8211,24.5793)translate(-79.5212,-374.3275)">
        <g transform="translate(78.5,389.4936)translate(-78.5,-378.4132)">
          <rect fill="#ffffff" stroke="none" transform="translate(79,383.1368)translate(-1,-14.1368)" y="-12.912" width="1" height="29.912"/>
          <rect fill="#ffffff" stroke="none" transform="translate(79,383.1368)translate(-1,-14.1368)" rx="1" ry="1" x="-0.5655" y="12.118" width="2.1311" height="6.7084"/>
        </g>
        <use transform="translate(78.5265,368.5748)translate(-18.8264,-1.0655)" href="#_px_2kagth89" width="18.8264" height="2.1311"/>
        <use transform="translate(78.5265,368.5747)rotate(30)translate(-18.8264,-1.0654)" href="#_px_2kagth89" width="18.8264" height="2.1311"/>
        <use transform="translate(78.5265,368.5746)rotate(60)translate(-18.8264,-1.0653)" href="#_px_2kagth89" width="18.8264" height="2.1311"/>
        <use transform="translate(78.5265,368.5746)rotate(90)translate(-18.8264,-1.0653)" href="#_px_2kagth89" width="18.8264" height="2.1311"/>
        <use transform="translate(78.5265,368.5746)rotate(120)translate(-18.8264,-1.0653)" href="#_px_2kagth89" width="18.8264" height="2.1311"/>
        <use transform="translate(78.5265,368.5746)rotate(150)translate(-18.8264,-1.0653)" href="#_px_2kagth89" width="18.8264" height="2.1311"/>
        <use transform="translate(78.5265,368.5746)rotate(180)translate(-18.8264,-1.0653)" href="#_px_2kagth89" width="18.8264" height="2.1311"/>
      </g>
    </symbol>
    <pattern id="_px_svg_1k6s3uev" fill="#ffffff" viewBox="0 0 16 16" width="24" height="24" patternUnits="userSpaceOnUse">
      <ellipse stroke="none" cx="4" cy="4" rx="3" ry="3"/>
      <ellipse stroke="none" cx="12" cy="12" rx="3" ry="3"/>
    </pattern>
    <pattern viewBox="0 0 46.3409 55.4397" width="107.3409" height="128.4168" patternUnits="userSpaceOnUse">
      <use transform="translate(23.1704,27.7199)rotate(-11)translate(-18.8264,-24.5792)" href="#_px_2kagth83" width="37.6528" height="49.1584"/>
    </pattern>
    <pattern viewBox="0 0 134.9052 99.989" x="-16" width="88.9052" height="65.8948" patternUnits="userSpaceOnUse" patternTransform="rotate(15)">
      <g data-px-label="butterfly-test 2" fill="#ffffff" stroke="none" transform="translate(70.5605,50.0449)rotate(21)scale(0.6208,0.6208)translate(-1041.5202,47.5221)">
        <rect data-px-label="body" stroke="none" transform="translate(1041.8913,-38.6232)translate(-4.0143,-34.9401)" rx="26" ry="26" width="8.0286" height="69.8802"/>
        <g data-px-label="wings" transform="translate(1041.5331,-47.5221)translate(-1041.5331,47.5221)">
          <path data-px-label="wing 2" stroke="none" transform="translate(-799.5472,11.6552)rotate(-21.8649)scale(1.6297,1.6297)" d="M1039.6166,407.9137C1029.6739,410.8627,1020.2652,408.7051,1017.5825,402.4264C1014.5802,395.399,1021.1326,385.8514,1032.2372,381.013C1030.9957,379.1115,1029.8759,377.0273,1028.9201,374.7898C1023.212,361.43,1025.4941,347.6476,1034.0172,344.0061C1042.5401,340.3646,1054.077,348.2427,1059.785,361.6025C1061.5663,365.7721,1062.5698,369.9828,1062.8478,373.9135C1062.3833,371.2451,1061.5716,368.4791,1060.3966,365.7285C1055.2402,353.6599,1045.034,346.4511,1037.6005,349.627C1030.167,352.8029,1028.3211,365.1613,1033.4776,377.23C1034.3412,379.2512,1035.3468,381.1364,1036.4567,382.8592C1026.7729,387.0813,1021.134,395.5866,1023.8464,401.9348C1025.93,406.8113,1032.3395,409.0067,1039.6166,407.9137z"/>
          <path data-px-label="wing 1" stroke="none" transform="translate(1083.1076,-50.9876)rotate(18.9259)scale(-1.6297,1.6297)translate(-1039.851,-376.1665)" d="M1039.6166,407.9137C1029.6739,410.8627,1020.265,408.7048,1017.5825,402.4263C1014.5802,395.3989,1021.1326,385.8512,1032.2372,381.0129C1030.9957,379.1112,1029.8759,377.0273,1028.9201,374.7897C1023.2121,361.4301,1025.494,347.6476,1034.0171,344.0061C1042.54,340.3646,1054.077,348.2428,1059.785,361.6025C1061.5662,365.7718,1062.5698,369.9828,1062.8478,373.9135C1062.3834,371.2451,1061.5715,368.4791,1060.3965,365.7285C1055.2401,353.6601,1045.0336,346.4511,1037.6004,349.627C1030.167,352.8029,1028.3211,365.1613,1033.4775,377.2299C1034.3411,379.2511,1035.3468,381.1364,1036.4567,382.8591C1026.7729,387.0812,1021.1341,395.5865,1023.8464,401.9347C1025.9299,406.811,1032.3395,409.0067,1039.6166,407.9137z"/>
        </g>
      </g>
    </pattern>
  </defs>
  <g transform="translate(340,340)translate(-300.9964,-299.9469)">
    <g transform="translate(300,300)scale(1.0944,1.0944)translate(-250.0005,-250.0004)">
      <g data-px-label="grid repeator" stroke="#8a8a8a" opacity="0.38" transform="translate(243.5564,250.3435)scale(0.941,0.941)translate(-676.3277,284.642)" mask="url(#_px_2jo02g3p)">
        <rect fill="#ffffff00" stroke="#000000" transform="translate(669.1735,-300.0281)scale(1.2129,1.2129)translate(-261.9721,-261.9721)" width="548.6287" height="548.6287"/>
        <g transform="translate(447.9069,-284.4923)translate(-453.9712,284.4923)" data-px-attrs="elementEffect:{baseId:_px_2kbjlutb;transform:{origin:[453.9712,-284.4923];translate:[-6.0643,0]};repeater:{copies:4;translation:[149,0];scale:[100.9865,100]}}">
          <g id="_px_2kbjlutb">
            <path fill="#ffffff" stroke-linecap="round" transform="translate(384.9712,-581.4716)" d="M0,0L0,593.9586"/>
            <path fill="#8a8a8a" stroke-width="0.5" stroke-linecap="round" transform="translate(400.3046,-581.4715)" d="M0,0L0,593.9585"/>
            <path fill="#8a8a8a" stroke-width="0.5" stroke-linecap="round" transform="translate(415.6379,-581.4715)" d="M0,0L0,593.9585"/>
            <path fill="#8a8a8a" stroke-width="0.5" stroke-linecap="round" transform="translate(430.9712,-581.4715)" d="M0,0L0,593.9585"/>
            <path fill="#8a8a8a" stroke-width="0.5" stroke-linecap="round" transform="translate(446.3046,-581.4715)" d="M0,0L0,593.9585"/>
            <path fill="#8a8a8a" stroke-width="0.5" stroke-linecap="round" transform="translate(461.6379,-581.4715)" d="M0,0L0,593.9585"/>
            <path fill="#8a8a8a" stroke-width="0.5" stroke-linecap="round" transform="translate(476.9712,-581.4715)" d="M0,0L0,593.9585"/>
            <path fill="#8a8a8a" stroke-width="0.5" stroke-linecap="round" transform="translate(492.3045,-581.4715)" d="M0,0L0,593.9585"/>
            <path fill="#8a8a8a" stroke-width="0.5" stroke-linecap="round" transform="translate(507.6379,-581.4715)" d="M0,0L0,593.9585"/>
            <path fill="#8a8a8a" stroke-width="0.5" stroke-linecap="round" transform="translate(522.9712,-581.4715)" d="M0,0L0,593.9585"/>
          </g>
          <use href="#_px_2kbjlutb" transform="matrix(1.0099,0,0,1,149,0)"/>
          <use href="#_px_2kbjlutb" transform="matrix(1.0198,0,0,1,298,0)"/>
          <use href="#_px_2kbjlutb" transform="matrix(1.0299,0,0,1,447,0)"/>
        </g>
        <g transform="translate(676.3276,-512.771)rotate(90)translate(-453.9712,284.4922)" data-px-attrs="elementEffect:{baseId:_px_2kbjluta;transform:{origin:[453.9712,-284.4922];translate:[222.3564,-228.2788];rotate:90};repeater:{copies:4;translation:[149,0]}}">
          <g id="_px_2kbjluta">
            <path fill="#ffffff" stroke-linecap="round" transform="translate(384.9712,-581.4715)" d="M0,0L0,593.9585"/>
            <path fill="#8a8a8a" stroke-width="0.5" stroke-linecap="round" transform="translate(400.3045,-581.4715)" d="M0,0L0,593.9585"/>
            <path fill="#8a8a8a" stroke-width="0.5" stroke-linecap="round" transform="translate(415.6379,-581.4715)" d="M0,0L0,593.9585"/>
            <path fill="#8a8a8a" stroke-width="0.5" stroke-linecap="round" transform="translate(430.9712,-581.4715)" d="M0,0L0,593.9585"/>
            <path fill="#8a8a8a" stroke-width="0.5" stroke-linecap="round" transform="translate(446.3045,-581.4715)" d="M0,0L0,593.9585"/>
            <path fill="#8a8a8a" stroke-width="0.5" stroke-linecap="round" transform="translate(461.6378,-581.4715)" d="M0,0L0,593.9585"/>
            <path fill="#8a8a8a" stroke-width="0.5" stroke-linecap="round" transform="translate(476.9712,-581.4715)" d="M0,0L0,593.9585"/>
            <path fill="#8a8a8a" stroke-width="0.5" stroke-linecap="round" transform="translate(492.3045,-581.4715)" d="M0,0L0,593.9585"/>
            <path fill="#8a8a8a" stroke-width="0.5" stroke-linecap="round" transform="translate(507.6378,-581.4715)" d="M0,0L0,593.9585"/>
            <path fill="#8a8a8a" stroke-width="0.5" stroke-linecap="round" transform="translate(522.9712,-581.4715)" d="M0,0L0,593.9585"/>
          </g>
          <use href="#_px_2kbjluta" transform="matrix(1,0,0,1,149,0)"/>
          <use href="#_px_2kbjluta" transform="matrix(1,0,0,1,298,0)"/>
          <use href="#_px_2kbjluta" transform="matrix(1,0,0,1,447,0)"/>
        </g>
      </g>
    </g>
    <g transform="translate(263.0457,288.8842)scale(0.9537,0.9537)translate(-263.0457,-279.8842)">
      <g data-px-label="cat group" transform="translate(287.9999,300)translate(-299.9999,-300)">
        <rect data-px-label="tail" fill="#ffffff" stroke="none" transform="translate(432.7059,440.5439)rotate(17.3459)scale(1.0608,1.0608)translate(-30.8516,-84.6247)" rx="40" ry="40" y="-198.6255" width="61.7032" height="325.748"/>
        <g data-px-label="cat" transform="translate(327.5762,300.3472)scale(1.0608,1.0608)translate(-1254.0927,-447.0955)">
          <g data-px-label="ears" transform="translate(1241.0993,297.8252)translate(-1236.1613,-297.8252)">
            <g data-px-label="ear 2" transform="translate(1175.5271,296.652)translate(-1175.5271,-296.652)">
              <path fill="#e1464f" stroke="none" transform="translate(1155.2022,287.5712)rotate(-23)" d="M0,-73.5082C24.3723,-73.5082,63.66,36.7541,63.66,36.7541L-63.66,36.7541C-63.66,36.7541,-24.3723,-73.5082,0,-73.5082z"/>
              <path fill="#ffffff" stroke="none" transform="translate(1166.7897,317.7727)rotate(-23)" d="M0,-73.5082C24.3723,-73.5082,63.6599,36.7541,63.6599,36.7541L-63.6599,36.7541C-63.6599,36.7541,-24.3723,-73.5082,0,-73.5082z"/>
            </g>
            <g data-px-label="ear 1" transform="translate(1298.5958,295.9416)translate(-1298.5958,-295.9416)">
              <path fill="#e1464f" stroke="none" transform="translate(1317.1205,287.5712)rotate(23)" d="M0,-73.5082C24.3723,-73.5082,63.6599,36.7541,63.6599,36.7541L-63.6599,36.7541C-63.6599,36.7541,-24.3723,-73.5082,0,-73.5082z"/>
              <path fill="#ffffff" stroke="none" transform="translate(1304.9156,317.7727)rotate(23)" d="M0,-73.5082C24.3723,-73.5082,63.6599,36.7541,63.6599,36.7541L-63.6599,36.7541C-63.6599,36.7541,-24.3723,-73.5082,0,-73.5082z"/>
            </g>
          </g>
          <path data-px-label="body" fill="#e1464f" stroke="none" transform="translate(1241.0993,454.8175)translate(-1240.0186,-454.8175)" d="M1260.252,254.9441C1327.0784,254.9441,1381.252,302.4574,1381.252,361.068L1381.252,447.3832L1381.252,548.567L1381.252,589.7886C1381.252,625.6331,1348.121,654.6909,1307.252,654.6909L1260.252,654.691L1219.7852,654.691L1172.7852,654.6909C1131.9162,654.6909,1098.7852,625.6331,1098.7852,589.7886L1098.7852,548.567L1098.7852,447.3832L1098.7852,361.068C1098.7852,302.4574,1152.9588,254.9441,1219.7852,254.9441L1260.252,254.9441z"/>
          <path data-px-label="pattern" fill="url(#_px_svg_1k6s3uev)" stroke="none" transform="translate(1241.0992,491.1613)translate(-1240.0186,-491.1613)" d="M1381.252,447.3832L1381.2521,534.9394L1098.7853,534.9394L1098.7852,447.3832L1381.252,447.3832z"/>
          <g data-px-label="mouth" transform="translate(1232.764,364.0781)rotate(-0.8151)scale(3.6421,3.6421)translate(-468.512,-308.2501)">
            <path fill="none" stroke="#001a34" transform="translate(468.5916,303.0869)" d="M0,0L0,8.8394"/>
            <path fill="#007fff" stroke="#001a34" stroke-linecap="round" transform="translate(468.4594,311.5225)" d="M0,0L2.425,1.8908"/>
            <path fill="#007fff" stroke="#001a34" stroke-linecap="round" transform="translate(468.5159,311.5394)" d="M0,0L-2.3763,1.6849"/>
          </g>
          <g data-px-label="eyes" transform="translate(1232.6886,338.9483)rotate(-0.8151)scale(3.6421,3.6421)translate(-468.5894,-301.3507)">
            <path fill="#ffffff" stroke="none" transform="translate(455.8894,301.3519)" d="M0,-7.1974C3.0009,-7.1974,5.4335,-3.975,5.4335,0C5.4335,3.975,3.0009,7.1974,0,7.1974C-3.0009,7.1974,-5.4335,3.975,-5.4335,0C-5.4335,-3.975,-3.0009,-7.1974,0,-7.1974z"/>
            <path fill="#ffffff" stroke="none" transform="translate(481.2895,301.3495)" d="M0,-7.1974C3.0008,-7.1974,5.4335,-3.975,5.4335,0C5.4335,3.975,3.0008,7.1974,0,7.1974C-3.0008,7.1974,-5.4335,3.975,-5.4335,0C-5.4335,-3.975,-3.0008,-7.1974,0,-7.1974z"/>
            <g transform="translate(466.9011,304.6566)" data-px-attrs="elementEffect:{baseId:_px_2ka8ll1r;transform:{origin:[466.9011,304.6566];translate:{kfs:[{t:130;v:[-0.8764,-1.705];e:[0.1692,0.1692,0.5784,0.5784]},{t:1150;v:[-1.0642,-4.0272];e:[0.4108,0.4108,0.835,0.835]},{t:2310;v:[-0.1715,-6.6524];e:[0.1641,0.1641,0.8007,0.8007]},{t:6450;v:[1.3601,-7.3911];e:[0.365,0.365,0.6992,0.6992]},{t:6930;v:[1.3924,-7.4067];e:[0,0,1,1]},{t:7240;v:[-0.7191,-5.8812];e:[0,0,1,1]},{t:8010;v:[-1.1458,-3.1006];e:[0,0,1,1]},{t:8920;v:[-0.0047,-0.1786]},{t:10390;v:[-0.5187,-0.4448]},{t:12820;v:[-0.515,-0.7036]},{t:14990;v:[-0.8764,-1.705]}]}}}">
              <g class="_px-animated _px_2kagth8e" transform="translate(-0.8764,-1.705)">
                <g id="_px_2ka8ll1r" data-px-label="iris" transform="translate(-466.9011,-304.6566)">
                  <g data-px-label="eye1" transform="translate(454.1701,304.8159)translate(-457.1581,-303.8299)">
                    <path fill="#000000" stroke="none" transform="translate(457.1581,303.8299)" d="M0,-3.2628C1.3604,-3.2628,2.4632,-1.802,2.4632,0C2.4632,1.802,1.3604,3.2628,0,3.2628C-1.3604,3.2628,-2.4632,1.802,-2.4632,0C-2.4632,-1.802,-1.3604,-3.2628,0,-3.2628z"/>
                    <path fill="#ffffff" stroke="none" transform="translate(457.7111,302.5992)" d="M0,-0.9211C0.384,-0.9211,0.6954,-0.5087,0.6954,0C0.6954,0.5087,0.384,0.9211,0,0.9211C-0.384,0.9211,-0.6954,0.5087,-0.6954,0C-0.6954,-0.5087,-0.384,-0.9211,0,-0.9211z"/>
                  </g>
                  <g data-px-label="eye2" transform="translate(479.6255,304.7565)translate(-479.1299,-303.4499)">
                    <path fill="#000000" stroke="none" transform="translate(479.1299,303.4499)" d="M0,-3.2629C1.3604,-3.2629,2.4632,-1.802,2.4632,0C2.4632,1.802,1.3604,3.2629,0,3.2629C-1.3604,3.2629,-2.4632,1.802,-2.4632,0C-2.4632,-1.802,-1.3604,-3.2629,0,-3.2629z"/>
                    <path fill="#ffffff" stroke="none" transform="translate(479.7417,301.9318)" d="M0,-1.0058C0.4194,-1.0058,0.7593,-0.5555,0.7593,0C0.7593,0.5555,0.4194,1.0058,0,1.0058C-0.4194,1.0058,-0.7593,0.5555,-0.7593,0C-0.7593,-0.5555,-0.4194,-1.0058,0,-1.0058z"/>
                  </g>
                </g>
              </g>
            </g>
          </g>
          <path data-px-label="nose" fill="#001a34" stroke="none" transform="translate(1225.6338,336.6283)rotate(-0.8151)scale(3.6421,3.6421)" d="M0,0C0.5203,-1.0527,3.1422,-0.9955,3.6947,0C4.2473,0.9955,3.1154,2.6104,2.0354,2.662C0.9554,2.7134,-0.5203,1.0527,0,0z"/>
          <g data-px-label="cheeks" transform="translate(1230.5806,383.6277)rotate(-0.8151)scale(3.6421,3.6421)translate(-208.7835,-295.5811)">
            <path fill="#ff949a" stroke="none" transform="translate(189.2148,295.2352)" d="M0,-4.8547C2.7277,-4.8547,4.9391,-2.6812,4.9391,0C4.9391,2.6812,2.7277,4.8547,0,4.8547C-2.7277,4.8547,-4.9391,2.6812,-4.9391,0C-4.9391,-2.6812,-2.7277,-4.8547,0,-4.8547z"/>
            <path fill="#ff949a" stroke="none" transform="translate(228.3521,295.9269)" d="M0,-4.8547C2.7277,-4.8547,4.9391,-2.6812,4.9391,0C4.9391,2.6812,2.7277,4.8547,0,4.8547C-2.7277,4.8547,-4.9391,2.6812,-4.9391,0C-4.9391,-2.6812,-2.7277,-4.8547,0,-4.8547z"/>
          </g>
          <g data-px-label="wiskers" stroke="#ffffff" transform="translate(1230.7101,359.6766)rotate(-0.8151)scale(3.6421,3.6421)translate(-208.9127,-289.0061)">
            <path fill="none" stroke-linecap="round" transform="translate(235.3935,287.3172)" d="M-0.5145,2.4878C0.1512,-1.4886,16.6711,-5.2656,20.1863,-4.261"/>
            <path fill="none" stroke-linecap="round" transform="translate(235.0404,289.805)" d="M0.5325,1.9693C2.6661,-0.4603,15.6741,-1.0773,21.0346,-1.1183"/>
            <path fill="none" stroke-linecap="round" transform="translate(235.7209,293.0636)" d="M1.1661,0.4769C9.2949,-2.2341,16.4304,1.2863,19.6225,1.9302"/>
            <path fill="none" stroke-linecap="round" transform="translate(182.8808,286.0825)" d="M-0.0128,1.872C-0.027,1.2252,-8.3781,-5.7117,-20.3875,-5.2844"/>
            <path fill="none" stroke-linecap="round" transform="translate(184.0671,290.176)" d="M-2.1088,0.7715C-5.1376,-1.2984,-17.9722,-4.6997,-22.1024,-3.6249"/>
            <path fill="none" stroke-linecap="round" transform="translate(179.8195,294.2941)" d="M0.9585,-1.6221C-1.4864,-3.3368,-13.636,-4.166,-20.0652,-1.9279"/>
          </g>
          <g data-px-label="legs" transform="translate(1244.5611,610.8038)translate(-1236.2524,-610.8038)">
            <rect fill="#ffffff" stroke="none" transform="translate(1160.9049,631.8673)translate(-30.8516,-84.6248)" rx="24" ry="24" width="61.7032" height="127.1225"/>
            <rect fill="#ffffff" stroke="none" transform="translate(1304.7289,631.8672)translate(-30.8516,-84.6247)" rx="24" ry="24" width="61.7032" height="127.1225"/>
            <ellipse fill="#e1464f" stroke="none" transform="translate(1232.7906,556.947)" rx="135.6325" ry="14.5473"/>
          </g>
        </g>
      </g>
      <g data-px-label="butterfly group" transform="translate(44.7481,282.0773)translate(-21.6809,-275.7862)">
        <g transform="translate(1041.5203,-47.5221)" data-px-attrs="elementEffect:{baseId:_px_2j65bh8s;transform:{origin:[1041.5203,-47.5221];translate:{autoOrient:true;kfs:[{t:0;v:[-1001.428,244.99];e:[0.3333,0.6666,0.6666,1];to:[54.4366,-120.1447]},{t:4490;v:[-775.8711,84.0988];e:[0.645,0.045,0.355,1];to:[62.2394,36.2139];ti:[-62.2394,-36.2139]},{t:10400;v:[-938.3438,367.1863];e:[0.3333,0,0.6666,0.3333];to:[-86.6683,14.8057];ti:[86.6683,-14.8057]},{t:14990;v:[-1001.3708,245.0117];ti:[-30.8296,74.5306]}]};rotate:85.0185;scale:[65.09,65.09]}}">
          <g class="_px-animated _px_2kagth8c" offset-distance="0%" style="offset-path:url(#_px_2j65bh8t);offset-anchor:0 0;offset-distance:0%;offset-rotate:auto">
            <g id="_px_2j65bh8s" data-px-label="butterfly" fill="#ffffff" stroke="none" transform="rotate(85.0185),scale(0.6509,0.6509),translate(-1041.5203,47.5221)">
              <rect data-px-label="body" stroke="none" transform="translate(1041.8913,-38.6232)translate(-4.0143,-34.9401)" rx="26" ry="26" width="8.0286" height="69.8802"/>
              <g transform="translate(1041.5331,-47.5221)" data-px-attrs="elementEffect:{baseId:_px_2ka8ll1m;transform:{origin:[1041.5331,-47.5221];scale:{loop:{keyframesCount:0};kfs:[{t:0;v:[1,1]},{t:150;v:[0.1116,1]},{t:470;v:[1,1]},{t:550;v:[0.1116,1]},{t:620;v:[1,1]},{t:870;v:[0.1116,1]},{t:990;v:[1,1]},{t:1190;v:[0.1116,1]},{t:1390;v:[1,1]},{t:1520;v:[0.1116,1]},{t:1840;v:[1,1]},{t:2060;v:[0.1116,1]},{t:2240;v:[1,1]},{t:2480;v:[0.1116,1]},{t:2600;v:[1,1]},{t:2810;v:[0.1116,1]},{t:3000;v:[1,1]}]}}}">
                <g class="_px-animated _px_2kppeh4b" transform="scale(1,1)">
                  <g id="_px_2ka8ll1m" data-px-label="wings" transform="translate(-1041.5331,47.5221)">
                    <path data-px-label="wing 2" stroke="none" transform="translate(1001.5003,-50.5272)rotate(-21.865)scale(1.6297,1.6297)translate(-1039.851,-376.1665)" d="M1039.6166,407.9137C1029.6739,410.8627,1020.2652,408.7051,1017.5825,402.4264C1014.5801,395.399,1021.1326,385.8514,1032.2372,381.013C1030.9957,379.1114,1029.876,377.0273,1028.9201,374.7898C1023.212,361.43,1025.4941,347.6476,1034.0172,344.0061C1042.5402,340.3646,1054.077,348.2427,1059.785,361.6025C1061.5664,365.7721,1062.5698,369.9828,1062.8478,373.9135C1062.3833,371.245,1061.5717,368.4792,1060.3966,365.7285C1055.2402,353.6599,1045.034,346.4511,1037.6005,349.627C1030.167,352.8029,1028.3211,365.1613,1033.4776,377.23C1034.3412,379.2513,1035.3467,381.1364,1036.4567,382.8592C1026.7729,387.0813,1021.134,395.5866,1023.8464,401.9348C1025.93,406.8113,1032.3395,409.0067,1039.6166,407.9137z"/>
                    <path data-px-label="wing 1" stroke="none" transform="translate(1083.1077,-50.9876)rotate(18.926)scale(-1.6297,1.6297)translate(-1039.851,-376.1665)" d="M1039.6166,407.9137C1029.6739,410.8627,1020.265,408.7049,1017.5825,402.4263C1014.5801,395.3989,1021.1326,385.8512,1032.2372,381.0129C1030.9957,379.1112,1029.876,377.0273,1028.9201,374.7897C1023.2121,361.4301,1025.494,347.6476,1034.0171,344.0061C1042.5401,340.3646,1054.077,348.2428,1059.785,361.6025C1061.5663,365.7719,1062.5698,369.9828,1062.8478,373.9135C1062.3834,371.2451,1061.5716,368.4791,1060.3965,365.7285C1055.2401,353.66,1045.0337,346.4511,1037.6004,349.627C1030.167,352.8029,1028.3211,365.1613,1033.4775,377.2299C1034.3411,379.2511,1035.3467,381.1364,1036.4567,382.8591C1026.7729,387.0812,1021.1341,395.5865,1023.8464,401.9347C1025.9299,406.8111,1032.3395,409.0067,1039.6166,407.9137z"/>
                  </g>
                </g>
              </g>
            </g>
          </g>
        </g>
      </g>
    </g>
  </g>
<script data-px-script="true"><![CDATA[
(function() {
(function startOnScrollIntoView(id, threshold) {
    const el = document.getElementById(id);
    if (el) new IntersectionObserver((e) => {e.forEach(i => {
                    if (i.isIntersecting) el.classList.add("_px_animate", "_px_running");
            if (i.isIntersecting) el.classList.remove("_px_paused");
            if (!i.isIntersecting) el.classList.add("_px_paused");
            if (!i.isIntersecting) el.classList.remove("_px_running");
    });}, { threshold }).observe(el);
})("_px_2kagth8o", 0.5);

})();
]]></script>
</svg>