<svg id="2k46c1lo" xmlns="http://www.w3.org/2000/svg" xmlns:xlink="http://www.w3.org/1999/xlink" shape-rendering="geometricPrecision" text-rendering="geometricPrecision" width="100%" viewBox="0 0 1920 1045" preserveAspectRatio="xMidYMid meet">
  <defs>
    <mask id="_px_an_2k46c1lp" mask-type="alpha">
      <g transform="translate(960,522.5)">
        <rect rx="0" ry="0" width="1920" height="1045" x="-960" y="-522.5" stroke-width="3" stroke-linejoin="round" fill="rgb(0,0,0)" stroke="rgb(0,58,115)">
        </rect>
      </g>
    </mask>
  </defs>
  <g mask="url(#_px_an_2k46c1lp)">
    <g transform="translate(0,57.3422)">
      <path d="M873.777,901.7914L921.9199,672.6578L960.4102,815.7306C961.154,815.3688,962.0215,815.1611,962.9478,815.1611L978.8783,815.1611L978.8783,779.5849C978.8783,777.3087,981.1169,775.4636,983.8783,775.4636L995.0755,775.4636L995.0755,774.4933C995.0755,772.2172,997.3141,770.372,1000.0755,770.372L1060.6425,770.372C1063.4039,770.372,1065.6425,772.2172,1065.6425,774.4933L1065.6425,775.4636L1076.8397,775.4636C1079.6011,775.4636,1081.8397,777.3087,1081.8397,779.5849L1081.8397,815.1611L1103.8085,815.1611C1106.5699,815.1611,1108.8085,817.0063,1108.8085,819.2824L1108.8085,848.4289C1143.2275,824.411,1187.7527,809.9283,1236.3817,809.9283C1269.5373,809.9283,1300.7852,816.6608,1328.223,828.5576L1328.223,817.7261L1329.4748,817.7261L1329.4748,808.4562L1458.4016,808.4562L1458.4016,817.7261L1459.3762,817.7261L1459.3762,828.8115L1458.4016,828.8115L1458.4016,834.9056L1485.3584,834.9056L1485.3584,893.6811L1546.7716,893.6811L1546.7716,908.4355L1589.1957,908.4355C1591.9572,908.4355,1594.1957,910.2806,1594.1957,912.5568L1594.1957,923.6983L1605.7306,923.6983L1605.7306,769.5989L1744.0552,769.5989L1744.0552,869.1504L1886.3277,860.0024L1886.3277,890.9082L1934.895,890.9082L1934.895,1030.6578L-11.5582,1030.6578L-11.5582,875.0101L118.7326,875.0101L118.7326,941.8539L144.8558,941.8539L144.8558,746.4316L231.9478,746.4316L231.9478,952.9384L243.5042,952.9384L243.5042,927.8196C243.5042,925.5434,245.7427,923.6983,248.5042,923.6983L274.3401,923.6983L274.3401,912.5568C274.3401,910.2806,276.5787,908.4355,279.3401,908.4355L352.3133,908.4355L357.9436,816.392L417.3433,816.392L421.4499,882.7506L489.5526,875.3326L489.5525,865.0256L607.1372,865.0256L607.1374,884.9088L648.1537,884.9088L648.1537,832.7461L703.8418,832.7461L703.8418,949.7786L714.2095,949.7786L714.2095,888.3903L724.6181,884.3575L724.6181,859.3117L744.1927,859.3117L744.1853,828.3061L752.5438,824.1757L752.5438,797.3262L775.1828,797.3262L775.1828,812.9886L783.5253,808.8661L783.5253,859.3117L789.2627,859.3117L814.1355,849.675L814.1355,877.0534L873.777,883.5498L873.777,901.7914z" stroke-width="2" stroke-linecap="round" stroke-linejoin="round" fill="rgb(255,255,255)" fill-opacity="0" stroke="rgb(255,255,255)">
      </path>
    </g>
  </g>
</svg>