<?xml version="1.0" encoding="UTF-8" standalone="no"?>
<!-- Created with Pixodesk SVG (https://pixodesk.com) -->
<svg xmlns="http://www.w3.org/2000/svg" viewBox="0 0 24 24" text-rendering="geometricPrecision" shape-rendering="geometricPrecision" data-px-animation="duration:1000;in-threshold:50%" id="todj1te" class="_px_animate">
  <style>._px_animate._px_paused ._px-animated {animation-play-state: paused;}
._px_animate._px_running ._px-animated {animation-play-state: running !important;}
._px_animate._px_pausable ._px-animated {animation-play-state: paused;}
._px_animate._px_pausable._px_running ._px-animated {animation-play-state: running !important;}</style>
  <path fill="#000000" d="M23.4791,10.4021L20.1871,13.8457L13.1443,6.8029L16.4363,3.3593L23.4791,10.4021zM18.9629,22.967L5.1967,22.967L9.8063,18.3574C10.3006,18.6495,10.8772,18.817,11.4929,18.817C13.3265,18.817,14.8129,17.3306,14.8129,15.497C14.8129,13.6635,13.3265,12.177,11.4929,12.177C9.6593,12.177,8.1729,13.6635,8.1729,15.497C8.1729,16.1127,8.3405,16.6893,8.6326,17.1836L4.0229,21.7933L4.0229,8.027L11.5107,8.027L18.9629,15.4793L18.9629,22.967zM9.4798,5.9842L1.9512,5.9842L1.9512,16.4244L-0.0488,18.4244L-0.0488,3.9842L7.4512,3.9842L9.4798,5.9842zM13.0524,-0.0246L14.6611,1.5841L11.1425,5.1027L9.5337,3.494L13.0524,-0.0246z"/>
</svg>