<svg version="1.1" xmlns="http://www.w3.org/2000/svg" viewBox='0 0 32 32' preserveAspectRatio="xMidYMid meet">
  <g data-test123="OK 11" class="" transform="matrix(1,0,0,1,4,4)">
    <g data-test123="OK 11" class="" transform="matrix(1,0,0,1,12,12)">
      <defs>
        <linearGradient gradientUnits="userSpaceOnUse" class="" x1="-0.24823499248057246" y1="-12.797684336943284" x2="-0.013732247688796662" y2="12.945546328497826">
          <stop class="" offset="0%" stop-color="rgb(0,165,255)">
          </stop>
          <stop class="" offset="100%" stop-color="rgb(0,98,150)">
          </stop>
        </linearGradient>
      </defs>
      <rect class="" transform="translate(0,0)" x="-13" y="-13" width="26" height="26" fill="url(#blk7_el11_el172_fill_shape181_grd188)">
      </rect>
    </g>
    <g data-test123="OK 11" class="" transform="matrix(1,0,0,1,0,0)">
      <path class="" d="M21.192,14.121L14.121,21.192C12.95,22.363,11.049,22.363,9.878,21.192L2.807,14.121C2.48,13.794,2.243,13.409,2.099,13L6.282,13L11.292,18.01C11.682,18.4,12.317,18.4,12.707,18.01L17.717,13L21.9,12.999C21.756,13.408,21.519,13.794,21.192,14.121zM21.192,9.878C21.519,10.205,21.756,10.591,21.9,11L17.717,10.999L12.707,5.989C12.317,5.599,11.682,5.599,11.292,5.989L6.282,11L2.099,11C2.243,10.591,2.48,10.205,2.807,9.878L9.878,2.807C11.049,1.636,12.95,1.636,14.121,2.807L21.192,9.878z" fill="rgb(238,238,238)">
      </path>
      <g data-test123="OK 11" class="" transform="matrix(0.707,0.707,-0.707,0.707,12,12)">
        <rect class="" transform="translate(0,0)" x="-2.75" y="-2.75" width="5.5" height="5.5" fill="rgb(238,238,238)">
        </rect>
      </g>
    </g>
  </g>
</svg>