<?xml version="1.0" encoding="UTF-8" standalone="no"?>
<!-- Created with Pixodesk SVG (https://pixodesk.com) -->
<svg xmlns="http://www.w3.org/2000/svg" viewBox="0 -960 960 960" text-rendering="geometricPrecision" shape-rendering="geometricPrecision" fill="#ffffff" stroke="#000000">
  <path fill="#ffffff00" stroke="#000000" stroke-width="20" d="M296,-320L418,-442L498,-362L640,-503L640,-440L720,-440L720,-640L520,-640L520,-560L583,-560L498,-475L418,-555L240,-376L296,-320zM200,-120C178,-120,159.1667,-127.8333,143.5,-143.5C127.8333,-159.1667,120,-178,120,-200L120,-760C120,-782,127.8333,-800.8333,143.5,-816.5C159.1667,-832.1667,178,-840,200,-840L760,-840C782,-840,800.8333,-832.1667,816.5,-816.5C832.1667,-800.8333,840,-782,840,-760L840,-200C840,-178,832.1667,-159.1667,816.5,-143.5C800.8333,-127.8333,782,-120,760,-120L200,-120zM200,-200L760,-200L760,-760L200,-760L200,-200zM200,-760L200,-200L200,-760z"/>
</svg>