<?xml version="1.0" encoding="UTF-8" standalone="no"?>
<!-- Created with Pixodesk SVG (https://pixodesk.com) -->
<svg xmlns="http://www.w3.org/2000/svg" viewBox="0 -960 960 960" text-rendering="geometricPrecision" shape-rendering="geometricPrecision" fill="#ffffff00" stroke="#000000" stroke-width="20">
  <path d="M480,-480L480,-480zM202,-65L146,-122L264,-240L174,-240L174,-320L400,-320L400,-94L320,-94L320,-183L202,-65zM480,-80L480,-160L720,-160L720,-600L520,-600L520,-800L240,-800L240,-400L160,-400L160,-800C160,-822,167.8333,-840.8333,183.5,-856.5C199.1667,-872.1667,218,-880,240,-880L560,-880L800,-640L800,-160C800,-138,792.1667,-119.1667,776.5,-103.5C760.8333,-87.8333,742,-80,720,-80L480,-80z"/>
</svg>