<svg id="pf64ds9" xmlns="http://www.w3.org/2000/svg" xmlns:xlink="http://www.w3.org/1999/xlink" shape-rendering="geometricPrecision" text-rendering="geometricPrecision" width="100%" viewBox="0 0 86 65" preserveAspectRatio="xMidYMid meet">
  <defs>
    <filter id="pf64dsa" x="-100%" y="-100%" width="300%" height="300%">
      <feGaussianBlur in="SourceAlpha" result="drop_shadow_1" stdDeviation="1.25">
      </feGaussianBlur>
      <feOffset in="drop_shadow_1" result="drop_shadow_2" dx="0" dy="0" shadow-angle="" shadow-distance="">
      </feOffset>
      <feFlood result="drop_shadow_3" flood-color="rgb(0,0,0)" flood-opacity="1">
      </feFlood>
      <feComposite in="drop_shadow_3" in2="drop_shadow_2" operator="in" result="drop_shadow_4">
      </feComposite>
      <feMerge>
        <feMergeNode>
        </feMergeNode>
        <feMergeNode in="SourceGraphic">
        </feMergeNode>
      </feMerge>
    </filter>
    <filter id="pf64dsb" x="-100%" y="-100%" width="300%" height="300%">
      <feGaussianBlur in="SourceAlpha" result="drop_shadow_1" stdDeviation="1.25">
      </feGaussianBlur>
      <feOffset in="drop_shadow_1" result="drop_shadow_2" dx="0" dy="0" shadow-angle="" shadow-distance="">
      </feOffset>
      <feFlood result="drop_shadow_3" flood-color="rgb(0,0,0)" flood-opacity="1">
      </feFlood>
      <feComposite in="drop_shadow_3" in2="drop_shadow_2" operator="in" result="drop_shadow_4">
      </feComposite>
      <feMerge>
        <feMergeNode>
        </feMergeNode>
        <feMergeNode in="SourceGraphic">
        </feMergeNode>
      </feMerge>
    </filter>
  </defs>
  <g transform="matrix(1,0,0,1,-391.911,-448.3044)">
    <g transform="matrix(1,0,0,1,396.9574,476.1837)">
      <path d="M-1.271,1.466C-1.271,1.466,-0.096,-1.667,2.508,-5.026C5.112,-8.385,13.567,-14.717,17.527,-18.059C21.487,-21.401,32.295,-26.912,34.624,-27.072C36.953,-27.232,35.143,-28.175,40.811,-27.786C46.479,-27.397,53.391,-19.325,55.779,-16.364C58.167,-13.403,75.153,12.852,75.153,12.852L67.612,18.487C67.612,18.487,60.462,10.097,50.025,12.435C48.897,15.34,46.218,32.748,44.568,33.49C42.918,34.232,-1.271,1.466,-1.271,1.466z" fill="rgb(255,28,28)">
      </path>
    </g>
    <g transform="matrix(1,0,0,1,396.9574,476.1837)">
      <path d="M50.025,12.435C49.048,14.951,46.906,28.349,45.279,32.371C45.007,32.542,44.856,32.634,44.856,32.634L17.402,8.009C17.402,8.009,48.129,8.851,52.988,-5.237C57.847,-19.325,55.216,9.177,61.839,13.692C62.217,13.949,62.497,14.241,62.688,14.558C59.599,12.764,55.219,11.272,50.025,12.435z" fill="rgb(220,22,22)">
      </path>
    </g>
  </g>
  <g filter="url(#pf64dsb)">
    <g transform="matrix(1,0,0,1,48.794,59.5021)">
      <path d="M2.79,0C2.79,0.62,2.311,1.917,2.311,2.043C2.311,3.655,1.063,4.963,-0.478,4.963C-1.16,4.963,-5.878,3.1,-5.878,1.488C-5.878,1.339,-5.866,1.192,-5.846,1.049C-6.054,1.101,-6.273,1.129,-6.497,1.129C-8.038,1.129,-9.954,-1.981,-10.334,-1.981C-11.716,-1.981,-12.864,-3.032,-13.085,-4.412C-13.596,-3.751,-18.046,-4.635,-18.046,-6.247C-18.046,-6.299,-18.044,-6.353,-18.042,-6.404C-19.099,-6.819,-20.516,-10.01,-21.111,-10.01C-22.521,-10.01,-23.688,-11.106,-23.875,-12.528C-24.384,-11.829,-25.19,-11.377,-26.095,-11.377C-27.636,-11.377,-32.112,-15.831,-32.457,-17.032C-32.87,-16.778,-33.354,-16.632,-33.868,-16.632C-35.409,-16.632,-39.906,-21.1,-39.976,-22.646C-40.765,-22.697,-42.713,-23.407,-43.142,-23.407C-44.683,-23.407,-48.794,-27.8,-48.794,-29.412C-48.794,-30.778,-47.897,-31.926,-46.686,-32.244C-46.686,-32.266,-46.687,-32.29,-46.687,-32.313C-46.687,-33.925,-45.438,-35.233,-43.897,-35.233C-42.996,-35.233,-42.193,-34.785,-41.683,-34.091C-41.345,-34.243,-40.972,-34.327,-40.581,-34.327C-39.04,-34.327,-36.504,-30.238,-36.151,-29.567C-35.709,-29.875,-35.176,-30.055,-34.605,-30.055C-33.064,-30.055,-29.469,-25.921,-28.981,-25.921C-27.611,-25.921,-26.47,-24.887,-26.235,-23.525C-25.76,-23.918,-25.158,-24.154,-24.505,-24.154C-22.985,-24.154,-18.681,-20.924,-18.203,-20.035C-17.851,-20.203,-17.458,-20.297,-17.045,-20.297C-15.504,-20.297,-12.965,-15.463,-12.965,-14.412C-12.965,-14.383,-12.967,-14.353,-12.967,-14.324C-12.561,-14.566,-12.089,-14.705,-11.588,-14.705C-10.584,-14.705,-9.703,-14.148,-9.212,-13.315C-8.714,-13.799,-8.391,-14.645,-7.312,-14.096C-6.233,-13.547,-2.035,-7.957,-2.222,-7.565C-2.212,-7.565,-2.2,-7.565,-2.19,-7.565C-0.649,-7.565,0.267,-4.566,0.267,-2.954C0.267,-2.308,2.79,-1.591,2.79,0z" fill="rgb(255,255,255)">
      </path>
    </g>
  </g>
  <g transform="matrix(1,0,0,1,48.794,59.5021)">
    <path d="M-6.303,-12.97C-6.312,-12.969,-6.326,-12.965,-6.335,-12.964C-6.308,-13.072,-6.63,-13.464,-7.146,-13.991C-6.888,-13.803,-6.527,-13.444,-6.118,-12.991C-6.179,-12.989,-6.242,-12.982,-6.303,-12.97zM-3.009,-8.915C-3.017,-8.958,-3.027,-9.003,-3.037,-9.048C-2.933,-8.896,-2.835,-8.75,-2.748,-8.615C-2.892,-8.708,-2.988,-8.806,-3.009,-8.915zM-26.095,-11.377C-26.659,-11.377,-27.786,-12.083,-29.011,-12.977C-28.82,-13.188,-28.659,-13.43,-28.537,-13.691C-28.082,-12.332,-26.725,-11.48,-25.342,-11.749C-25.254,-11.766,-25.132,-11.715,-24.987,-11.616C-25.326,-11.463,-25.702,-11.377,-26.095,-11.377zM2.79,0C2.79,0.62,2.311,1.918,2.311,2.043C2.311,3.655,1.063,4.963,-0.478,4.963C-1.16,4.963,-5.878,3.1,-5.878,1.488C-5.878,1.339,-5.865,1.192,-5.846,1.049C-6.054,1.101,-6.273,1.129,-6.497,1.129C-8.038,1.129,-9.954,-1.981,-10.334,-1.981C-11.715,-1.981,-12.864,-3.032,-13.085,-4.412C-13.595,-3.751,-18.046,-4.635,-18.046,-6.247C-18.046,-6.298,-18.043,-6.353,-18.042,-6.404C-18.354,-6.526,-18.698,-6.891,-19.042,-7.344C-17.818,-7.233,-16.581,-7.416,-16.393,-7.79C-15.912,-6.478,-14.584,-5.667,-13.228,-5.931C-12.856,-6.003,-10.379,-3.319,-8.867,-3.613C-8.648,-3.655,-8.437,-3.726,-8.243,-3.816C-8.236,-3.672,-8.217,-3.525,-8.189,-3.379C-7.881,-1.797,-2.894,-0.87,-2.225,-1C-0.713,-1.294,0.261,-2.819,-0.047,-4.401C-0.054,-4.439,-0.037,-4.601,-0.015,-4.821C0.169,-4.153,0.267,-3.479,0.267,-2.954C0.267,-2.309,2.79,-1.591,2.79,0z" fill="rgb(240,240,240)">
    </path>
  </g>
  <g filter="url(#pf64dsa)">
    <g transform="matrix(1,0,0,1,81.2494,41.6549)">
      <path d="M0,-2.919C1.541,-2.919,2.79,-1.612,2.79,0C2.79,0.181,4.12,1.976,4.12,3.048C4.12,4.258,3.414,5.298,2.412,5.74C2.475,5.985,1.262,9.429,-0.279,9.429C-0.753,9.429,-3.001,11.2,-4.274,11.2C-5.148,11.2,-6.799,10.176,-6.984,10.176C-8.525,10.176,-9.774,8.868,-9.774,7.256C-9.774,6.729,-9.732,4.931,-9.732,4.436C-9.732,2.824,-8.483,1.517,-6.942,1.517C-6.857,1.517,-6.771,1.522,-6.688,1.529C-6.689,1.49,-6.69,1.45,-6.69,1.411C-6.69,-0.201,-5.441,-1.508,-3.9,-1.508C-3.417,-1.508,-1.149,-2.919,0,-2.919z" fill="rgb(255,255,255)">
      </path>
    </g>
  </g>
  <g transform="matrix(1,0,0,1,81.2494,41.6549)">
    <path d="M1.478,-2.475C2.115,-2.058,2.58,-1.378,2.734,-0.582C2.274,-1.423,1.584,-2.25,1.478,-2.475zM4.12,3.048C4.12,4.258,3.414,5.298,2.412,5.74C2.475,5.985,1.262,9.429,-0.279,9.429C-0.753,9.429,-3.002,11.2,-4.274,11.2C-5.147,11.2,-6.8,10.176,-6.984,10.176C-8.014,10.176,-8.913,9.59,-9.396,8.722C-8.745,8.967,-8.023,9.194,-7.512,9.194C-5.895,9.194,-3.037,7.342,-2.435,7.342C-0.477,7.342,1.064,3.739,0.984,3.483C2.258,3.021,3.154,1.932,3.154,0.667L3.154,0.666C3.547,1.331,4.12,2.346,4.12,3.048z" fill="rgb(240,240,240)">
    </path>
  </g>
<script><![CDATA[function ia(a){var b=0;return function(){return b<a.length?{done:!1,value:a[b++]}:{done:!0}}}function ja(a){var b="undefined"!=typeof Symbol&&Symbol.iterator&&a[Symbol.iterator];if(b)return b.call(a);if("number"==typeof a.length)return{next:ia(a)};throw Error(String(a)+" is not an iterable or ArrayLike");}var ka="function"==typeof Object.defineProperties?Object.defineProperty:function(a,b,e){if(a==Array.prototype||a==Object.prototype)return a;a[b]=e.value;return a};
function Ca(a){a=["object"==typeof globalThis&&globalThis,a,"object"==typeof window&&window,"object"==typeof self&&self,"object"==typeof global&&global];for(var b=0;b<a.length;++b){var e=a[b];if(e&&e.Math==Math)return e}throw Error("Cannot find global object");}var Da=Ca(this);function Ea(a,b){if(b)a:{var e=Da;a=a.split(".");for(var d=0;d<a.length-1;d++){var c=a[d];if(!(c in e))break a;e=e[c]}a=a[a.length-1];d=e[a];b=b(d);b!=d&&null!=b&&ka(e,a,{configurable:!0,writable:!0,value:b})}}
Ea("Symbol",function(a){function b(f){if(this instanceof b)throw new TypeError("Symbol is not a constructor");return new e(d+(f||"")+"_"+c++,f)}function e(f,h){this.T=f;ka(this,"description",{configurable:!0,writable:!0,value:h})}if(a)return a;e.prototype.toString=function(){return this.T};var d="jscomp_symbol_"+(1E9*Math.random()>>>0)+"_",c=0;return b});
Ea("Symbol.iterator",function(a){if(a)return a;a=Symbol("Symbol.iterator");for(var b="Array Int8Array Uint8Array Uint8ClampedArray Int16Array Uint16Array Int32Array Uint32Array Float32Array Float64Array".split(" "),e=0;e<b.length;e++){var d=Da[b[e]];"function"===typeof d&&"function"!=typeof d.prototype[a]&&ka(d.prototype,a,{configurable:!0,writable:!0,value:function(){return jb(ia(this))}})}return a});function jb(a){a={next:a};a[Symbol.iterator]=function(){return this};return a}
function kb(a,b){a instanceof String&&(a+="");var e=0,d=!1,c={next:function(){if(!d&&e<a.length){var f=e++;return{value:b(f,a[f]),done:!1}}d=!0;return{done:!0,value:void 0}}};c[Symbol.iterator]=function(){return c};return c}Ea("Array.prototype.keys",function(a){return a?a:function(){return kb(this,function(b){return b})}});
Ea("String.prototype.startsWith",function(a){return a?a:function(b,e){if(null==this)throw new TypeError("The 'this' value for String.prototype.startsWith must not be null or undefined");if(b instanceof RegExp)throw new TypeError("First argument to String.prototype.startsWith must not be a regular expression");var d=this.length,c=b.length;e=Math.max(0,Math.min(e|0,this.length));for(var f=0;f<c&&e<d;)if(this[e++]!=b[f++])return!1;return f>=c}});function w(a){return String(+(+a).toFixed(4))}
function lb(a){var b;if(a){var e=ja(a),d=e.next().value,c=e.next().value;e=e.next().value;void 0===b&&(b=a[3]);d=Math.round(255*d);c=Math.round(255*c);e=Math.round(255*e);a=d+","+c+","+e;return void 0!==b?"rgba("+a+","+b+")":"rgb("+a+")"}}function z(a,b,e){for(var d=[],c=Math.min(a.length,b.length),f=0;f<c;f++){var h=a[f];d[f]=h+(b[f]-h)*e}return d}
function mb(a,b,e){for(var d=[[],[],[],!1],c=Math.min(a[0].length,b[0].length),f=0;f<c;f++)d[0].push(z(a[0][f],b[0][f],e)),d[1].push(z((a[1]?a[1][f]:[0,0])||[0,0],(b[1]?b[1][f]:[0,0])||[0,0],e)),d[2].push(z((a[2]?a[2][f]:[0,0])||[0,0],(b[2]?b[2][f]:[0,0])||[0,0],e)),d[3]=a[3];return d}function G(a,b){return a-Math.floor(a/b)*b}
function H(a,b,e){var d=Array.isArray(a)?a:a.kfs;if(!d.length)throw Error("!");if(1===d.length)return b=d[0],e(b,b,0,J(b));if(a=Array.isArray(a)?void 0:a.l){var c=a.sf,f=a.ef,h=f-c;b=!a.b&&b<f||a.b&&b>c?b:a.a&&1===G(Math.floor((b-c)/h),2)?f-G(b-c,h):c+G(b-c,h)}for(a=0;a<d.length;a++)if(c=d[a],J(c)===b)return a?e(d[a-1],c,1,b):e(c,d[a+1],0,b);for(a=0;a<d.length;a++)if(J(d[a])>=b){if(a)var k=[a-1,a];else k=[a,a+1],b=J(d[k[0]]);break}k||(k=[d.length-2,d.length-1],b=J(d[k[1]]));a=d[k[0]];d=d[k[1]];k=
J(a);c=J(d);if(b<=k)k=0;else if(c<=b)k=1;else{c=M(b,k,c,0,1);k=a[0];if(f=Array.isArray(k)?k[1]:void 0)b:{h=f[0];k=f[1];var g=f[2];f=f[3];if(0===c)c=0;else if(1===c)c=1;else if(c=Ub(3*h-3*g+1,-(6*h)+3*g,3*h,0-c),-1===c){c=-1;break b}c=O(c,0,k,f,1)}k=c}return e(a,d,k,b)}function J(a){a=a[0];return Array.isArray(a)?a[0]:a}
function Vb(a,b,e,d,c){a=a[0];return(a=Array.isArray(a)?a[2]:void 0)?(e=P([b,[b[0]+a[0],b[1]+a[1]],[e[0]+a[2],e[1]+a[3]],e]),b=e.V(c),a=0,d&&(d=e.W(c),a=Math.atan2(d[1],d[0])),[b,a]):[z(b,e,c),Math.atan2(e[1]-b[1],e[0]-b[0])]}function R(a,b){return H(a,b,function(e,d,c){if(e===d)return e[1]||0;e=e[1];d=d[1];return 0>=c?e:1<=c?d:e+(d-e)*c})||0}function S(a,b){return H(a,b,function(e,d,c){if(e===d)return e[1]||0;e=e[1];d=d[1];return 0>=c?e:1<=c?d:z(e,d,c)})||0}
function Wb(a,b){return H(a,b,function(e,d,c,f){return e===d?T(X(e[1],f)):T(X(mb(e[1],d[1],c),f))})}
function P(a){function b(){if(m)return m;if(!l){var p=[];for(var q=0;101>q;q++){var n=q/100;p.push({J:O(n,a[0][0],a[1][0],a[2][0],a[3][0]),K:O(n,a[0][1],a[1][1],a[2][1],a[3][1]),v:n})}l=p}p=l;p[0].u=0;q=p[0].v=0;n=p.length-1;for(var r=1;r<=n;r++){var t=p[r],v=p[r-1],u=t.J-v.J;v=t.K-v.K;q+=Math.sqrt(u*u+v*v);t.u=q;t.v=r/n}return m=p}function e(p){for(var q=b(),n=0;q[n].u<p&&n<q.length-1;)n++;var r=q[n];return n&&.5<Math.abs(r.u-p)?(q=q[n-1],M(p,q.u,r.u,q.v,r.v)):r.v}function d(p){return e(p*c())}function c(){var p=
b();return p[p.length-1].u}function f(p){return h(e(p))}function h(p){return[O(p,a[0][0],a[1][0],a[2][0],a[3][0]),O(p,a[0][1],a[1][1],a[2][1],a[3][1])]}function k(p,q,n,r,t){return 3*(t-3*r+3*n-q)*p*p+2*(3*r-6*n+3*q)*p+(3*n-3*q)}function g(p){p+=.5<p?-.001:.001;return[k(p,a[0][0],a[1][0],a[2][0],a[3][0]),k(p,a[0][1],a[1][1],a[2][1],a[3][1])]}var l,m;return{C:a,U:c,Y:d,get:h,fa:f,H:g,V:function(p){return f(p*c())},W:function(p){p=e(p*c());return g(p)},A:function(p){p=d(p);var q=a,n=[];n.push(q[0]);
n.push(q[1]);n.push(q[2]);for(n.push(q[3]);1<q.length;){var r=[];for(var t=q.length-1,v=0;v<t;v++){var u=q[v],y=q[v+1];u=[u[0]+p*(y[0]-u[0]),u[1]+p*(y[1]-u[1])];n.push(u);r.push(u)}q=r}return{left:P([n[0],n[4],n[7],n[9]]),right:P([n[9],n[8],n[6],n[3]])}}}}function Y(a){return Math.pow(a,1/3)}
function Ub(a,b,e,d){if(0===a){var c=(-e+Math.sqrt(e*e-4*b*d))/(2*b);Z(c)?b=c:(c=(-e-Math.sqrt(e*e-4*b*d))/(2*b),b=Z(c)?c:-1);return b}if(0===d)return 0;b/=a;e/=a;c=(3*e-b*b)/9;e=(d/a*-27+b*(9*e-2*b*b))/54;d=c*c*c+e*e;b/=3;if(0<d){if(c=e+Math.sqrt(d),c=0>c?-Y(-c):Y(c),e-=Math.sqrt(d),e=0>e?-Y(-e):Y(e),b=-b+c+e,Z(b))return b}else if(0===d){c=0>e?-Y(-e):Y(e);e=-b+2*c;if(Z(e))return e;e=-(c+b);if(Z(e))return e}else{c=-c;e=Math.acos(e/Math.sqrt(c*c*c));c=2*Math.sqrt(c);d=-b+c*Math.cos(e/3);if(Z(d))return d;
d=-b+c*Math.cos((e+2*Math.PI)/3);if(Z(d))return d;d=-b+c*Math.cos((e+4*Math.PI)/3);if(Z(d))return d}return-1}function Z(a){return 0<=a&&1>=a}function O(a,b,e,d,c){var f=1-a,h=1-a;return h*h*h*b+3*a*f*f*e+3*a*a*(1-a)*d+a*a*a*c}function M(a,b,e,d,c,f){e-=b;if(0===e)return d;a=d+(a-b)*(c-d)/e;f&&(f=Math.min(d,c),d=Math.max(d,c),a>d&&(a=d),a<f&&(a=f));return a}
function T(a){function b(){return a.F()}function e(){if(f)return f;f=[];for(var h=b().length,k=0;k<h;k++)f.push({index:0,length:0,start:0,end:0,P:0,L:0});return f}function d(){var h=e();return h.length?h[h.length-1].end:0}function c(h){var k=b(),g=e(),l=d();if(!k.length)return[void 0,void 0];if(0>h||h>l)if(a.closed)h=G(h,l);else{if(0>h)return k=k[0],l=k.get(0),k=k.H(0),g=Math.atan2(k[1],k[0]),[[l[0]+h*Math.cos(g),l[1]+h*Math.sin(g)],k];if(h>l){g=k[k.length-1];k=g.get(1);g=g.H(1);var m=Math.atan2(g[1],
g[0]);return[[k[0]+(h-l)*Math.cos(m),k[1]+(h-l)*Math.sin(m)],g]}}for(m=0;m<k.length;m++)if(l=g[m],h<=l.end||m===k.length-1)return k=k[m],h=k.Y(Math.max(0,Math.min((h-l.start)/(l.end-l.start),1))),[k.get(h),k.H(h)];return[void 0,void 0]}var f;return{D:a,F:b,M:e,transform:function(h){return T(a.transform(h))},N:function(h){for(var k=b(),g=e(),l=0;l<g.length;l++){var m=g[l];m.start=h;var p=k[l].U();m.length=p;h+=p;m.end=h}return h},getTotalLength:d,X:function(h,k){if(1E-4>d())return[h,0];var g=ja(c(h[0])),
l=g.next().value;g=g.next().value;if(!l||!g)return[h,0];k=k?Math.atan2(g[1],g[0]):Math.PI/2;return[[l[0]+Math.cos(k)*h[1],l[1]+Math.sin(k)*h[1]],k]}}}
function X(a,b){var e=a[0],d=a[1],c=a[2],f=!!a[3],h=void 0,k=void 0;return{closed:f,S:b,F:function(){if(h)return h;h=[];for(var g=1;g<e.length;g++){var l=e[g-1],m=(c?c[g-1]:[0,0])||[0,0],p=(d?d[g]:[0,0])||[0,0],q=e[g];h.push(P([l,[l[0]+m[0],l[1]+m[1]],[q[0]+p[0],q[1]+p[1]],q]))}f&&(l=e.length-1,g=e[l],l=(c?c[l]:[0,0])||[0,0],m=e[0],p=(d?d[0]:[0,0])||[0,0],h.push(P([g,[l[0]+g[0],l[1]+g[1]],[p[0]+m[0],p[1]+m[1]],m])));return h},transform:function(g){for(var l=e.map(function(n){return g.transform(n)}),
m=[l],p=1;2>=p;p++){var q=a[p];q&&(m[p]=q.map(function(n,r){if(!n)return n;var t=e[r];r=l[r];n=g.transform([n[0]+t[0],n[1]+t[1]]);n[0]-=r[0];n[1]-=r[1];return n}))}f&&(m[3]=!0);return X(m)},B:function(){if(void 0!==k)return k;var g=[];var l=e.length;if(l){var m=e[0];g.push("M");g.push(w(m[0]),",",w(m[1]));for(m=1;m<l;m++)Xb(e[m-1],c?c[m-1]:void 0,d?d[m]:void 0,e[m],g);f&&l&&Xb(e[l-1],c?c[l-1]:void 0,d?d[0]:void 0,e[0],g);f&&g.push("z")}else g=[];return k=g.join("")}}}
function Xb(a,b,e,d,c){b&&(b[0]||b[1])||e&&(e[0]||e[1])?(b=b||[0,0],e=e||[0,0],c.push("C"),c.push(w(b[0]+a[0])),c.push(","),c.push(w(b[1]+a[1])),c.push(","),c.push(w(e[0]+d[0])),c.push(","),c.push(w(e[1]+d[1])),c.push(",")):c.push("L");c.push(w(d[0]));c.push(",");c.push(w(d[1]))}function Yb(a,b,e,d){var c=.5522848*e,f=.5522848*d;return[[[a,b-d],[a+e,b],[a,b+d],[a-e,b]],[[-c,0],[0,-f],[c,0],[0,f]],[[c,0],[0,f],[-c,0],[0,-f]],!0]}
function Zb(a,b,e,d,c){var f=e/2,h=d/2,k=a-f,g=b-h;f=a+f;h=b+h;if(c&&1E-4<Math.abs(c)&&1E-4<Math.abs(e)&&1E-4<Math.abs(d)){c=Math.min(c,e/2,d/2);var l=.5522848*c,m=.5522848*c;return 1E-4>Math.abs(c-e/2)&&1E-4>Math.abs(c-d/2)?[[[a,g],[f,b],[a,h],[k,b]],[[-l,0],[0,-m],[l,0],[0,m]],[[l,0],[0,m],[-l,0],[0,-m]],!0]:1E-4>Math.abs(c-e/2)?[[[a,g],[f,g+c],[f,h-c],[a,h],[k,h-c],[k,g+c]],[[-l,0],[0,-m],[0,0],[l,0],[0,m],[0,0]],[[l,0],[0,0],[0,m],[-l,0],[0,0],[0,-m]],!0]:1E-4>Math.abs(c-d/2)?[[[k+c,g],[f-c,g],
[f,b],[f-c,h],[k+c,h],[k,b]],[[-l,0],[0,0],[0,-m],[l,0],[0,0],[0,m]],[[0,0],[l,0],[0,m],[0,0],[-l,0],[0,-m]],!0]:[[[f-c,g],[f,g+c],[f,h-c],[f-c,h],[k+c,h],[k,h-c],[k,g+c],[k+c,g]],[[0,0],[0,-m],[0,0],[l,0],[0,0],[0,m],[0,0],[-l,0]],[[l,0],[0,0],[0,m],[0,0],[-l,0],[0,0],[0,-m],[0,0]],!0]}return[[[f,g],[f,h],[k,h],[k,g]],[[0,0],[0,0],[0,0],[0,0]],[[0,0],[0,0],[0,0],[0,0]],!0]}
function $b(a,b,e,d,c,f,h,k){for(var g=Math.PI/h,l=2*Math.PI*e/(4*h),m=2*Math.PI*d/(4*h),p=[],q=[],n=[],r=0;r<2*h;r++){var t=r*g+k-Math.PI/2,v=r%2?e:d,u=r%2?l:m,y=r%2?c:f,A=v*Math.cos(t);t=v*Math.sin(t);v=0===A&&0===t?0:t/Math.sqrt(A*A+t*t);var x=0===A&&0===t?0:-A/Math.sqrt(A*A+t*t);p.push([a+A,b+t]);q.push([v*u*y,+x*u*y]);n.push([-v*u*y,-x*u*y])}return[p,q,n,!0]}
function ac(a,b,e,d,c,f){var h=2*Math.PI/c;f=f||0;for(var k=2*Math.PI*e/(4*c),g=[],l=[],m=[],p=0;p<c;p++){var q=p*h+f-Math.PI/2,n=e*Math.cos(q);q=e*Math.sin(q);var r=0===n&&0===q?0:q/Math.sqrt(n*n+q*q),t=0===n&&0===q?0:-n/Math.sqrt(n*n+q*q);g.push([a+n,b+q]);l.push([r*k*d,+t*k*d]);m.push([-r*k*d,-t*k*d])}return[g,l,m,!0]}
function bc(a){var b=Object.keys(a);if(a["centered-size"]&&a["[rx,ry]"]){var e=a["centered-size"];e=Math.min(a["[rx,ry]"][0],e[0]/2,e[1]/2);a["[rx,ry]"]=[e,e]}if(a["shadow-distance"]||a["shadow-angle"]){e=a["shadow-distance"]||0;var d=a["shadow-angle"]||0;a.dx=e*Math.cos(d);a.dy=e*Math.sin(d);delete a["shadow-distance"];delete a["shadow-angle"]}if(a["blur-sigma"]||a["blur-dimensions"])return b=.3*a["blur-sigma"],a=a["blur-dimensions"],{stdDeviation:(3===a?0:b)+" "+(2===a?0:b)};if(a.dash){e=[];d=b.filter(function(f){return"dash"===
f||f.startsWith("dash-")});d.sort();d=ja(d);for(var c=d.next();!c.done;c=d.next())c=c.value,e.push(a[c]),delete a[c];a["stroke-dasharray"]=e.join(" ")}for(e=0;e<b.length;e++)d=b[e],c=a[d],"fill"===d||"stroke"===d||"color"===d||"stop-color"===d?Array.isArray(c)&&(a[d]=lb(c)):"[x1,y1]"===d?(a.x1=w(c[0]),a.y1=w(c[1]),delete a[d]):"[x2,y2]"===d?(a.x2=w(c[0]),a.y2=w(c[1]),delete a[d]):"[cx,cy]"===d?(a.cx=w(c[0]),a.cy=w(c[1]),delete a[d]):"[rx,ry]"===d?(a.rx=w(c[0]),a.ry=w(c[1]),delete a[d]):"translate"===
d?(a.transform="translate("+w(c[0])+", "+w(c[1])+")",delete a[d]):"centered-size"===d?(a.x=w(-c[0]/2),a.y=w(-c[1]/2),a.width=w(c[0]),a.height=w(c[1]),delete a[d]):"d"===d?Array.isArray(c)&&(a[d]=X(c).B()):null===c||void 0===c?a[d]="":"string"!==typeof c&&(a[d]="number"===typeof c?w(c):String(c));return a}
function cc(){var a=1,b=0,e=0,d=1,c=0,f=0,h;return{translate:function(k,g){c=k*a+g*e+c;f=k*b+g*d+f;h=void 0},rotate:function(k){var g=Math.sin(k);k=Math.cos(k);var l=a,m=e;a=k*l+g*m;e=-g*l+k*m;l=b;m=d;b=k*l+g*m;d=-g*l+k*m;h=void 0},scale:function(k,g){a*=k;d*=g;e*=g;b*=k;h=void 0},ca:function(k,g){k=Math.tan(k);g=Math.tan(g);var l=a,m=e;a=l+m*g;e=l*k+m;l=b;m=d;b=l+m*g;d=l*k+m},transform:function(k){return[k[0]*a+k[1]*e+c,k[0]*b+k[1]*d+f]},matrix:function(){return{m11:a,m12:b,m21:e,m22:d,dx:c,dy:f}},
concat:function(k){var g=k.matrix();k=g.m11;var l=g.m21,m=g.dx,p=g.m12,q=g.m22;g=g.dy;var n=a,r=e;a=k*n+p*r;e=l*n+q*r;c+=m*n+g*r;n=b;r=d;b=k*n+p*r;d=l*n+q*r;f+=m*n+g*r},B:function(){h||(h="matrix("+w(a)+","+w(b)+","+w(e)+","+w(d)+","+w(c)+","+w(f)+")");return h}}}
function dc(a,b){var e=a||cc();return{O:b,G:function(d){if(b){var c=cc();d=void 0!==b.o?b.o+d:d;b.p&&c.translate(b.p[0]*d,b.p[1]*d);void 0!==b.x&&void 0!==b.y&&c.translate(b.x*d,b.y*d);b.a&&c.translate(b.a[0],b.a[1]);void 0!==b.r&&c.rotate(b.r*d);b.s&&c.scale(Math.pow(b.s[0],d),Math.pow(b.s[1],d));b.a&&c.translate(-b.a[0],-b.a[1]);return c}return e}}}
function ec(a,b){function e(f){c||(void 0===d&&(d=f),a(f-d)?window.requestAnimationFrame(e):b&&b())}var d,c=!1;window.requestAnimationFrame(e);return function(){b&&b();c=!0}}
function fc(a,b){function e(x){var C;g=x;for(var D=0;D<a.a.length;D++){var K=x,B=a.a[D];if(null===(C=B.tm)||void 0===C?0:C.length)for(var Fa=0;Fa<B.tm.length;Fa++){var la=K,ma=B.tm[Fa];la-=ma.st||0;K=la=ma.tm?a.fr*R(ma.tm,la):la/(ma.ts||1)}var aa=[],Ga=[];gc(B,K,Ga);aa=hc(B,K,aa);var Ha=B.trm,ba=aa,Ia=K;if(Ha)for(var Ja=0;Ja<Ha.length;Ja++){var L=Ha[Ja],nb=L.s,ob=L.e,pb=L.o,qb=L.a,E=0,F=1,ca=0;void 0!==nb&&(E=R(nb,Ia));void 0!==ob&&(F=R(ob,Ia));void 0!==pb&&(ca=R(pb,Ia));E=Math.max(0,Math.min(E,1));
F=Math.max(0,Math.min(F,1));if(E>F){var ic=E;E=F;F=ic}ca-=Math.floor(ca);E+=ca;F+=ca;1<E&&(--E,--F);for(var na=0,Ka=0;Ka<L.ds.length;Ka++){var rb=L.ds[Ka],oa=ba[rb];if(oa&&oa.length)if(E===F)ba[rb]=[];else for(var La=0;La<oa.length;La++){var sb=oa[La];sb&&(qb||(na=0),na=sb.N(na))}}for(var Ma=0;Ma<L.ds.length;Ma++){var pa=ba[L.ds[Ma]];if(pa&&pa.length)for(var Na=0;Na<pa.length;Na++){var tb=pa[Na];if(tb)for(var qa=tb.M(),jc=qa[qa.length-1],ub=qb?na:jc.end,Oa=0;Oa<qa.length;Oa++){var ra=qa[Oa];ra.P=
ra.start/ub;ra.L=ra.end/ub}}}for(var Pa=0;Pa<L.ds.length;Pa++){var vb=L.ds[Pa],sa=ba[vb],wb=[];if(sa&&sa.length)for(var Qa=0;Qa<sa.length;Qa++){var ta=sa[Qa];if(ta){var xb=ta.D.closed,Ra=[[E,F]];!xb&&1<F&&(Ra=[[E,1],[0,F-1]]);for(var Sa=0;Sa<Ra.length;Sa++){for(var I=Ra[Sa],da=[],kc=ta.F(),yb=ta.M(),lc=xb?2:1,ua=0;ua<lc;ua++)for(var va=0;va<yb.length;va++){var wa=kc[va],zb=yb[va],U=zb.P+ua,Q=zb.L+ua;if(!(I[1]<U||Q<I[0]))if(U<I[0]&&I[1]<Q){var mc=wa.A(M(I[0],U,Q,0,1,!0)).right.A(M(I[1],I[0],Q,0,1,
!0)).left;da.push(mc)}else if(U<I[0]){var nc=wa.A(M(I[0],U,Q,0,1,!0)).right;da.push(nc)}else if(I[1]<Q){var oc=wa.A(M(I[1],U,Q,0,1,!0)).left;da.push(oc)}else da.push(wa)}var Ab=wb,pc=Ab.push,V=da,Ta=[],Ua=[],Va=[];if(V.length){for(var ea=0;ea<V.length;ea++){var Wa=ea?V[ea-1].C:void 0,Bb=V[ea].C,fa=Bb[0],Cb=Bb[1];Ta.push(fa);Ua.push(Wa?[Wa[2][0]-fa[0],Wa[2][1]-fa[1]]:[0,0]);Va.push([Cb[0]-fa[0],Cb[1]-fa[1]])}var Xa=V[V.length-1].C,Db=Xa[3],Eb=Xa[2];Ta.push(Xa[3]);Ua.push([Eb[0]-Db[0],Eb[1]-Db[1]]);
Va.push([0,0])}pc.call(Ab,T(X([Ta,Ua,Va])))}}}ba[vb]=wb}}var Fb=aa,Ya=B.ds;if(Ya)for(var xa=0;xa<Ya.length;xa++){var ha=Ya[xa];if("d"===ha.t){var N=[];if(ha.ds)for(var Za=0;Za<ha.ds.length;Za++)for(var Gb=Fb[ha.ds[Za]],$a=0;$a<Gb.length;$a++)N.push(Gb[$a]);var ab=ha.tr;if(ab)for(var bb=0;bb<ab.length;bb++){var ya=Ga[ab[bb]];if(ya.O){for(var Hb=[],cb=0;cb<ya.O.cc;cb++)for(var db=0;db<N.length;db++)Hb.push(N[db].transform(ya.G(cb)));N=Hb}else for(var za=0;za<N.length;za++)N[za]=N[za].transform(ya.G(0))}Fb[xa]=
N}}for(var Aa=K,Ib=B.gr||{},Jb=Object.keys(Ib),eb=0;eb<Jb.length;eb++){var Kb=Jb[eb],Lb=document.getElementById(Kb);if(Lb){var Ba=Ib[Kb],W=S(Ba.s,Aa),Mb=S(Ba.e,Aa),fb=R(Ba.h,Aa)/100,Nb=R(Ba.a,Aa)/180*Math.PI,gb=Mb[0]-W[0],hb=Mb[1]-W[1],Ob=Math.sqrt(gb*gb+hb*hb),Pb=Math.atan2(hb,gb),Qb=Ob*(1<=fb?.99:-1>=fb?-.99:fb);var Rb={cx:w(W[0]),cy:w(W[1]),fx:w(Math.cos(Pb+Nb)*Qb+W[0]),fy:w(Math.sin(Pb+Nb)*Qb+W[1]),r:w(Ob)};for(var Sb=Object.keys(Rb),ib=0;ib<Sb.length;ib++){var Tb=Sb[ib];Lb.setAttribute(Tb,Rb[Tb])}}}qc(B,
K,aa,Ga)}}function d(){p=g;e(g);l&&l();l=ec(function(x){var C=a.fs,D=a.fe;x=p+a.fr*x/1E3;if(!b.l&&x>=D)return b.resetAtEnd?e(C):b.canRestat?(e(D),g=C):e(D),!1;e((x-C)%(D-C)+C);return!0},function(){m=!1;b.I&&b.I(g,!1)});m=!0;b.I&&b.I(g,!0)}function c(){l&&(l(),l=void 0);g=a.fs}function f(){l&&(l(),l=void 0)}function h(){k("PLAY");d()}var k=b.log||function(){};k("ANIMATION",a,b);a=a||{};b=b||{};a.fr||(a.fr=16);var g=a.fs,l,m=!1,p=0,q=b.id||"",n=document.getElementById(q);k("ELEMENT",q,n);q=b.st;if(n)if("mouseOver"===
q){n.addEventListener("mouseenter",function(){k("EVENT-MOUSEENTER");h()});var r=b.mo;r&&n.addEventListener("mouseleave",function(){k("EVENT-MOUSELEAVE");"pause"===r?f():"reset"===r?c():"reverse"===r&&d()})}else if("click"===q)n.addEventListener("click",function(){k("EVENT-CLICK");h()});else if("whenVisible"===q){var t=function(){if(!n)return!1;var x=n.getBoundingClientRect(),C=0,D=0,K=window.innerWidth,B=window.innerHeight;u&&(B=u.getBoundingClientRect(),C=B.left,D=B.top,K=B.width,B=B.height);return x.x+
x.width<C||x.x>C+K||x.y+x.height<D||x.y>D+B},v=b.scrollerCl,u=v?rc(n,v):null,y=b.so,A=t();(u||document).addEventListener("scroll",function(){k("EVENT-SCROLL");var x=t();A!==x&&((A=x)?"pause"===y?f():"reset"===y&&c():h())});A||h()}"load"===q&&h();return{ea:a,ba:e,R:function(){},stop:c,pause:f,play:h,aa:function(){d()},$:function(x){g=x;d()},ia:function(){d()},Z:function(){return m}}}
function rc(a,b){for(;a&&a!==document;){if(a instanceof Element&&a&&(a.classList?a.classList.contains(b):a.className&&(new RegExp("(^|\\s)"+b+"(\\s|$)")).test(a.className)))return a;a=a.parentNode}return null}
function hc(a,b,e){var d=[];a=a.ds||[];for(var c={m:0};c.m<a.length;c={m:c.m},c.m++){var f=a[c.m];if("d"!==f.t){var h=void 0;if("p"===f.t)h=H(f.p,b,function(q){return function(n,r,t,v){var u=e[q.m];return u&&(u=u[q.m])&&u.D.S===v?u:n===r?T(X(n[1],v)):T(X(mb(n[1],r[1],t),v))}}(c));else if("e"===f.t)h=S(f.p,b),f=S(f.s,b),h=T(X(Yb(h[0],h[1],f[0]/2,f[1]/2),b));else if("r"===f.t){h=S(f.p,b);var k=S(f.s,b);f=R(f.r,b);h=T(X(Zb(h[0],h[1],k[0],k[1],Math.min(f,k[0]/2,k[1]/2)),b))}else if("st"===f.t){h=S(f.p,
b);k=R(f.pt,b);var g=R(f.r,b)/180*Math.PI,l=R(f.ir,b),m=R(f.or,b),p=R(f.is,b)/100;f=R(f.os,b)/100;h=T(X($b(h[0],h[1],l,m,p,f,k,g)))}else"pl"===f.t&&(h=S(f.p,b),k=R(f.pt,b),g=R(f.r,b)/180*Math.PI,l=R(f.or,b),f=R(f.os,b)/100,h=T(X(ac(h[0],h[1],l,f,k,g))));d[c.m]=h?[h]:[]}}return d}
function gc(a,b,e){a=a.tr||[];for(var d=0;d<a.length;d++){var c=a[d],f=c.r;if(f)e[d]=dc(void 0,{a:f.a?S(f.a,b):[0,0],p:f.p?S(f.p,b):[0,0],x:f.x?R(f.x,b):0,y:f.y?R(f.y,b):0,ja:f.s?S(f.s,b):[1,1],r:f.r?R(f.r,b):0,da:f.cc,c:f.c?R(f.c,b):0,ha:f.o?R(f.o,b):0});else{f=cc();c=c.tp||[];for(var h={},k=0;k<c.length;h={g:h.g},k++){var g=c[k];h.g=g[0];g=g[1];if(!Array.isArray(g)&&"sk"===g.t&&g.sk){var l=R(g.sk,b);g=R(g.sa,b);f.rotate(-g/180*Math.PI);f.ca(-l/180*Math.PI,0);f.rotate(g/180*Math.PI)}else if(Array.isArray(g)||
"txAp"!==g.t)l=H(g,b,function(v){return function(u,y,A){if(u===y)return u[1];var x=u[1];y=y[1];if("translateAo"!==v.g){if(0>=A)return x;if(1<=A)return y}return Array.isArray(x)?"position"===v.g?Vb(u,x,y,!1,A)[0]:"translateAo"===v.g?Vb(u,x,y,!0,A):z(x,y,A):x+(y-x)*A}}(h)),"position"===h.g&&(h.g="translate"),"anchor"===h.g&&(l=[-l[0],-l[1]],h.g="translate"),"translateAo"===h.g?(g=l[0],l=l[1],f.translate(g[0],g[1]),f.rotate(l)):"translate"===h.g?f.translate(l[0],l[1]):"positionX"===h.g?f.translate(l,
0):"positionY"===h.g?f.translate(0,l):"rotate"===h.g?f.rotate(l):"scale"===h.g&&f.scale(l[0],l[1]);else{l=Wb(g.path,b);l.N(0);var m=R(g.f,b),p=R(g.l,b),q=g.p,n=g.point,r=g.width,t=n[0];g.a?(g=l.getTotalLength()-m+p,t=t/r*g+m):t+=m;l.closed&&(t=G(t,l.getTotalLength()));l=ja(l.X([t,n[1]],q));g=l.next().value;l=l.next().value;f.translate(g[0],g[1]);f.rotate(l)}}e[d]=dc(f)}}}
function qc(a,b,e,d){var c=a.a||[];a=a.el||[];for(var f=0;f<a.length;f++){var h=document.getElementById(a[f]);if(h){for(var k=c[f],g=Object.keys(k),l={},m={},p=0;p<g.length;m={j:m.j},p++){m.j=g[p];var q=k[m.j];if("d"===m.j&&"number"===typeof q)l[m.j]=e[q].map(function(r){return r.D.B()}).join("");else if("transform"===m.j){q="number"===typeof q?{k:q,ga:0}:q;var n=d[q.k];n&&(l[m.j]=n.G(q.i).B())}else"number"!==typeof q&&(q=H(q,b,function(r){return function(t,v,u){if(t===v)return t[1];var y=t[1];v=
v[1];if("translateAo"!==r.j){if(0>=u)return y;if(1<=u)return v}return Array.isArray(y)?"d"===r.j?mb(y,v,u):"position"===r.j?Vb(t,y,v,!1,u)[0]:"translateAo"===r.j?Vb(t,y,v,!0,u):z(y,v,u):y+(v-y)*u}}(m)),l[m.j]=q)}l=bc(l);k=Object.keys(l);for(g=0;g<k.length;g++)m=k[g],p=l[m],void 0!==p&&h.setAttribute(m,p)}}}window.PixodeskAnimator={loadAnimation:function(a,b){a=fc(a,b);return{conf:a.R,setFrame:a.ba,play:a.play,playUntil:a.aa,playFrom:a.$,stop:a.stop,pause:a.pause,isPlaying:a.Z}}};

window.PixodeskAnimator.loadAnimation({"fs":0,"fe":30,"fr":16,"a":[{"a":[],"el":[]}]},{"id":"pf64ds9","cl":"","st":"load","mo":"continue","so":"pause","l":1,"canRestat":1});]]></script>
</svg>