<svg version="1.1" xmlns="http://www.w3.org/2000/svg" viewBox="0 0 380 320" preserveAspectRatio="xMidYMid meet">
  <defs>
    <filter id="efShadow1" x="-100%" y="-100%" width="300%" height="300%">
      <feGaussianBlur in="SourceAlpha" result="drop_shadow_1" stdDeviation="7.5">
      </feGaussianBlur>
      <feOffset in="drop_shadow_1" result="drop_shadow_2" dx="11.313708498984761" dy="11.31370849898476">
      </feOffset>
      <feFlood result="drop_shadow_3" flood-color="rgb(79,79,79)" flood-opacity="100">
      </feFlood>
      <feComposite in="drop_shadow_3" in2="drop_shadow_2" operator="in" result="drop_shadow_4">
      </feComposite>
      <feMerge>
        <feMergeNode>
        </feMergeNode>
        <feMergeNode in="SourceGraphic">
        </feMergeNode>
      </feMerge>
    </filter>
    <filter id="efShadow2" x="-100%" y="-100%" width="300%" height="300%">
      <feGaussianBlur in="SourceAlpha" result="drop_shadow_1" stdDeviation="7.5">
      </feGaussianBlur>
      <feOffset in="drop_shadow_1" result="drop_shadow_2" dx="5.656854249492381" dy="5.65685424949238">
      </feOffset>
      <feFlood result="drop_shadow_3" flood-color="rgb(88,88,88)" flood-opacity="100">
      </feFlood>
      <feComposite in="drop_shadow_3" in2="drop_shadow_2" operator="in" result="drop_shadow_4">
      </feComposite>
      <feMerge>
        <feMergeNode>
        </feMergeNode>
        <feMergeNode in="SourceGraphic">
        </feMergeNode>
      </feMerge>
    </filter>
    <filter id="efShadow3" x="-100%" y="-100%" width="300%" height="300%">
      <feGaussianBlur in="SourceAlpha" result="drop_shadow_1" stdDeviation="7.5">
      </feGaussianBlur>
      <feOffset in="drop_shadow_1" result="drop_shadow_2" dx="5.656854249492381" dy="5.65685424949238">
      </feOffset>
      <feFlood result="drop_shadow_3" flood-color="rgb(88,88,88)" flood-opacity="100">
      </feFlood>
      <feComposite in="drop_shadow_3" in2="drop_shadow_2" operator="in" result="drop_shadow_4">
      </feComposite>
      <feMerge>
        <feMergeNode>
        </feMergeNode>
        <feMergeNode in="SourceGraphic">
        </feMergeNode>
      </feMerge>
    </filter>
    <filter id="efShadow4" x="-100%" y="-100%" width="300%" height="300%">
      <feGaussianBlur in="SourceAlpha" result="drop_shadow_1" stdDeviation="7.5">
      </feGaussianBlur>
      <feOffset in="drop_shadow_1" result="drop_shadow_2" dx="5.656854249492381" dy="5.65685424949238">
      </feOffset>
      <feFlood result="drop_shadow_3" flood-color="rgb(88,88,88)" flood-opacity="100">
      </feFlood>
      <feComposite in="drop_shadow_3" in2="drop_shadow_2" operator="in" result="drop_shadow_4">
      </feComposite>
      <feMerge>
        <feMergeNode>
        </feMergeNode>
        <feMergeNode in="SourceGraphic">
        </feMergeNode>
      </feMerge>
    </filter>
    <filter id="efShadow5" x="-100%" y="-100%" width="300%" height="300%">
      <feGaussianBlur in="SourceAlpha" result="drop_shadow_1" stdDeviation="7.5">
      </feGaussianBlur>
      <feOffset in="drop_shadow_1" result="drop_shadow_2" dx="5.656854249492381" dy="5.65685424949238">
      </feOffset>
      <feFlood result="drop_shadow_3" flood-color="rgb(88,88,88)" flood-opacity="100">
      </feFlood>
      <feComposite in="drop_shadow_3" in2="drop_shadow_2" operator="in" result="drop_shadow_4">
      </feComposite>
      <feMerge>
        <feMergeNode>
        </feMergeNode>
        <feMergeNode in="SourceGraphic">
        </feMergeNode>
      </feMerge>
    </filter>
  </defs>
  <g transform="translate(188.882,142.6975)translate(-261.4849,-1649.1583)translate(266.0031,1637.3069)translate(-316.0031,-1607.3069)translate(327.3197,1655.2233)scale(0.5813,0.5813)translate(-2248.388,-2172.7508)">
    <g filter="url(#efShadow1)">
      <g transform="translate(2248.388,2172.7508)scale(0.9692,0.9692)translate(0,1.9067)">
        <rect x="-254.712" y="-140.7586" width="509.424" height="281.5171" rx="17" ry="17" fill="rgb(52,52,52)">
        </rect>
      </g>
      <g transform="translate(2242.5658,2178.7991)translate(6.6147,-16.4341)">
        <rect x="-242.9308" y="-120.0318" width="485.8616" height="240.0635" rx="0" ry="0" fill="rgb(248,248,248)">
        </rect>
      </g>
      <g transform="translate(2247.1235,2164.0732)">
        <ellipse cx="0" cy="0" rx="38.0106" ry="38.0106" fill="rgb(0,0,0)" opacity="0.31">
        </ellipse>
      </g>
      <g transform="translate(2252.8958,2164.638)">
        <path d="M10.569,0L-15.939,15.939L-15.939,-15.939L10.569,0z" fill="rgb(255,255,255)">
        </path>
      </g>
      <g transform="translate(2030.5435,2297.1025)">
        <path d="M3.542,0L-8.912,7.488L-8.912,-7.488L3.542,0z" fill="rgb(255,255,255)">
        </path>
      </g>
      <g transform="translate(2270.1332,2298.3762)">
        <rect x="-143.5552" y="-3.0929" width="287.1105" height="6.1858" rx="6" ry="6" fill="rgb(255,255,255)" opacity="0.87">
        </rect>
      </g>
      <g transform="translate(2195.2823,2298.2367)">
        <ellipse cx="0" cy="0" rx="6.0433" ry="6.0433" fill="rgb(255,255,255)">
        </ellipse>
      </g>
    </g>
  </g>
  <g transform="translate(188.882,142.6975)translate(-261.4849,-1649.1583)translate(266.0031,1637.3069)translate(-316.0031,-1607.3069)translate(168.6666,1575.6399)rotate(75)translate(72.648,68.118)">
    <defs>
      <linearGradient id="gradient1" gradientUnits="userSpaceOnUse" x1="-159.751" y1="-68.118" x2="14.455" y2="-68.118">
        <stop offset="0%" stop-color="rgb(40,30,90)">
        </stop>
        <stop offset="100%" stop-color="rgb(40,30,90)">
        </stop>
      </linearGradient>
    </defs>
    <path d="M0,-19.407L14.455,-9.992L12.502,-43.152L-41.022,-40.532L-25.602,-29.511C-79.231,-12.663,-133.89,-50.43,-159.751,-126.244C-131.099,-37.582,-77.847,-1.969,0,-19.407z" fill="url(#gradient1)">
    </path>
  </g>
  <g transform="translate(188.882,142.6975)translate(-261.4849,-1649.1583)translate(142,1674)">
    <defs>
      <linearGradient id="gradient2" gradientUnits="userSpaceOnUse" x1="-100" y1="0" x2="100" y2="0">
        <stop offset="0%" stop-color="rgb(40,30,90)">
        </stop>
        <stop offset="100%" stop-color="rgb(40,30,90)">
        </stop>
      </linearGradient>
    </defs>
    <path d="M0,0" stroke-width="2" stroke-linecap="round" stroke-linejoin="round" fill="url(#gradient2)" stroke="rgb(7,31,65)">
    </path>
  </g>
  <g transform="translate(188.882,142.6975)translate(-261.4849,-1649.1583)translate(166.5981,1602.7333)translate(-254.3817,-1490.2793)translate(254.1729,1488.348)translate(0.3271,12.152)">
    <g filter="url(#efShadow2)">
      <rect x="-37.5" y="-36.5" width="75" height="73" rx="5" ry="5" fill="rgb(0,0,0)">
      </rect>
    </g>
  </g>
  <g transform="translate(188.882,142.6975)translate(-261.4849,-1649.1583)translate(166.5981,1602.7333)translate(-254.3817,-1490.2793)translate(254.5864,1475.8885)translate(-254.4896,-1516.07)">
    <g transform="translate(254.4896,1519.142)scale(0.5,0.5)translate(0,-6.1438)">
      <path d="M74.827,-39.692L74.827,60.777L-75.646,60.777L-75.646,-60.777C-75.646,-64.641,-72.527,-67.777,-68.683,-67.777L-47.459,-67.777L45.129,-67.777L74.827,-39.692z" fill="rgb(230,230,230)">
      </path>
    </g>
    <g transform="translate(291.6457,1546.9784)scale(0.5,0.5)">
      <path d="M0.514,-1.039L-149.958,-1.039L-97.933,-52.412L-64.01,-37.838L-24.58,-85.443L0.514,-61.593L0.514,-1.039z" fill="rgb(164,164,164)">
      </path>
    </g>
    <g transform="translate(240.0564,1502.2252)scale(0.5,0.5)">
      <ellipse cx="0" cy="0" rx="15.2424" ry="15.2424" fill="rgb(255,255,255)">
      </ellipse>
    </g>
  </g>
  <g transform="translate(188.882,142.6975)translate(-261.4849,-1649.1583)translate(166.5981,1602.7333)translate(-254.3817,-1490.2793)translate(228.5891,1529.9085)scale(0.5,0.5)">
    <g class="drg tpbl" data-drg-tp="element" data-drg-v="1372" data-test-id="Group 5.export-png-noBorder.Text" data-gn-el-type="text">
      <g style="opacity:1">
        <g transform="translate(0, 0)">
          <path d="M 0 -45.9 L 32.896 -45.9 L 32.896 15.3 L 0 15.3 ZM 32.896 -45.9 L 68.9048 -45.9 L 68.9048 15.3 L 32.896 15.3 ZM 68.9048 -45.9 L 103.6436 -45.9 L 103.6436 15.3 L 68.9048 15.3 ZM 103.6436 -45.9 L 103.6436 -45.9 L 103.6436 15.3 L 103.6436 15.3 Z" fill="rgba(0,0,0,0)">
          </path>
          <g fill="rgb(255,255,255)" stroke-width="0" font-size="51px" style="font-family:Roboto-Bold;font-style:normal;font-weight:400">
            <path fill="rgb(255,255,255)" stroke-width="0" transform="matrix(1,0,0,1,0,0)" d="M17.2574,-12.775L10.708,-12.775L10.708,0L3.2375,0L3.2375,-36.2579L17.3818,-36.2579C20.1045,-36.2579,22.4993,-35.7598,24.5662,-34.7636C26.6331,-33.7674,28.2227,-32.3522,29.3352,-30.5179C30.4473,-28.6833,31.0034,-26.5956,31.0034,-24.2551L31.0034,-24.2551C31.0034,-20.7021,29.7874,-17.9005,27.3554,-15.8503C24.923,-13.8001,21.557,-12.775,17.2574,-12.775L17.2574,-12.775zM10.708,-30.2068L10.708,-18.8261L17.3818,-18.8261C19.3576,-18.8261,20.8641,-19.2909,21.9014,-20.2205C22.9391,-21.1504,23.458,-22.4786,23.458,-24.2051L23.458,-24.2051C23.458,-25.9816,22.935,-27.4176,21.8892,-28.5131C20.8434,-29.6089,19.399,-30.1735,17.5562,-30.2068L17.5562,-30.2068L10.708,-30.2068z">
            </path>
            <path fill="rgb(255,255,255)" stroke-width="0" transform="matrix(1,0,0,1,32.896,0)" d="M32.7216,-36.2579L32.7216,0L25.2511,0L10.708,-23.8563L10.708,0L3.2375,0L3.2375,-36.2579L10.708,-36.2579L25.2761,-12.3517L25.2761,-36.2579L32.7216,-36.2579z">
            </path>
            <path fill="rgb(255,255,255)" stroke-width="0" transform="matrix(1,0,0,1,68.9048,0)" d="M31.925,-19.0505L31.925,-4.5818C30.5803,-2.9716,28.6793,-1.7224,26.2222,-0.8344C23.765,0.0541,21.0423,0.4983,18.054,0.4983L18.054,0.4983C14.9165,0.4983,12.1649,-0.1867,9.7991,-1.5565C7.4334,-2.926,5.6073,-4.914,4.3207,-7.5205C3.0342,-10.1269,2.3742,-13.19,2.3409,-16.7096L2.3409,-16.7096L2.3409,-19.175C2.3409,-22.7939,2.951,-25.9274,4.1713,-28.5753C5.3916,-31.2232,7.1512,-33.2486,9.4503,-34.6514C11.7497,-36.0543,14.4434,-36.7557,17.5313,-36.7557L17.5313,-36.7557C21.8309,-36.7557,25.1926,-35.7306,27.6165,-33.6804C30.0404,-31.6302,31.4765,-28.646,31.925,-24.7279L31.925,-24.7279L24.6534,-24.7279C24.3212,-26.8032,23.5867,-28.3223,22.4497,-29.2852C21.3124,-30.2481,19.7475,-30.7295,17.7551,-30.7295L17.7551,-30.7295C15.2153,-30.7295,13.2814,-29.775,11.9534,-27.8659C10.625,-25.9565,9.9525,-23.1175,9.9358,-19.3489L9.9358,-19.3489L9.9358,-17.033C9.9358,-13.2314,10.658,-10.3595,12.1023,-8.417C13.547,-6.4746,15.6638,-5.5034,18.4528,-5.5034L18.4528,-5.5034C21.2585,-5.5034,23.2589,-6.1011,24.454,-7.2966L24.454,-7.2966L24.454,-13.5471L17.6557,-13.5471L17.6557,-19.0505L31.925,-19.0505z">
            </path>
            <path fill="rgb(255,255,255)" stroke-width="0" transform="matrix(1,0,0,1,103.6436,0)">
            </path>
          </g>
        </g>
      </g>
    </g>
  </g>
  <g transform="translate(188.882,142.6975)translate(-261.4849,-1649.1583)translate(236.5314,1650.0144)translate(-254.3817,-1490.2793)translate(254.1729,1488.348)translate(0.3271,12.152)">
    <g filter="url(#efShadow3)">
      <rect x="-37.5" y="-36.5" width="75" height="73" rx="5" ry="5" fill="rgb(0,0,0)">
      </rect>
    </g>
  </g>
  <g transform="translate(188.882,142.6975)translate(-261.4849,-1649.1583)translate(236.5314,1650.0144)translate(-254.3817,-1490.2793)translate(254.5864,1475.8885)translate(-254.4896,-1516.07)">
    <g transform="translate(254.4896,1519.142)scale(0.5,0.5)translate(0,-6.1438)">
      <path d="M74.827,-39.692L74.827,60.777L-75.646,60.777L-75.646,-60.777C-75.646,-64.641,-72.527,-67.777,-68.683,-67.777L-47.459,-67.777L45.129,-67.777L74.827,-39.692z" fill="rgb(230,230,230)">
      </path>
    </g>
    <g transform="translate(291.6457,1546.9784)scale(0.5,0.5)">
      <path d="M0.514,-1.039L-149.958,-1.039L-97.933,-52.412L-64.01,-37.838L-24.58,-85.443L0.514,-61.593L0.514,-1.039z" fill="rgb(164,164,164)">
      </path>
    </g>
    <g transform="translate(240.0564,1502.2252)scale(0.5,0.5)">
      <ellipse cx="0" cy="0" rx="15.2424" ry="15.2424" fill="rgb(255,255,255)">
      </ellipse>
    </g>
  </g>
  <g transform="translate(188.882,142.6975)translate(-261.4849,-1649.1583)translate(236.5314,1650.0144)translate(-254.3817,-1490.2793)translate(223.2974,1529.9085)scale(0.5,0.5)">
    <g class="drg tpbl" data-drg-tp="element" data-drg-v="971" data-test-id="Group 5.export-png-noBorder 2.Text" data-gn-el-type="text">
      <g style="opacity:1">
        <g transform="translate(0, 0)">
          <path d="M 0 -45.9 L 28.4883 -45.9 L 28.4883 15.3 L 0 15.3 ZM 28.4883 -45.9 L 61.3843 -45.9 L 61.3843 15.3 L 28.4883 15.3 ZM 61.3843 -45.9 L 90.0718 -45.9 L 90.0718 15.3 L 61.3843 15.3 ZM 90.0718 -45.9 L 124.8105 -45.9 L 124.8105 15.3 L 90.0718 15.3 ZM 124.8105 -45.9 L 124.8105 -45.9 L 124.8105 15.3 L 124.8105 15.3 Z" fill="rgba(0,0,0,0)">
          </path>
          <g fill="rgb(255,255,255)" stroke-width="0" font-size="51px" style="font-family:Roboto-Bold;font-style:normal;font-weight:400">
            <path fill="rgb(255,255,255)" stroke-width="0" transform="matrix(1,0,0,1,0,0)" d="M17.8551,-11.1563L17.8551,-36.2579L25.3256,-36.2579L25.3256,-11.1563C25.3256,-8.8487,24.8151,-6.8109,23.7941,-5.0429C22.773,-3.2749,21.333,-1.9093,19.4738,-0.9461C17.6144,0.0168,15.5142,0.4983,13.1733,0.4983L13.1733,0.4983C9.3384,0.4983,6.3502,-0.4772,4.2085,-2.4281C2.0669,-4.3787,0.996,-7.1386,0.996,-10.708L0.996,-10.708L8.5165,-10.708C8.5165,-8.9315,8.89,-7.6199,9.637,-6.7733C10.3843,-5.9267,11.5631,-5.5034,13.1733,-5.5034L13.1733,-5.5034C14.601,-5.5034,15.7383,-5.9932,16.5852,-6.9727C17.4318,-7.9523,17.8551,-9.3468,17.8551,-11.1563L17.8551,-11.1563z">
            </path>
            <path fill="rgb(255,255,255)" stroke-width="0" transform="matrix(1,0,0,1,28.4883,0)" d="M17.2574,-12.775L10.708,-12.775L10.708,0L3.2375,0L3.2375,-36.2579L17.3818,-36.2579C20.1045,-36.2579,22.4993,-35.7598,24.5662,-34.7636C26.6331,-33.7674,28.2227,-32.3522,29.3352,-30.5179C30.4473,-28.6833,31.0034,-26.5956,31.0034,-24.2551L31.0034,-24.2551C31.0034,-20.7021,29.7874,-17.9005,27.3554,-15.8503C24.923,-13.8001,21.557,-12.775,17.2574,-12.775L17.2574,-12.775zM10.708,-30.2068L10.708,-18.8261L17.3818,-18.8261C19.3576,-18.8261,20.8641,-19.2909,21.9014,-20.2205C22.9391,-21.1504,23.458,-22.4786,23.458,-24.2051L23.458,-24.2051C23.458,-25.9816,22.935,-27.4176,21.8892,-28.5131C20.8434,-29.6089,19.399,-30.1735,17.5562,-30.2068L17.5562,-30.2068L10.708,-30.2068z">
            </path>
            <path fill="rgb(255,255,255)" stroke-width="0" transform="matrix(1,0,0,1,61.3843,0)" d="M25.0517,-21.5653L25.0517,-15.7136L10.708,-15.7136L10.708,-6.0017L27.542,-6.0017L27.542,0L3.2375,0L3.2375,-36.2579L27.4921,-36.2579L27.4921,-30.2068L10.708,-30.2068L10.708,-21.5653L25.0517,-21.5653z">
            </path>
            <path fill="rgb(255,255,255)" stroke-width="0" transform="matrix(1,0,0,1,90.0718,0)" d="M31.925,-19.0505L31.925,-4.5818C30.5803,-2.9716,28.6793,-1.7224,26.2222,-0.8344C23.765,0.0541,21.0423,0.4983,18.054,0.4983L18.054,0.4983C14.9165,0.4983,12.1649,-0.1867,9.7991,-1.5565C7.4334,-2.926,5.6073,-4.914,4.3207,-7.5205C3.0342,-10.1269,2.3742,-13.19,2.3409,-16.7096L2.3409,-16.7096L2.3409,-19.175C2.3409,-22.7939,2.951,-25.9274,4.1713,-28.5753C5.3916,-31.2232,7.1512,-33.2486,9.4503,-34.6514C11.7497,-36.0543,14.4434,-36.7557,17.5313,-36.7557L17.5313,-36.7557C21.8309,-36.7557,25.1926,-35.7306,27.6165,-33.6804C30.0404,-31.6302,31.4765,-28.646,31.925,-24.7279L31.925,-24.7279L24.6534,-24.7279C24.3212,-26.8032,23.5867,-28.3223,22.4497,-29.2852C21.3124,-30.2481,19.7475,-30.7295,17.7551,-30.7295L17.7551,-30.7295C15.2153,-30.7295,13.2814,-29.775,11.9534,-27.8659C10.625,-25.9565,9.9525,-23.1175,9.9358,-19.3489L9.9358,-19.3489L9.9358,-17.033C9.9358,-13.2314,10.658,-10.3595,12.1023,-8.417C13.547,-6.4746,15.6638,-5.5034,18.4528,-5.5034L18.4528,-5.5034C21.2585,-5.5034,23.2589,-6.1011,24.454,-7.2966L24.454,-7.2966L24.454,-13.5471L17.6557,-13.5471L17.6557,-19.0505L31.925,-19.0505z">
            </path>
            <path fill="rgb(255,255,255)" stroke-width="0" transform="matrix(1,0,0,1,124.8105,0)">
            </path>
          </g>
        </g>
      </g>
    </g>
  </g>
  <g transform="translate(188.882,142.6975)translate(-261.4849,-1649.1583)translate(305.7138,1697.2955)translate(-254.3817,-1490.2793)translate(254.5845,1488.348)translate(0.3271,12.152)">
    <g filter="url(#efShadow4)">
      <rect x="-37.5" y="-36.5" width="75" height="73" rx="5" ry="5" fill="rgb(0,0,0)">
      </rect>
    </g>
  </g>
  <g transform="translate(188.882,142.6975)translate(-261.4849,-1649.1583)translate(305.7138,1697.2955)translate(-254.3817,-1490.2793)translate(255.1164,1475.8885)translate(-254.4896,-1516.07)">
    <g transform="translate(254.4896,1519.142)scale(0.5,0.5)translate(0,-6.1438)">
      <path d="M74.827,-39.692L74.827,60.777L-75.646,60.777L-75.646,-60.777C-75.646,-64.641,-72.527,-67.777,-68.683,-67.777L-47.459,-67.777L45.129,-67.777L74.827,-39.692z" fill="rgb(230,230,230)">
      </path>
    </g>
    <g transform="translate(291.6457,1546.9784)scale(0.5,0.5)">
      <path d="M0.514,-1.039L-149.958,-1.039L-97.933,-52.412L-64.01,-37.838L-24.58,-85.443L0.514,-61.593L0.514,-1.039z" fill="rgb(164,164,164)">
      </path>
    </g>
    <g transform="translate(240.0564,1502.2252)scale(0.5,0.5)">
      <ellipse cx="0" cy="0" rx="15.2424" ry="15.2424" fill="rgb(255,255,255)">
      </ellipse>
    </g>
  </g>
  <g transform="translate(188.882,142.6975)translate(-261.4849,-1649.1583)translate(305.7138,1697.2955)translate(-254.3817,-1490.2793)translate(222.1464,1529.9085)scale(0.5,0.5)">
    <g class="drg tpbl" data-drg-tp="element" data-drg-v="570" data-test-id="Group 5.export-png-noBorder 3.Text" data-gn-el-type="text">
      <g style="opacity:1">
        <g transform="translate(0, 0)">
          <path d="M 0 -45.9 L 28.4883 -45.9 L 28.4883 15.3 L 0 15.3 ZM 28.4883 -45.9 L 59.8403 -45.9 L 59.8403 15.3 L 28.4883 15.3 ZM 59.8403 -45.9 L 95.0522 -45.9 L 95.0522 15.3 L 59.8403 15.3 ZM 95.0522 -45.9 L 131.061 -45.9 L 131.061 15.3 L 95.0522 15.3 ZM 131.061 -45.9 L 131.061 -45.9 L 131.061 15.3 L 131.061 15.3 Z" fill="rgba(0,0,0,0)">
          </path>
          <g fill="rgb(255,255,255)" stroke-width="0" font-size="51px" style="font-family:Roboto-Bold;font-style:normal;font-weight:400">
            <path fill="rgb(255,255,255)" stroke-width="0" transform="matrix(1,0,0,1,0,0)" d="M17.8551,-11.1563L17.8551,-36.2579L25.3256,-36.2579L25.3256,-11.1563C25.3256,-8.8487,24.8151,-6.8109,23.7941,-5.0429C22.773,-3.2749,21.333,-1.9093,19.4738,-0.9461C17.6144,0.0168,15.5142,0.4983,13.1733,0.4983L13.1733,0.4983C9.3384,0.4983,6.3502,-0.4772,4.2085,-2.4281C2.0669,-4.3787,0.996,-7.1386,0.996,-10.708L0.996,-10.708L8.5165,-10.708C8.5165,-8.9315,8.89,-7.6199,9.637,-6.7733C10.3843,-5.9267,11.5631,-5.5034,13.1733,-5.5034L13.1733,-5.5034C14.601,-5.5034,15.7383,-5.9932,16.5852,-6.9727C17.4318,-7.9523,17.8551,-9.3468,17.8551,-11.1563L17.8551,-11.1563z">
            </path>
            <path fill="rgb(255,255,255)" stroke-width="0" transform="matrix(1,0,0,1,28.4883,0)" d="M22.0386,-9.5125L22.0386,-9.5125C22.0386,-10.9239,21.5405,-12.0071,20.5443,-12.7622C19.5485,-13.5177,17.7555,-14.3147,15.1654,-15.1531C12.5756,-15.9916,10.5254,-16.8174,9.0148,-17.6307L9.0148,-17.6307C4.8974,-19.8553,2.8387,-22.8519,2.8387,-26.6205L2.8387,-26.6205C2.8387,-28.5796,3.3906,-30.327,4.4946,-31.8628C5.599,-33.3982,7.1845,-34.5976,9.2514,-35.4608C11.3183,-36.3241,13.6383,-36.7557,16.2114,-36.7557L16.2114,-36.7557C18.8011,-36.7557,21.1087,-36.2868,23.1341,-35.3491C25.1595,-34.4111,26.7325,-33.0869,27.8531,-31.3767C28.9738,-29.6669,29.5341,-27.7246,29.5341,-25.55L29.5341,-25.55L22.0636,-25.55C22.0636,-27.2099,21.5407,-28.5005,20.4949,-29.4219C19.4487,-30.3433,17.9794,-30.804,16.0869,-30.804L16.0869,-30.804C14.2608,-30.804,12.8413,-30.4181,11.8284,-29.6463C10.8159,-28.8742,10.3096,-27.8572,10.3096,-26.5955L10.3096,-26.5955C10.3096,-25.417,10.9031,-24.4293,12.0901,-23.6324C13.277,-22.8354,15.0243,-22.0883,17.3318,-21.3909L17.3318,-21.3909C21.5818,-20.1129,24.6781,-18.5275,26.6205,-16.6347C28.5629,-14.7422,29.5341,-12.3848,29.5341,-9.5625L29.5341,-9.5625C29.5341,-6.4246,28.3472,-3.9634,25.9733,-2.1787C23.5991,-0.3941,20.4032,0.4983,16.3858,0.4983L16.3858,0.4983C13.5968,0.4983,11.0568,-0.0122,8.7659,-1.0333C6.4746,-2.0543,4.7272,-3.453,3.5236,-5.2295C2.32,-7.006,1.7182,-9.0646,1.7182,-11.4051L1.7182,-11.4051L9.2137,-11.4051C9.2137,-7.4043,11.6044,-5.404,16.3858,-5.404L16.3858,-5.404C18.1623,-5.404,19.5485,-5.765,20.5443,-6.4872C21.5405,-7.2094,22.0386,-8.2178,22.0386,-9.5125z">
            </path>
            <path fill="rgb(255,255,255)" stroke-width="0" transform="matrix(1,0,0,1,59.8403,0)" d="M33.0205,-18.9256L33.0205,-17.3074C33.0205,-13.738,32.3896,-10.6085,31.1278,-7.9188C29.8661,-5.2294,28.0607,-3.1542,25.7116,-1.6932C23.3626,-0.2322,20.6689,0.4983,17.6307,0.4983L17.6307,0.4983C14.6258,0.4983,11.9447,-0.2239,9.5875,-1.6682C7.2299,-3.1129,5.4038,-5.1757,4.1091,-7.8565C2.814,-10.5378,2.1582,-13.6216,2.1415,-17.108L2.1415,-17.108L2.1415,-18.9011C2.1415,-22.4704,2.7848,-25.6122,4.0713,-28.3264C5.3582,-31.0406,7.1762,-33.1242,9.5253,-34.577C11.8743,-36.0295,14.5596,-36.7557,17.5812,-36.7557C20.6025,-36.7557,23.2878,-36.0295,25.6372,-34.577C27.9863,-33.1242,29.8041,-31.0406,31.0906,-28.3264C32.3772,-25.6122,33.0205,-22.4786,33.0205,-18.9256L33.0205,-18.9256zM25.45,-17.1824L25.45,-18.9506C25.45,-22.7525,24.7693,-25.6411,23.408,-27.6165C22.047,-29.5922,20.1047,-30.5801,17.5812,-30.5801L17.5812,-30.5801C15.0744,-30.5801,13.1403,-29.6048,11.779,-27.6542C10.4176,-25.7033,9.7286,-22.8436,9.7119,-19.075L9.7119,-19.075L9.7119,-17.3074C9.7119,-13.6051,10.3926,-10.733,11.754,-8.6909C13.1153,-6.6489,15.0742,-5.6279,17.6307,-5.6279L17.6307,-5.6279C20.1375,-5.6279,22.0633,-6.6115,23.408,-8.5787C24.753,-10.546,25.4337,-13.4139,25.45,-17.1824L25.45,-17.1824z">
            </path>
            <path fill="rgb(255,255,255)" stroke-width="0" transform="matrix(1,0,0,1,95.0522,0)" d="M32.7216,-36.2579L32.7216,0L25.2511,0L10.708,-23.8563L10.708,0L3.2375,0L3.2375,-36.2579L10.708,-36.2579L25.2761,-12.3517L25.2761,-36.2579L32.7216,-36.2579z">
            </path>
            <path fill="rgb(255,255,255)" stroke-width="0" transform="matrix(1,0,0,1,131.061,0)">
            </path>
          </g>
        </g>
      </g>
    </g>
  </g>
  <g transform="translate(188.882,142.6975)translate(-261.4849,-1649.1583)translate(375.9499,1744.5766)translate(-254.3817,-1490.2793)translate(259.9766,1488.348)translate(0.3271,12.152)">
    <g filter="url(#efShadow5)">
      <rect x="-37.5" y="-36.5" width="75" height="73" rx="5" ry="5" fill="rgb(0,0,0)">
      </rect>
    </g>
  </g>
  <g transform="translate(188.882,142.6975)translate(-261.4849,-1649.1583)translate(375.9499,1744.5766)translate(-254.3817,-1490.2793)translate(260.5085,1475.8885)translate(-254.4896,-1516.07)">
    <g transform="translate(254.4896,1519.142)scale(0.5,0.5)translate(0,-6.1438)">
      <path d="M74.827,-39.692L74.827,60.777L-75.646,60.777L-75.646,-60.777C-75.646,-64.641,-72.527,-67.777,-68.683,-67.777L-47.459,-67.777L45.129,-67.777L74.827,-39.692z" fill="rgb(230,230,230)">
      </path>
    </g>
    <g transform="translate(291.6457,1546.9784)scale(0.5,0.5)">
      <path d="M0.514,-1.039L-149.958,-1.039L-97.933,-52.412L-64.01,-37.838L-24.58,-85.443L0.514,-61.593L0.514,-1.039z" fill="rgb(164,164,164)">
      </path>
    </g>
    <g transform="translate(240.0564,1502.2252)scale(0.5,0.5)">
      <ellipse cx="0" cy="0" rx="15.2424" ry="15.2424" fill="rgb(255,255,255)">
      </ellipse>
    </g>
  </g>
  <g transform="translate(188.882,142.6975)translate(-261.4849,-1649.1583)translate(375.9499,1744.5766)translate(-254.3817,-1490.2793)translate(222.6763,1529.9085)scale(0.5,0.5)">
    <g class="drg tpbl" data-drg-tp="element" data-drg-v="169" data-test-id="Group 5.export-png-noBorder 4.Text" data-gn-el-type="text">
      <g style="opacity:1">
        <g transform="translate(0, 0)">
          <path d="M 0 -45.9 L 44.6001 -45.9 L 44.6001 15.3 L 0 15.3 ZM 44.6001 -45.9 L 73.2876 -45.9 L 73.2876 15.3 L 44.6001 15.3 ZM 73.2876 -45.9 L 117.9624 -45.9 L 117.9624 15.3 L 73.2876 15.3 ZM 117.9624 -45.9 L 150.5098 -45.9 L 150.5098 15.3 L 117.9624 15.3 ZM 150.5098 -45.9 L 150.5098 -45.9 L 150.5098 15.3 L 150.5098 15.3 Z" fill="rgba(0,0,0,0)">
          </path>
          <g fill="rgb(255,255,255)" stroke-width="0" font-size="51px" style="font-family:Roboto-Bold;font-style:normal;font-weight:400">
            <path fill="rgb(255,255,255)" stroke-width="0" transform="matrix(1,0,0,1,0,0)" d="M25.525,-36.2579L31.4767,-10.4591L36.3574,-36.2579L43.8034,-36.2579L35.7597,0L28.2392,0L22.3375,-24.2551L16.4358,0L8.9148,0L0.8716,-36.2579L8.3176,-36.2579L13.2233,-10.5085L19.1995,-36.2579L25.525,-36.2579z">
            </path>
            <path fill="rgb(255,255,255)" stroke-width="0" transform="matrix(1,0,0,1,44.6001,0)" d="M25.0517,-21.5653L25.0517,-15.7136L10.708,-15.7136L10.708,-6.0017L27.542,-6.0017L27.542,0L3.2375,0L3.2375,-36.2579L27.4921,-36.2579L27.4921,-30.2068L10.708,-30.2068L10.708,-21.5653L25.0517,-21.5653z">
            </path>
            <path fill="rgb(255,255,255)" stroke-width="0" transform="matrix(1,0,0,1,73.2876,0)" d="M3.2375,-36.2579L12.9989,-36.2579L22.3125,-9.9608L31.5761,-36.2579L41.3875,-36.2579L41.3875,0L33.892,0L33.892,-9.9113L34.6392,-27.0193L24.8523,0L19.7227,0L9.9608,-26.9943L10.708,-9.9113L10.708,0L3.2375,0L3.2375,-36.2579z">
            </path>
            <path fill="rgb(255,255,255)" stroke-width="0" transform="matrix(1,0,0,1,117.9624,0)" d="M17.3318,0L3.2375,0L3.2375,-36.2579L15.9375,-36.2579C20.3368,-36.2579,23.6737,-35.4154,25.9483,-33.7304C28.2225,-32.0453,29.3597,-29.5757,29.3597,-26.3216L29.3597,-26.3216C29.3597,-24.5454,28.9032,-22.9808,27.9903,-21.6276C27.0771,-20.2747,25.807,-19.2828,24.1801,-18.6517L24.1801,-18.6517C26.0396,-18.1869,27.5046,-17.2491,28.5753,-15.8381C29.6463,-14.4267,30.1818,-12.7,30.1818,-10.658L30.1818,-10.658C30.1818,-7.172,29.0695,-4.5324,26.8449,-2.7392C24.6202,-0.9464,21.4492,-0.0333,17.3318,0L17.3318,0zM17.5562,-15.7881L10.708,-15.7881L10.708,-6.0017L17.108,-6.0017C18.8678,-6.0017,20.2416,-6.4207,21.2293,-7.2588C22.217,-8.0973,22.7108,-9.2553,22.7108,-10.733L22.7108,-10.733C22.7108,-14.0534,20.9926,-15.7384,17.5562,-15.7881L17.5562,-15.7881zM10.708,-30.2068L10.708,-21.0676L16.2364,-21.0676C20.0049,-21.1339,21.8892,-22.6362,21.8892,-25.5745L21.8892,-25.5745C21.8892,-27.218,21.4118,-28.4009,20.4571,-29.123C19.5027,-29.8455,17.9962,-30.2068,15.9375,-30.2068L15.9375,-30.2068L10.708,-30.2068z">
            </path>
            <path fill="rgb(255,255,255)" stroke-width="0" transform="matrix(1,0,0,1,150.5098,0)">
            </path>
          </g>
        </g>
      </g>
    </g>
  </g>
  <g transform="translate(188.882,142.6975)translate(-261.4849,-1649.1583)translate(277.3197,1686.2975)translate(-276.5846,-1680.1792)">
    <g transform="translate(276.5846,1680.1792)scale(0.5813,0.5813)">
      <ellipse cx="0" cy="0" rx="38.0106" ry="38.0106" fill="rgb(255,56,56)">
      </ellipse>
    </g>
    <g transform="translate(279.94,1680.5075)scale(0.5813,0.5813)">
      <path d="M10.569,0L-15.939,15.939L-15.939,-15.939L10.569,0z" fill="rgb(255,255,255)">
      </path>
    </g>
  </g>
</svg>