<svg id="qvto8cn" xmlns="http://www.w3.org/2000/svg" xmlns:xlink="http://www.w3.org/1999/xlink" shape-rendering="geometricPrecision" text-rendering="geometricPrecision" width="100%" viewBox="0 0 700 810" preserveAspectRatio="xMidYMid meet">
  <g transform="matrix(1,0,0,1,600,400)">
    <rect rx="0" ry="0" transform="translate(-250, 5)" x="-350" y="-405" width="700" height="810" fill="rgb(17,17,17)">
    </rect>
  </g>
  <g transform="matrix(-2.3888,0,0,2.3888,1384.5411,-8335.2006)">
    <g transform="matrix(1,0,0,1,337.7479,3693.54)">
      <path d="M0,0L231.07,0C230.685,37.613,218.131,88.331,173.701,108.502L58.581,108.502C24.455,88.145,-1.446,55.93,0,0z" fill="rgb(255,255,255)">
      </path>
    </g>
    <g transform="matrix(1,0,0,1,335.7317,3805.4918)">
      <path d="M0,0L235.844,0C236.657,10.275,214.223,19.947,204.179,21.349L36.442,21.349C26.254,18.91,3.152,17.717,0,0z" fill="rgb(255,255,255)">
      </path>
    </g>
    <g transform="matrix(1,0,0,1,329.2599,3704.5256)">
      <path d="M5.879,-0.556C5.879,-0.556,-46.897,6.48,-37.046,44.714C-27.195,82.948,20.616,79.132,31.296,71.059L19.727,54.435C11.092,63.662,-13.845,66.817,-22.774,45.629C-31.703,24.441,-7.028,14.044,7.838,17.623L5.879,-0.556z" fill="rgb(255,255,255)">
      </path>
    </g>
    <g transform="matrix(1,0,0,1,437.7945,3541.6827)">
      <path d="M0,0C-4.668,3.283,-14.817,12.911,-14.555,24.007C-14.293,35.103,-1.663,36.205,5.281,57.348C12.225,78.491,-0.156,92.62,-0.156,92.62C-0.156,92.62,20.156,89.471,24.589,72.613C29.022,55.755,7.171,34.965,0.442,21.659C-6.287,8.353,-0.329,5.178,0,0z" fill="rgb(255,255,255)">
      </path>
    </g>
    <g transform="matrix(1,0,0,1,477.3656,3489.9841)">
      <path d="M0,0C-4.668,3.283,-14.817,12.911,-14.555,24.007C-14.293,35.103,-1.663,36.205,5.281,57.348C12.225,78.491,-0.156,92.62,-0.156,92.62C-0.156,92.62,20.156,89.471,24.589,72.613C29.022,55.755,7.171,34.965,0.442,21.659C-6.287,8.353,-0.329,5.178,0,0z" fill="rgb(255,255,255)">
      </path>
    </g>
  </g>
</svg>