<svg version="1.1" xmlns="http://www.w3.org/2000/svg" viewBox="0 0 800 480" preserveAspectRatio="xMidYMid meet">
  <defs>
    <filter id="efShadow1" x="-100%" y="-100%" width="300%" height="300%">
      <feGaussianBlur in="SourceAlpha" result="drop_shadow_1" stdDeviation="7.5">
      </feGaussianBlur>
      <feOffset in="drop_shadow_1" result="drop_shadow_2" dx="11.313708498984761" dy="11.31370849898476">
      </feOffset>
      <feFlood result="drop_shadow_3" flood-color="rgb(170,170,170)" flood-opacity="100">
      </feFlood>
      <feComposite in="drop_shadow_3" in2="drop_shadow_2" operator="in" result="drop_shadow_4">
      </feComposite>
      <feMerge>
        <feMergeNode>
        </feMergeNode>
        <feMergeNode in="SourceGraphic">
        </feMergeNode>
      </feMerge>
    </filter>
    <filter id="efShadow2" x="-100%" y="-100%" width="300%" height="300%">
      <feGaussianBlur in="SourceAlpha" result="drop_shadow_1" stdDeviation="7.5">
      </feGaussianBlur>
      <feOffset in="drop_shadow_1" result="drop_shadow_2" dx="11.313708498984761" dy="11.31370849898476">
      </feOffset>
      <feFlood result="drop_shadow_3" flood-color="rgb(170,170,170)" flood-opacity="100">
      </feFlood>
      <feComposite in="drop_shadow_3" in2="drop_shadow_2" operator="in" result="drop_shadow_4">
      </feComposite>
      <feMerge>
        <feMergeNode>
        </feMergeNode>
        <feMergeNode in="SourceGraphic">
        </feMergeNode>
      </feMerge>
    </filter>
    <filter id="efShadow3" x="-100%" y="-100%" width="300%" height="300%">
      <feGaussianBlur in="SourceAlpha" result="drop_shadow_1" stdDeviation="7.5">
      </feGaussianBlur>
      <feOffset in="drop_shadow_1" result="drop_shadow_2" dx="11.313708498984761" dy="11.31370849898476">
      </feOffset>
      <feFlood result="drop_shadow_3" flood-color="rgb(170,170,170)" flood-opacity="100">
      </feFlood>
      <feComposite in="drop_shadow_3" in2="drop_shadow_2" operator="in" result="drop_shadow_4">
      </feComposite>
      <feMerge>
        <feMergeNode>
        </feMergeNode>
        <feMergeNode in="SourceGraphic">
        </feMergeNode>
      </feMerge>
    </filter>
    <filter id="efShadow4" x="-100%" y="-100%" width="300%" height="300%">
      <feGaussianBlur in="SourceAlpha" result="drop_shadow_1" stdDeviation="7.5">
      </feGaussianBlur>
      <feOffset in="drop_shadow_1" result="drop_shadow_2" dx="5.656854249492381" dy="5.65685424949238">
      </feOffset>
      <feFlood result="drop_shadow_3" flood-color="rgb(88,88,88)" flood-opacity="100">
      </feFlood>
      <feComposite in="drop_shadow_3" in2="drop_shadow_2" operator="in" result="drop_shadow_4">
      </feComposite>
      <feMerge>
        <feMergeNode>
        </feMergeNode>
        <feMergeNode in="SourceGraphic">
        </feMergeNode>
      </feMerge>
    </filter>
    <filter id="efShadow5" x="-100%" y="-100%" width="300%" height="300%">
      <feGaussianBlur in="SourceAlpha" result="drop_shadow_1" stdDeviation="7.5">
      </feGaussianBlur>
      <feOffset in="drop_shadow_1" result="drop_shadow_2" dx="5.656854249492381" dy="5.65685424949238">
      </feOffset>
      <feFlood result="drop_shadow_3" flood-color="rgb(88,88,88)" flood-opacity="100">
      </feFlood>
      <feComposite in="drop_shadow_3" in2="drop_shadow_2" operator="in" result="drop_shadow_4">
      </feComposite>
      <feMerge>
        <feMergeNode>
        </feMergeNode>
        <feMergeNode in="SourceGraphic">
        </feMergeNode>
      </feMerge>
    </filter>
    <filter id="efShadow6" x="-100%" y="-100%" width="300%" height="300%">
      <feGaussianBlur in="SourceAlpha" result="drop_shadow_1" stdDeviation="7.5">
      </feGaussianBlur>
      <feOffset in="drop_shadow_1" result="drop_shadow_2" dx="5.656854249492381" dy="5.65685424949238">
      </feOffset>
      <feFlood result="drop_shadow_3" flood-color="rgb(88,88,88)" flood-opacity="100">
      </feFlood>
      <feComposite in="drop_shadow_3" in2="drop_shadow_2" operator="in" result="drop_shadow_4">
      </feComposite>
      <feMerge>
        <feMergeNode>
        </feMergeNode>
        <feMergeNode in="SourceGraphic">
        </feMergeNode>
      </feMerge>
    </filter>
    <filter id="efShadow7" x="-100%" y="-100%" width="300%" height="300%">
      <feGaussianBlur in="SourceAlpha" result="drop_shadow_1" stdDeviation="7.5">
      </feGaussianBlur>
      <feOffset in="drop_shadow_1" result="drop_shadow_2" dx="5.656854249492381" dy="5.65685424949238">
      </feOffset>
      <feFlood result="drop_shadow_3" flood-color="rgb(88,88,88)" flood-opacity="100">
      </feFlood>
      <feComposite in="drop_shadow_3" in2="drop_shadow_2" operator="in" result="drop_shadow_4">
      </feComposite>
      <feMerge>
        <feMergeNode>
        </feMergeNode>
        <feMergeNode in="SourceGraphic">
        </feMergeNode>
      </feMerge>
    </filter>
  </defs>
  <g transform="translate(208.0174,271.547)translate(-318.5,-400)">
    <g filter="url(#efShadow1)">
      <g transform="translate(280.5,400)translate(1.5,0)">
        <rect x="-158" y="-130" width="316" height="260" rx="8" ry="8" fill="rgb(44,50,67)">
        </rect>
      </g>
      <g transform="translate(353.5,400)translate(34,0)">
        <rect x="-125.5" y="-130" width="251" height="260" rx="8" ry="8" fill="rgb(229,229,229)">
        </rect>
      </g>
      <g transform="translate(353.5,400)translate(-110.5,0)">
        <rect x="-81" y="-130" width="162" height="260" rx="0" ry="0" fill="rgb(229,229,229)">
        </rect>
      </g>
      <g transform="translate(352.5,424.5)translate(-47.5,-26.0013)">
        <rect x="-122" y="-87.5" width="244" height="175" rx="4" ry="4" fill="rgb(255,255,255)">
        </rect>
      </g>
    </g>
  </g>
  <g transform="translate(33.5174,191.5457)">
    <rect x="-8" y="-8" width="16" height="16" rx="0" ry="0" fill="rgb(255,255,255)" opacity="0.2">
    </rect>
  </g>
  <g transform="translate(33.5174,225.662)">
    <rect x="-8" y="-8" width="16" height="16" rx="0" ry="0" fill="rgb(255,255,255)" opacity="0.2">
    </rect>
  </g>
  <g transform="translate(33.5174,259.7784)">
    <rect x="-8" y="-8" width="16" height="16" rx="0" ry="0" fill="rgb(255,255,255)" opacity="0.2">
    </rect>
  </g>
  <g transform="translate(33.5174,293.8948)">
    <rect x="-8" y="-8" width="16" height="16" rx="0" ry="0" fill="rgb(255,255,255)" opacity="0.2">
    </rect>
  </g>
  <g transform="translate(342.1274,159.8085)translate(-1.6491,1.1058)">
    <rect x="-56.0391" y="-13.1058" width="112.0782" height="26.2116" rx="4" ry="4" fill="rgb(0,0,0)" opacity="0.1">
    </rect>
  </g>
  <g transform="translate(193.5174,271.0457)translate(-193.5174,-271.0457)">
    <g transform="translate(137.5174,338.0457)">
      <path d="M0,0C0,0,18.3572,-84.8337,34,-64.2673C49.6428,-43.7009,96.0151,-42.9343,116,-64.2673C135.9849,-85.6002,146,1,146,1" fill="rgb(178,178,178)">
      </path>
    </g>
    <g transform="translate(208.5174,240.0457)">
      <ellipse cx="0" cy="0" rx="37" ry="37" fill="rgb(232,232,232)">
      </ellipse>
    </g>
    <g transform="translate(187.5174,321.0457)">
      <path d="M38,-27.3959L61,18L-61,18L-84,-27.3959L38,-27.3959z" fill="rgb(79,101,121)">
      </path>
    </g>
  </g>
  <g transform="translate(290.1548,168.8651)">
    <g class="drg tpbl" data-drg-tp="element" data-drg-v="7368" data-test-id="Text" data-gn-el-type="text">
      <g style="opacity:1">
        <g transform="translate(0, 0)">
          <path d="M 0 -22.2656 L 13.6406 -22.2656 L 13.6406 6.5344 L 0 6.5344 ZM 13.6406 -22.2656 L 28.6875 -22.2656 L 28.6875 6.5344 L 13.6406 6.5344 ZM 28.6875 -22.2656 L 43.8281 -22.2656 L 43.8281 6.5344 L 28.6875 6.5344 ZM 43.8281 -22.2656 L 60.3281 -22.2656 L 60.3281 6.5344 L 43.8281 6.5344 ZM 60.3281 -22.2656 L 75.1055 -22.2656 L 75.1055 6.5344 L 60.3281 6.5344 ZM 75.1055 -22.2656 L 89.4258 -22.2656 L 89.4258 6.5344 L 75.1055 6.5344 ZM 89.4258 -22.2656 L 89.4258 -22.2656 L 89.4258 6.5344 L 89.4258 6.5344 Z" fill="rgba(0,0,0,0)">
          </path>
          <g fill="rgb(68,68,68)" stroke-width="0" font-size="24px" style="font-family:Roboto-Regular;font-style:normal;font-weight:400">
            <path fill="rgb(68,68,68)" stroke-width="0" transform="matrix(1,0,0,1,0,0)" d="M11.6251,-9.7265L11.6251,-7.8866L4.2305,-7.8866L4.2305,-1.8398L12.8203,-1.8398L12.8203,0L1.9805,0L1.9805,-17.0626L12.7032,-17.0626L12.7032,-15.211L4.2305,-15.211L4.2305,-9.7265L11.6251,-9.7265z">
            </path>
            <path fill="rgb(68,68,68)" stroke-width="0" transform="matrix(1,0,0,1,13.6406,0)" d="M3.4337,-17.0626L7.5468,-10.5235L11.6366,-17.0626L14.285,-17.0626L8.8946,-8.6016L14.4142,0L11.7422,0L7.5468,-6.6562L3.3281,0L0.6679,0L6.1992,-8.6016L0.7968,-17.0626L3.4337,-17.0626z">
            </path>
            <path fill="rgb(68,68,68)" stroke-width="0" transform="matrix(1,0,0,1,28.6875,0)" d="M8.25,-6.6797L4.2305,-6.6797L4.2305,0L1.9805,0L1.9805,-17.0626L8.2735,-17.0626C10.1407,-17.0626,11.6036,-16.586,12.6622,-15.6329C13.7207,-14.6798,14.25,-13.418,14.25,-11.8476L14.25,-11.8476C14.25,-10.1914,13.7324,-8.9161,12.6972,-8.0215C11.6622,-7.127,10.1798,-6.6797,8.25,-6.6797L8.25,-6.6797zM4.2305,-15.211L4.2305,-8.5195L8.2735,-8.5195C9.4766,-8.5195,10.3984,-8.8027,11.039,-9.3691C11.6797,-9.9355,12,-10.7539,12,-11.8243L12,-11.8243C12,-12.8398,11.6797,-13.6523,11.039,-14.2618C10.3984,-14.871,9.5195,-15.1874,8.4024,-15.211L8.4024,-15.211L4.2305,-15.211z">
            </path>
            <path fill="rgb(68,68,68)" stroke-width="0" transform="matrix(1,0,0,1,43.8281,0)" d="M15.1054,-9.0586L15.1054,-7.9805C15.1054,-6.3086,14.8242,-4.8497,14.2618,-3.6036C13.6992,-2.3575,12.9023,-1.4063,11.8711,-0.75C10.8399,-0.0937,9.6368,0.2345,8.2618,0.2345L8.2618,0.2345C6.9179,0.2345,5.7265,-0.0956,4.6874,-0.7558C3.6484,-1.4159,2.8418,-2.3574,2.2675,-3.5801C1.6933,-4.8028,1.3984,-6.2188,1.3829,-7.8281L1.3829,-7.8281L1.3829,-9.0586C1.3829,-10.6992,1.668,-12.1484,2.2382,-13.4062C2.8086,-14.6641,3.6153,-15.627,4.6582,-16.295C5.7012,-16.9629,6.8946,-17.2968,8.2382,-17.2968L8.2382,-17.2968C9.6054,-17.2968,10.8106,-16.9667,11.8536,-16.3066C12.8965,-15.6464,13.6992,-14.6894,14.2618,-13.4354C14.8242,-12.1817,15.1054,-10.7227,15.1054,-9.0586L15.1054,-9.0586zM12.8671,-7.8163L12.8671,-9.0821C12.8671,-11.1054,12.4609,-12.6582,11.6484,-13.7402C10.8359,-14.8223,9.6992,-15.3634,8.2382,-15.3634L8.2382,-15.3634C6.8163,-15.3634,5.6972,-14.8223,4.8809,-13.7402C4.0644,-12.6582,3.6445,-11.1562,3.6211,-9.2345L3.6211,-9.2345L3.6211,-7.9805C3.6211,-6.0195,4.0332,-4.4785,4.8574,-3.3574C5.6817,-2.2362,6.8165,-1.6757,8.2618,-1.6757L8.2618,-1.6757C9.7149,-1.6757,10.8398,-2.205,11.6366,-3.2638C12.4336,-4.3223,12.8438,-5.8398,12.8671,-7.8163L12.8671,-7.8163z">
            </path>
            <path fill="rgb(68,68,68)" stroke-width="0" transform="matrix(1,0,0,1,60.3281,0)" d="M11.9414,0L8.2382,-6.9024L4.2305,-6.9024L4.2305,0L1.9687,0L1.9687,-17.0626L7.6171,-17.0626C9.539,-17.0626,11.0176,-16.625,12.0528,-15.75C13.0878,-14.875,13.6054,-13.6015,13.6054,-11.9297L13.6054,-11.9297C13.6054,-10.8671,13.3183,-9.9414,12.7442,-9.1524C12.17,-8.3633,11.3711,-7.7734,10.3476,-7.3829L10.3476,-7.3829L14.3554,-0.1406L14.3554,0L11.9414,0zM4.2305,-15.211L4.2305,-8.7422L7.6874,-8.7422C8.8047,-8.7422,9.6934,-9.0313,10.3536,-9.6094C11.0138,-10.1874,11.3438,-10.9609,11.3438,-11.9297L11.3438,-11.9297C11.3438,-12.9844,11.0294,-13.793,10.4004,-14.3554C9.7714,-14.9179,8.8632,-15.2031,7.6757,-15.211L7.6757,-15.211L4.2305,-15.211z">
            </path>
            <path fill="rgb(68,68,68)" stroke-width="0" transform="matrix(1,0,0,1,75.1055,0)" d="M13.7695,-17.0626L13.7695,-15.211L8.285,-15.211L8.285,0L6.0468,0L6.0468,-15.211L0.5743,-15.211L0.5743,-17.0626L13.7695,-17.0626z">
            </path>
            <path fill="rgb(68,68,68)" stroke-width="0" transform="matrix(1,0,0,1,89.4258,0)">
            </path>
          </g>
        </g>
      </g>
    </g>
  </g>
  <g transform="translate(386.8328,161.0343)">
    <path d="M7.5032,-1.6641L0,5.7249L-7.5032,-1.6641L7.5032,-1.6641z" fill="rgb(0,0,0)" opacity="0.25">
    </path>
  </g>
  <g transform="translate(703.3658,293.9432)translate(-316.0031,-1607.3069)translate(275.5963,1720.4325)scale(0.4369,0.4369)translate(-2248.388,-2172.7508)">
    <g filter="url(#efShadow2)">
      <g transform="translate(2248.388,2172.7508)scale(0.9692,0.9692)translate(-75.8696,1.9067)">
        <rect x="-178.8425" y="-140.7586" width="357.6849" height="281.5171" rx="17" ry="17" fill="rgb(52,52,52)">
        </rect>
      </g>
      <g transform="translate(2242.5658,2178.7991)translate(-66.808,-16.5504)">
        <rect x="-160.9298" y="-113.3019" width="321.8595" height="226.6038" rx="16" ry="16" fill="rgb(255,255,255)">
        </rect>
      </g>
      <g transform="translate(2030.5435,2292.5252)">
        <path d="M6.636,0L-12.006,11.2085L-12.006,-11.2085L6.636,0z" fill="rgb(255,255,255)">
        </path>
      </g>
      <g transform="translate(2270.1332,2293.7989)translate(-77.9683,0)">
        <rect x="-135.9725" y="-3.0929" width="271.9451" height="6.1858" rx="6" ry="6" fill="rgb(255,255,255)" opacity="0.87">
        </rect>
      </g>
      <g transform="translate(2117.8955,2293.6594)">
        <ellipse cx="0" cy="0" rx="6.0433" ry="6.0433" fill="rgb(255,255,255)">
        </ellipse>
      </g>
    </g>
  </g>
  <g transform="translate(327.2899,64.4054)rotate(12.5453)scale(1,-1)translate(72.648,68.118)">
    <defs>
      <linearGradient id="gradient1" gradientUnits="userSpaceOnUse" x1="-159.751" y1="-68.118" x2="14.455" y2="-68.118">
        <stop offset="0%" stop-color="rgb(40,30,90)">
        </stop>
        <stop offset="100%" stop-color="rgb(40,30,90)">
        </stop>
      </linearGradient>
    </defs>
    <path d="M0,-19.407L14.455,-9.992L12.502,-43.152L-41.022,-40.532L-25.602,-29.511C-79.231,-12.663,-133.89,-50.43,-159.751,-126.244C-131.099,-37.582,-77.847,-1.969,0,-19.407z" fill="url(#gradient1)">
    </path>
  </g>
  <g transform="translate(614.9145,91.5849)">
    <defs>
      <linearGradient id="gradient2" gradientUnits="userSpaceOnUse" x1="-100" y1="0" x2="100" y2="0">
        <stop offset="0%" stop-color="rgb(40,30,90)">
        </stop>
        <stop offset="100%" stop-color="rgb(40,30,90)">
        </stop>
      </linearGradient>
    </defs>
    <path d="M0,0" stroke-width="2" stroke-linecap="round" stroke-linejoin="round" fill="url(#gradient2)" stroke="rgb(7,31,65)">
    </path>
  </g>
  <g transform="translate(346.1274,313.1089)translate(13.8655,-5.3985)">
    <rect x="-35.369" y="-6.6015" width="70.738" height="13.2029" rx="4" ry="4" fill="rgb(0,0,0)" opacity="0.1">
    </rect>
  </g>
  <g transform="translate(346.1274,342.4907)translate(14.0314,-5.3985)">
    <rect x="-35.5349" y="-6.6015" width="71.0699" height="13.2029" rx="4" ry="4" fill="rgb(0,0,0)" opacity="0.1">
    </rect>
  </g>
  <g transform="translate(346.1274,254.3452)translate(13.8655,-5.3985)">
    <rect x="-35.369" y="-6.6015" width="70.738" height="13.2029" rx="4" ry="4" fill="rgb(0,0,0)" opacity="0.1">
    </rect>
  </g>
  <g transform="translate(346.1274,283.727)translate(14.0314,-5.3985)">
    <rect x="-35.5349" y="-6.6015" width="71.0699" height="13.2029" rx="4" ry="4" fill="rgb(0,0,0)" opacity="0.1">
    </rect>
  </g>
  <g transform="translate(346.1274,195.5815)translate(13.8655,-5.3985)">
    <rect x="-35.369" y="-6.6015" width="70.738" height="13.2029" rx="4" ry="4" fill="rgb(0,0,0)" opacity="0.1">
    </rect>
  </g>
  <g transform="translate(346.1274,224.9633)translate(14.0314,-5.3985)">
    <rect x="-35.5349" y="-6.6015" width="71.0699" height="13.2029" rx="4" ry="4" fill="rgb(0,0,0)" opacity="0.1">
    </rect>
  </g>
  <g transform="translate(394.1902,235.5495)translate(-387.6628,-239.929)translate(349.1862,192.1849)translate(38.4766,61.3275)">
    <g filter="url(#efShadow3)">
      <rect x="-56.0865" y="-76.4057" width="112.1731" height="152.8113" rx="4" ry="4" fill="rgb(255,255,255)">
      </rect>
    </g>
  </g>
  <g transform="translate(394.1902,235.5495)translate(-387.6628,-239.929)translate(382.5711,239.8987)translate(-382.5711,-239.8987)translate(345.4883,258.8265)">
    <g class="drg tpbl" data-drg-tp="element" data-drg-v="8270" data-test-id="Group 2.Group 2.Text 2" data-gn-el-type="text">
      <g style="opacity:1">
        <g transform="translate(0, 0)">
          <path d="M 0 -12.9883 L 8.832 -12.9883 L 8.832 3.8117 L 0 3.8117 ZM 8.832 -12.9883 L 18.8125 -12.9883 L 18.8125 3.8117 L 8.832 3.8117 ZM 18.8125 -12.9883 L 28.3486 -12.9883 L 28.3486 3.8117 L 18.8125 3.8117 ZM 28.3486 -12.9883 L 28.3486 -12.9883 L 28.3486 3.8117 L 28.3486 3.8117 Z" fill="rgba(0,0,0,0)">
          </path>
          <g fill="rgb(68,68,68)" stroke-width="0" font-size="14px" style="font-family:Roboto-Regular;font-style:normal;font-weight:400">
            <path fill="rgb(68,68,68)" stroke-width="0" transform="matrix(1,0,0,1,0,0)" d="M4.8125,-3.8965L2.4678,-3.8965L2.4678,0L1.1553,0L1.1553,-9.9532L4.8262,-9.9532C5.9154,-9.9532,6.7688,-9.6752,7.3863,-9.1192C8.0038,-8.5632,8.3125,-7.8272,8.3125,-6.9111L8.3125,-6.9111C8.3125,-5.945,8.0106,-5.201,7.4067,-4.6792C6.8029,-4.1574,5.9382,-3.8965,4.8125,-3.8965L4.8125,-3.8965zM2.4678,-8.8731L2.4678,-4.9697L4.8262,-4.9697C5.528,-4.9697,6.0657,-5.1349,6.4394,-5.4653C6.8131,-5.7957,7,-6.2731,7,-6.8975L7,-6.8975C7,-7.4899,6.8131,-7.9639,6.4394,-8.3194C6.0657,-8.6748,5.5531,-8.8593,4.9014,-8.8731L4.9014,-8.8731L2.4678,-8.8731z">
            </path>
            <path fill="rgb(68,68,68)" stroke-width="0" transform="matrix(1,0,0,1,8.832,0)" d="M8.8047,-9.9532L8.8047,0L7.4854,0L2.4746,-7.6699L2.4746,0L1.1553,0L1.1553,-9.9532L2.4746,-9.9532L7.499,-2.249L7.499,-9.9532L8.8047,-9.9532z">
            </path>
            <path fill="rgb(68,68,68)" stroke-width="0" transform="matrix(1,0,0,1,18.8125,0)" d="M8.5039,-4.956L8.5039,-1.3056C8.1667,-0.8225,7.6961,-0.4614,7.0923,-0.2222C6.4884,0.0171,5.7855,0.1368,4.9834,0.1368L4.9834,0.1368C4.1722,0.1368,3.4521,-0.0535,2.8232,-0.4341C2.1944,-0.8147,1.7079,-1.3558,1.3637,-2.0576C1.0197,-2.7594,0.8431,-3.5729,0.834,-4.4981L0.834,-4.4981L0.834,-5.3662C0.834,-6.8656,1.1837,-8.0277,1.8833,-8.8525C2.5828,-9.6774,3.566,-10.0898,4.8329,-10.0898L4.8329,-10.0898C5.872,-10.0898,6.7083,-9.8244,7.3417,-9.2935C7.9753,-8.7625,8.3627,-8.0094,8.5039,-7.0342L8.5039,-7.0342L7.1914,-7.0342C6.9453,-8.3512,6.1614,-9.0097,4.8398,-9.0097L4.8398,-9.0097C3.9602,-9.0097,3.2937,-8.701,2.8403,-8.0835C2.3869,-7.466,2.1579,-6.5716,2.1533,-5.4004L2.1533,-5.4004L2.1533,-4.587C2.1533,-3.4704,2.4086,-2.5829,2.919,-1.9243C3.4293,-1.2657,4.1198,-0.9365,4.9903,-0.9365L4.9903,-0.9365C5.4824,-0.9365,5.9131,-0.9912,6.2822,-1.1005C6.6514,-1.2099,6.9567,-1.3945,7.1982,-1.6542L7.1982,-1.6542L7.1982,-3.8896L4.8945,-3.8896L4.8945,-4.956L8.5039,-4.956z">
            </path>
            <path fill="rgb(68,68,68)" stroke-width="0" transform="matrix(1,0,0,1,28.3486,0)">
            </path>
          </g>
        </g>
      </g>
    </g>
  </g>
  <g transform="translate(394.1902,235.5495)translate(-387.6628,-239.929)translate(382.5711,239.8987)translate(-382.5711,-239.8987)translate(345.2811,286.2936)">
    <g class="drg tpbl" data-drg-tp="element" data-drg-v="8358" data-test-id="Group 2.Group 2.Text 3" data-gn-el-type="text">
      <g style="opacity:1">
        <g transform="translate(0, 0)">
          <path d="M 0 -12.9883 L 7.7246 -12.9883 L 7.7246 3.8117 L 0 3.8117 ZM 7.7246 -12.9883 L 16.5566 -12.9883 L 16.5566 3.8117 L 7.7246 3.8117 ZM 16.5566 -12.9883 L 24.5137 -12.9883 L 24.5137 3.8117 L 16.5566 3.8117 ZM 24.5137 -12.9883 L 34.0498 -12.9883 L 34.0498 3.8117 L 24.5137 3.8117 ZM 34.0498 -12.9883 L 34.0498 -12.9883 L 34.0498 3.8117 L 34.0498 3.8117 Z" fill="rgba(0,0,0,0)">
          </path>
          <g fill="rgb(68,68,68)" stroke-width="0" font-size="14px" style="font-family:Roboto-Regular;font-style:normal;font-weight:400">
            <path fill="rgb(68,68,68)" stroke-width="0" transform="matrix(1,0,0,1,0,0)" d="M5.3252,-2.8847L5.3252,-9.9532L6.6445,-9.9532L6.6445,-2.9053C6.6445,-1.9528,6.3586,-1.2077,5.7866,-0.6699C5.2147,-0.1321,4.4525,0.1368,3.5,0.1368L3.5,0.1368C2.511,0.1368,1.7409,-0.1162,1.1894,-0.622C0.638,-1.1279,0.3623,-1.8366,0.3623,-2.7481L0.3623,-2.7481L1.6748,-2.7481C1.6748,-2.1784,1.8309,-1.734,2.1431,-1.415C2.4552,-1.096,2.9075,-0.9365,3.5,-0.9365L3.5,-0.9365C4.0424,-0.9365,4.481,-1.1074,4.8159,-1.4493C5.1508,-1.7911,5.3206,-2.2695,5.3252,-2.8847L5.3252,-2.8847z">
            </path>
            <path fill="rgb(68,68,68)" stroke-width="0" transform="matrix(1,0,0,1,7.7246,0)" d="M4.8125,-3.8965L2.4678,-3.8965L2.4678,0L1.1553,0L1.1553,-9.9532L4.8262,-9.9532C5.9154,-9.9532,6.7688,-9.6752,7.3863,-9.1192C8.0038,-8.5632,8.3125,-7.8272,8.3125,-6.9111L8.3125,-6.9111C8.3125,-5.945,8.0106,-5.201,7.4067,-4.6792C6.8029,-4.1574,5.9382,-3.8965,4.8125,-3.8965L4.8125,-3.8965zM2.4678,-8.8731L2.4678,-4.9697L4.8262,-4.9697C5.528,-4.9697,6.0657,-5.1349,6.4394,-5.4653C6.8131,-5.7957,7,-6.2731,7,-6.8975L7,-6.8975C7,-7.4899,6.8131,-7.9639,6.4394,-8.3194C6.0657,-8.6748,5.5531,-8.8593,4.9014,-8.8731L4.9014,-8.8731L2.4678,-8.8731z">
            </path>
            <path fill="rgb(68,68,68)" stroke-width="0" transform="matrix(1,0,0,1,16.5566,0)" d="M6.7813,-5.6738L6.7813,-4.6005L2.4678,-4.6005L2.4678,-1.0732L7.4785,-1.0732L7.4785,0L1.1553,0L1.1553,-9.9532L7.4102,-9.9532L7.4102,-8.8731L2.4678,-8.8731L2.4678,-5.6738L6.7813,-5.6738z">
            </path>
            <path fill="rgb(68,68,68)" stroke-width="0" transform="matrix(1,0,0,1,24.5137,0)" d="M8.5039,-4.956L8.5039,-1.3056C8.1667,-0.8225,7.6961,-0.4614,7.0923,-0.2222C6.4884,0.0171,5.7855,0.1368,4.9834,0.1368L4.9834,0.1368C4.1722,0.1368,3.4521,-0.0535,2.8232,-0.4341C2.1944,-0.8147,1.7079,-1.3558,1.3637,-2.0576C1.0197,-2.7594,0.8431,-3.5729,0.834,-4.4981L0.834,-4.4981L0.834,-5.3662C0.834,-6.8656,1.1837,-8.0277,1.8833,-8.8525C2.5828,-9.6774,3.566,-10.0898,4.8329,-10.0898L4.8329,-10.0898C5.872,-10.0898,6.7083,-9.8244,7.3417,-9.2935C7.9753,-8.7625,8.3627,-8.0094,8.5039,-7.0342L8.5039,-7.0342L7.1914,-7.0342C6.9453,-8.3512,6.1614,-9.0097,4.8398,-9.0097L4.8398,-9.0097C3.9602,-9.0097,3.2937,-8.701,2.8403,-8.0835C2.3869,-7.466,2.1579,-6.5716,2.1533,-5.4004L2.1533,-5.4004L2.1533,-4.587C2.1533,-3.4704,2.4086,-2.5829,2.919,-1.9243C3.4293,-1.2657,4.1198,-0.9365,4.9903,-0.9365L4.9903,-0.9365C5.4824,-0.9365,5.9131,-0.9912,6.2822,-1.1005C6.6514,-1.2099,6.9567,-1.3945,7.1982,-1.6542L7.1982,-1.6542L7.1982,-3.8896L4.8945,-3.8896L4.8945,-4.956L8.5039,-4.956z">
            </path>
            <path fill="rgb(68,68,68)" stroke-width="0" transform="matrix(1,0,0,1,34.0498,0)">
            </path>
          </g>
        </g>
      </g>
    </g>
  </g>
  <g transform="translate(394.1902,235.5495)translate(-387.6628,-239.929)translate(382.5711,239.8987)translate(-382.5711,-239.8987)translate(345.2811,203.8922)">
    <g class="drg tpbl" data-drg-tp="element" data-drg-v="8462" data-test-id="Group 2.Group 2.Text 4" data-gn-el-type="text">
      <g style="opacity:1">
        <g transform="translate(0, 0)">
          <path d="M 0 -12.9883 L 7.5332 -12.9883 L 7.5332 3.8117 L 0 3.8117 ZM 7.5332 -12.9883 L 15.5176 -12.9883 L 15.5176 3.8117 L 7.5332 3.8117 ZM 15.5176 -12.9883 L 20.0908 -12.9883 L 20.0908 3.8117 L 15.5176 3.8117 ZM 20.0908 -12.9883 L 24.6641 -12.9883 L 24.6641 3.8117 L 20.0908 3.8117 ZM 24.6641 -12.9883 L 28.0615 -12.9883 L 28.0615 3.8117 L 24.6641 3.8117 ZM 28.0615 -12.9883 L 35.4785 -12.9883 L 35.4785 3.8117 L 28.0615 3.8117 ZM 35.4785 -12.9883 L 38.9443 -12.9883 L 38.9443 3.8117 L 35.4785 3.8117 ZM 38.9443 -12.9883 L 46.6689 -12.9883 L 46.6689 3.8117 L 38.9443 3.8117 ZM 46.6689 -12.9883 L 54.9746 -12.9883 L 54.9746 3.8117 L 46.6689 3.8117 ZM 54.9746 -12.9883 L 64.5996 -12.9883 L 64.5996 3.8117 L 54.9746 3.8117 ZM 64.5996 -12.9883 L 74.5801 -12.9883 L 74.5801 3.8117 L 64.5996 3.8117 ZM 74.5801 -12.9883 L 74.5801 -12.9883 L 74.5801 3.8117 L 74.5801 3.8117 Z" fill="rgba(0,0,0,0)">
          </path>
          <g fill="rgb(68,68,68)" stroke-width="0" font-size="14px" style="font-family:Roboto-Regular;font-style:normal;font-weight:400">
            <path fill="rgb(68,68,68)" stroke-width="0" transform="matrix(1,0,0,1,0,0)" d="M2.4746,-9.9532L2.4746,-1.0732L7.1914,-1.0732L7.1914,0L1.1553,0L1.1553,-9.9532L2.4746,-9.9532z">
            </path>
            <path fill="rgb(68,68,68)" stroke-width="0" transform="matrix(1,0,0,1,7.5332,0)" d="M0.622,-3.6778L0.622,-3.7666C0.622,-4.4912,0.7644,-5.1429,1.0493,-5.7217C1.3342,-6.3004,1.7306,-6.747,2.2387,-7.0615C2.7469,-7.376,3.3269,-7.5333,3.9785,-7.5333L3.9785,-7.5333C4.9857,-7.5333,5.8003,-7.1846,6.4224,-6.4873C7.0444,-5.79,7.3555,-4.8626,7.3555,-3.7051L7.3555,-3.7051L7.3555,-3.6162C7.3555,-2.8961,7.2176,-2.2501,6.9419,-1.6782C6.6662,-1.1062,6.272,-0.6608,5.7593,-0.3417C5.2466,-0.0227,4.6576,0.1368,3.9922,0.1368L3.9922,0.1368C2.9896,0.1368,2.1772,-0.2119,1.5551,-0.9092C0.9331,-1.6065,0.622,-2.5293,0.622,-3.6778L0.622,-3.6778zM1.8935,-3.6162L1.8935,-3.6162C1.8935,-2.7959,2.0838,-2.1374,2.4644,-1.6407C2.8449,-1.1438,3.3542,-0.8954,3.9922,-0.8954L3.9922,-0.8954C4.6347,-0.8954,5.1451,-1.1473,5.5234,-1.6509C5.9017,-2.1545,6.0908,-2.8597,6.0908,-3.7666L6.0908,-3.7666C6.0908,-4.5778,5.8983,-5.2352,5.5132,-5.7387C5.1281,-6.2424,4.6165,-6.4942,3.9785,-6.4942L3.9785,-6.4942C3.3542,-6.4942,2.8506,-6.2458,2.4678,-5.749C2.0849,-5.2522,1.8935,-4.5413,1.8935,-3.6162z">
            </path>
            <path fill="rgb(68,68,68)" stroke-width="0" transform="matrix(1,0,0,1,15.5176,0)" d="M1.4083,-9.1875L2.6729,-9.1875L2.6729,-7.3965L4.0537,-7.3965L4.0537,-6.419L2.6729,-6.419L2.6729,-1.832C2.6729,-1.5358,2.7344,-1.3136,2.8574,-1.1655C2.9805,-1.0174,3.1901,-0.9433,3.4863,-0.9433L3.4863,-0.9433C3.6322,-0.9433,3.8327,-0.9707,4.0879,-1.0254L4.0879,-1.0254L4.0879,0C3.7552,0.0912,3.4317,0.1368,3.1172,0.1368L3.1172,0.1368C2.5521,0.1368,2.126,-0.0342,1.8389,-0.376C1.5518,-0.7178,1.4083,-1.2032,1.4083,-1.832L1.4083,-1.832L1.4083,-6.419L0.0615,-6.419L0.0615,-7.3965L1.4083,-7.3965L1.4083,-9.1875z">
            </path>
            <path fill="rgb(68,68,68)" stroke-width="0" transform="matrix(1,0,0,1,20.0908,0)" d="M1.4083,-9.1875L2.6729,-9.1875L2.6729,-7.3965L4.0537,-7.3965L4.0537,-6.419L2.6729,-6.419L2.6729,-1.832C2.6729,-1.5358,2.7344,-1.3136,2.8574,-1.1655C2.9805,-1.0174,3.1901,-0.9433,3.4863,-0.9433L3.4863,-0.9433C3.6322,-0.9433,3.8327,-0.9707,4.0879,-1.0254L4.0879,-1.0254L4.0879,0C3.7552,0.0912,3.4317,0.1368,3.1172,0.1368L3.1172,0.1368C2.5521,0.1368,2.126,-0.0342,1.8389,-0.376C1.5518,-0.7178,1.4083,-1.2032,1.4083,-1.832L1.4083,-1.832L1.4083,-6.419L0.0615,-6.419L0.0615,-7.3965L1.4083,-7.3965L1.4083,-9.1875z">
            </path>
            <path fill="rgb(68,68,68)" stroke-width="0" transform="matrix(1,0,0,1,24.6641,0)" d="M2.331,-7.3965L2.331,0L1.0664,0L1.0664,-7.3965L2.331,-7.3965zM0.9639,-9.3584L0.9639,-9.3584C0.9639,-9.5635,1.0266,-9.7367,1.1519,-9.878C1.2772,-10.0192,1.4629,-10.0898,1.709,-10.0898C1.9551,-10.0898,2.142,-10.0192,2.2695,-9.878C2.3971,-9.7367,2.4609,-9.5635,2.4609,-9.3584C2.4609,-9.1533,2.3971,-8.9824,2.2695,-8.8458C2.142,-8.709,1.9551,-8.6407,1.709,-8.6407C1.4629,-8.6407,1.2772,-8.709,1.1519,-8.8458C1.0266,-8.9824,0.9639,-9.1533,0.9639,-9.3584z">
            </path>
            <path fill="rgb(68,68,68)" stroke-width="0" transform="matrix(1,0,0,1,28.0615,0)" d="M4.0264,0.1368L4.0264,0.1368C3.0238,0.1368,2.208,-0.1925,1.5791,-0.8511C0.9502,-1.5096,0.6357,-2.3903,0.6357,-3.4931L0.6357,-3.4931L0.6357,-3.7255C0.6357,-4.4593,0.7759,-5.1144,1.0562,-5.6909C1.3364,-6.2674,1.7283,-6.7186,2.2319,-7.0444C2.7355,-7.3703,3.2813,-7.5333,3.8692,-7.5333L3.8692,-7.5333C4.8307,-7.5333,5.5781,-7.2165,6.1113,-6.5829C6.6445,-5.9495,6.9111,-5.0426,6.9111,-3.8623L6.9111,-3.8623L6.9111,-3.3359L1.9004,-3.3359C1.9187,-2.6068,2.1317,-2.0178,2.5396,-1.5688C2.9475,-1.1199,3.4658,-0.8954,4.0947,-0.8954L4.0947,-0.8954C4.5413,-0.8954,4.9196,-0.9866,5.2296,-1.169C5.5394,-1.3513,5.8106,-1.5928,6.043,-1.8935L6.043,-1.8935L6.8155,-1.2921C6.1957,-0.3395,5.266,0.1368,4.0264,0.1368zM3.8692,-6.4942L3.8692,-6.4942C3.3587,-6.4942,2.9303,-6.3084,2.584,-5.937C2.2376,-5.5656,2.0234,-5.0449,1.9414,-4.375L1.9414,-4.375L5.6465,-4.375L5.6465,-4.4708C5.61,-5.1133,5.4368,-5.6112,5.1269,-5.9644C4.8171,-6.3176,4.3978,-6.4942,3.8692,-6.4942z">
            </path>
            <path fill="rgb(68,68,68)" stroke-width="0" transform="matrix(1,0,0,1,35.4785,0)" d="">
            </path>
            <path fill="rgb(68,68,68)" stroke-width="0" transform="matrix(1,0,0,1,38.9443,0)" d="M5.3252,-2.8847L5.3252,-9.9532L6.6445,-9.9532L6.6445,-2.9053C6.6445,-1.9528,6.3586,-1.2077,5.7866,-0.6699C5.2147,-0.1321,4.4525,0.1368,3.5,0.1368L3.5,0.1368C2.511,0.1368,1.7409,-0.1162,1.1894,-0.622C0.638,-1.1279,0.3623,-1.8366,0.3623,-2.7481L0.3623,-2.7481L1.6748,-2.7481C1.6748,-2.1784,1.8309,-1.734,2.1431,-1.415C2.4552,-1.096,2.9075,-0.9365,3.5,-0.9365L3.5,-0.9365C4.0424,-0.9365,4.481,-1.1074,4.8159,-1.4493C5.1508,-1.7911,5.3206,-2.2695,5.3252,-2.8847L5.3252,-2.8847z">
            </path>
            <path fill="rgb(68,68,68)" stroke-width="0" transform="matrix(1,0,0,1,46.6689,0)" d="M4.0879,-4.4365L4.0879,-4.4365C2.9623,-4.76,2.1431,-5.1577,1.6304,-5.6294C1.1177,-6.1011,0.8613,-6.6833,0.8613,-7.376L0.8613,-7.376C0.8613,-8.1599,1.1746,-8.8081,1.8012,-9.3208C2.4279,-9.8335,3.2425,-10.0898,4.2451,-10.0898L4.2451,-10.0898C4.9287,-10.0898,5.5382,-9.9576,6.0738,-9.6933C6.6092,-9.429,7.0239,-9.0644,7.3179,-8.5996C7.6118,-8.1347,7.7588,-7.6266,7.7588,-7.0752L7.7588,-7.0752L6.4394,-7.0752C6.4394,-7.6767,6.2481,-8.1495,5.8653,-8.4937C5.4824,-8.8377,4.9424,-9.0097,4.2451,-9.0097L4.2451,-9.0097C3.598,-9.0097,3.0933,-8.8673,2.731,-8.5826C2.3687,-8.2977,2.1875,-7.9023,2.1875,-7.3965L2.1875,-7.3965C2.1875,-6.9909,2.3596,-6.6479,2.7037,-6.3676C3.0477,-6.0873,3.6333,-5.831,4.4604,-5.5986C5.2876,-5.3662,5.9348,-5.1099,6.4019,-4.8296C6.869,-4.5493,7.2153,-4.2223,7.4409,-3.8486C7.6664,-3.4749,7.7792,-3.0351,7.7792,-2.5292L7.7792,-2.5292C7.7792,-1.7227,7.4648,-1.0767,6.8359,-0.5914C6.207,-0.1059,5.3662,0.1368,4.3135,0.1368L4.3135,0.1368C3.6299,0.1368,2.9918,0.0057,2.3995,-0.2563C1.807,-0.5184,1.3501,-0.8773,1.0289,-1.3329C0.7075,-1.7887,0.5468,-2.3059,0.5468,-2.8847L0.5468,-2.8847L1.8662,-2.8847C1.8662,-2.2832,2.0884,-1.8081,2.5327,-1.4595C2.9771,-1.1108,3.5707,-0.9365,4.3135,-0.9365L4.3135,-0.9365C5.0062,-0.9365,5.5371,-1.0778,5.9063,-1.3604C6.2755,-1.6429,6.46,-2.028,6.46,-2.5157C6.46,-3.0032,6.2891,-3.3803,5.9472,-3.647C5.6054,-3.9136,4.9856,-4.1767,4.0879,-4.4365z">
            </path>
            <path fill="rgb(68,68,68)" stroke-width="0" transform="matrix(1,0,0,1,54.9746,0)" d="M8.8115,-5.2842L8.8115,-4.6553C8.8115,-3.68,8.6474,-2.829,8.3194,-2.1021C7.9912,-1.3752,7.5264,-0.8204,6.9248,-0.4375C6.3233,-0.0546,5.6215,0.1368,4.8194,0.1368L4.8194,0.1368C4.0355,0.1368,3.3404,-0.0558,2.7343,-0.4409C2.1282,-0.826,1.6577,-1.3751,1.3227,-2.0884C0.9877,-2.8016,0.8157,-3.6276,0.8067,-4.5664L0.8067,-4.5664L0.8067,-5.2842C0.8067,-6.2412,0.973,-7.0866,1.3056,-7.8203C1.6384,-8.554,2.1089,-9.1158,2.7173,-9.5054C3.3257,-9.895,4.0218,-10.0898,4.8056,-10.0898L4.8056,-10.0898C5.6032,-10.0898,6.3062,-9.8973,6.9146,-9.5122C7.5229,-9.1271,7.9912,-8.5688,8.3194,-7.8373C8.6474,-7.106,8.8115,-6.2549,8.8115,-5.2842L8.8115,-5.2842zM7.5058,-4.5595L7.5058,-5.2979C7.5058,-6.4782,7.2688,-7.3839,6.7949,-8.0151C6.321,-8.6464,5.6579,-8.962,4.8056,-8.962L4.8056,-8.962C3.9762,-8.962,3.3234,-8.6464,2.8472,-8.0151C2.3709,-7.3839,2.1259,-6.5078,2.1123,-5.3868L2.1123,-5.3868L2.1123,-4.6553C2.1123,-3.5114,2.3527,-2.6124,2.8335,-1.9585C3.3143,-1.3045,3.9763,-0.9775,4.8194,-0.9775L4.8194,-0.9775C5.667,-0.9775,6.3232,-1.2863,6.788,-1.9039C7.2529,-2.5214,7.4922,-3.4066,7.5058,-4.5595L7.5058,-4.5595z">
            </path>
            <path fill="rgb(68,68,68)" stroke-width="0" transform="matrix(1,0,0,1,64.5996,0)" d="M8.8047,-9.9532L8.8047,0L7.4854,0L2.4746,-7.6699L2.4746,0L1.1553,0L1.1553,-9.9532L2.4746,-9.9532L7.499,-2.249L7.499,-9.9532L8.8047,-9.9532z">
            </path>
            <path fill="rgb(68,68,68)" stroke-width="0" transform="matrix(1,0,0,1,74.5801,0)">
            </path>
          </g>
        </g>
      </g>
    </g>
  </g>
  <g transform="translate(394.1902,235.5495)translate(-387.6628,-239.929)translate(382.5711,239.8987)translate(-382.5711,-239.8987)translate(345.4807,313.7608)">
    <g class="drg tpbl" data-drg-tp="element" data-drg-v="8541" data-test-id="Group 2.Group 2.Text 5" data-gn-el-type="text">
      <g style="opacity:1">
        <g transform="translate(0, 0)">
          <path d="M 0 -12.9883 L 12.4209 -12.9883 L 12.4209 3.8117 L 0 3.8117 ZM 12.4209 -12.9883 L 19.8379 -12.9883 L 19.8379 3.8117 L 12.4209 3.8117 ZM 19.8379 -12.9883 L 27.6924 -12.9883 L 27.6924 3.8117 L 19.8379 3.8117 ZM 27.6924 -12.9883 L 39.915 -12.9883 L 39.915 3.8117 L 27.6924 3.8117 ZM 39.915 -12.9883 L 39.915 -12.9883 L 39.915 3.8117 L 39.915 3.8117 Z" fill="rgba(0,0,0,0)">
          </path>
          <g fill="rgb(68,68,68)" stroke-width="0" font-size="14px" style="font-family:Roboto-Regular;font-style:normal;font-weight:400">
            <path fill="rgb(68,68,68)" stroke-width="0" transform="matrix(1,0,0,1,0,0)" d="M1.7296,-9.9532L3.3018,-3.1377L3.4931,-1.8252L3.7734,-3.0078L5.7422,-9.9532L6.8496,-9.9532L8.7704,-3.0078L9.044,-1.8047L9.2558,-3.1445L10.8007,-9.9532L12.1201,-9.9532L9.707,0L8.5107,0L6.46,-7.253L6.3028,-8.0118L6.1454,-7.253L4.0195,0L2.8232,0L0.4171,-9.9532L1.7296,-9.9532z">
            </path>
            <path fill="rgb(68,68,68)" stroke-width="0" transform="matrix(1,0,0,1,12.4209,0)" d="M4.0264,0.1368L4.0264,0.1368C3.0238,0.1368,2.208,-0.1925,1.5791,-0.8511C0.9502,-1.5096,0.6357,-2.3903,0.6357,-3.4931L0.6357,-3.4931L0.6357,-3.7255C0.6357,-4.4593,0.7759,-5.1144,1.0562,-5.6909C1.3364,-6.2674,1.7283,-6.7186,2.2319,-7.0444C2.7355,-7.3703,3.2813,-7.5333,3.8692,-7.5333L3.8692,-7.5333C4.8307,-7.5333,5.5781,-7.2165,6.1113,-6.5829C6.6445,-5.9495,6.9111,-5.0426,6.9111,-3.8623L6.9111,-3.8623L6.9111,-3.3359L1.9004,-3.3359C1.9187,-2.6068,2.1317,-2.0178,2.5396,-1.5688C2.9475,-1.1199,3.4658,-0.8954,4.0947,-0.8954L4.0947,-0.8954C4.5413,-0.8954,4.9196,-0.9866,5.2296,-1.169C5.5394,-1.3513,5.8106,-1.5928,6.043,-1.8935L6.043,-1.8935L6.8155,-1.2921C6.1957,-0.3395,5.266,0.1368,4.0264,0.1368zM3.8692,-6.4942L3.8692,-6.4942C3.3587,-6.4942,2.9303,-6.3084,2.584,-5.937C2.2376,-5.5656,2.0234,-5.0449,1.9414,-4.375L1.9414,-4.375L5.6465,-4.375L5.6465,-4.4708C5.61,-5.1133,5.4368,-5.6112,5.1269,-5.9644C4.8171,-6.3176,4.3978,-6.4942,3.8692,-6.4942z">
            </path>
            <path fill="rgb(68,68,68)" stroke-width="0" transform="matrix(1,0,0,1,19.8379,0)" d="M7.2188,-3.7255L7.2188,-3.6162C7.2188,-2.486,6.959,-1.578,6.4394,-0.8921C5.9199,-0.2062,5.2227,0.1368,4.3477,0.1368L4.3477,0.1368C3.4134,0.1368,2.6911,-0.1937,2.1806,-0.8546L2.1806,-0.8546L2.1192,0L0.957,0L0.957,-10.5L2.2217,-10.5L2.2217,-6.5829C2.7321,-7.2165,3.4362,-7.5333,4.334,-7.5333C5.2318,-7.5333,5.937,-7.1937,6.4497,-6.5146C6.9624,-5.8356,7.2188,-4.9059,7.2188,-3.7255L7.2188,-3.7255zM5.9541,-3.7597L5.9541,-3.7597C5.9541,-4.6211,5.7877,-5.2864,5.4551,-5.7558C5.1224,-6.2253,4.6438,-6.46,4.0195,-6.46L4.0195,-6.46C3.1855,-6.46,2.5862,-6.0726,2.2217,-5.2979L2.2217,-5.2979L2.2217,-2.0986C2.6091,-1.3238,3.213,-0.9365,4.0333,-0.9365L4.0333,-0.9365C4.6394,-0.9365,5.111,-1.1712,5.4482,-1.6407C5.7855,-2.11,5.9541,-2.8164,5.9541,-3.7597z">
            </path>
            <path fill="rgb(68,68,68)" stroke-width="0" transform="matrix(1,0,0,1,27.6924,0)" d="M1.1553,-9.9532L2.8505,-9.9532L6.1046,-1.832L9.3584,-9.9532L11.0606,-9.9532L11.0606,0L9.7481,0L9.7481,-3.876L9.8711,-8.0595L6.6035,0L5.5986,0L2.3379,-8.0391L2.4678,-3.876L2.4678,0L1.1553,0L1.1553,-9.9532z">
            </path>
            <path fill="rgb(68,68,68)" stroke-width="0" transform="matrix(1,0,0,1,39.915,0)">
            </path>
          </g>
        </g>
      </g>
    </g>
  </g>
  <g transform="translate(394.1902,235.5495)translate(-387.6628,-239.929)translate(382.5711,239.8987)translate(-382.5711,-239.8987)translate(345.4883,231.3593)">
    <g class="drg tpbl" data-drg-tp="element" data-drg-v="38114" data-test-id="Group 2.Group 2.Text 6" data-gn-el-type="text">
      <g style="opacity:1">
        <g transform="translate(0, 0)">
          <path d="M 0 -12.9883 L 8.3057 -12.9883 L 8.3057 3.8117 L 0 3.8117 ZM 8.3057 -12.9883 L 17.2129 -12.9883 L 17.2129 3.8117 L 8.3057 3.8117 ZM 17.2129 -12.9883 L 26.749 -12.9883 L 26.749 3.8117 L 17.2129 3.8117 ZM 26.749 -12.9883 L 26.749 -12.9883 L 26.749 3.8117 L 26.749 3.8117 Z" fill="rgba(0,0,0,0)">
          </path>
          <g fill="rgb(68,68,68)" stroke-width="0" font-size="14px" style="font-family:Roboto-Regular;font-style:normal;font-weight:400">
            <path fill="rgb(68,68,68)" stroke-width="0" transform="matrix(1,0,0,1,0,0)" d="M4.0879,-4.4365L4.0879,-4.4365C2.9623,-4.76,2.1431,-5.1577,1.6304,-5.6294C1.1177,-6.1011,0.8613,-6.6833,0.8613,-7.376L0.8613,-7.376C0.8613,-8.1599,1.1746,-8.8081,1.8012,-9.3208C2.4279,-9.8335,3.2425,-10.0898,4.2451,-10.0898L4.2451,-10.0898C4.9287,-10.0898,5.5382,-9.9576,6.0738,-9.6933C6.6092,-9.429,7.0239,-9.0644,7.3179,-8.5996C7.6118,-8.1347,7.7588,-7.6266,7.7588,-7.0752L7.7588,-7.0752L6.4394,-7.0752C6.4394,-7.6767,6.2481,-8.1495,5.8653,-8.4937C5.4824,-8.8377,4.9424,-9.0097,4.2451,-9.0097L4.2451,-9.0097C3.598,-9.0097,3.0933,-8.8673,2.731,-8.5826C2.3687,-8.2977,2.1875,-7.9023,2.1875,-7.3965L2.1875,-7.3965C2.1875,-6.9909,2.3596,-6.6479,2.7037,-6.3676C3.0477,-6.0873,3.6333,-5.831,4.4604,-5.5986C5.2876,-5.3662,5.9348,-5.1099,6.4019,-4.8296C6.869,-4.5493,7.2153,-4.2223,7.4409,-3.8486C7.6664,-3.4749,7.7792,-3.0351,7.7792,-2.5292L7.7792,-2.5292C7.7792,-1.7227,7.4648,-1.0767,6.8359,-0.5914C6.207,-0.1059,5.3662,0.1368,4.3135,0.1368L4.3135,0.1368C3.6299,0.1368,2.9918,0.0057,2.3995,-0.2563C1.807,-0.5184,1.3501,-0.8773,1.0289,-1.3329C0.7075,-1.7887,0.5468,-2.3059,0.5468,-2.8847L0.5468,-2.8847L1.8662,-2.8847C1.8662,-2.2832,2.0884,-1.8081,2.5327,-1.4595C2.9771,-1.1108,3.5707,-0.9365,4.3135,-0.9365L4.3135,-0.9365C5.0062,-0.9365,5.5371,-1.0778,5.9063,-1.3604C6.2755,-1.6429,6.46,-2.028,6.46,-2.5157C6.46,-3.0032,6.2891,-3.3803,5.9472,-3.647C5.6054,-3.9136,4.9856,-4.1767,4.0879,-4.4365z">
            </path>
            <path fill="rgb(68,68,68)" stroke-width="0" transform="matrix(1,0,0,1,8.3057,0)" d="M1.6201,-9.9532L4.4502,-1.7431L7.294,-9.9532L8.7296,-9.9532L5.038,0L3.876,0L0.1914,-9.9532L1.6201,-9.9532z">
            </path>
            <path fill="rgb(68,68,68)" stroke-width="0" transform="matrix(1,0,0,1,17.2129,0)" d="M8.5039,-4.956L8.5039,-1.3056C8.1667,-0.8225,7.6961,-0.4614,7.0923,-0.2222C6.4884,0.0171,5.7855,0.1368,4.9834,0.1368L4.9834,0.1368C4.1722,0.1368,3.4521,-0.0535,2.8232,-0.4341C2.1944,-0.8147,1.7079,-1.3558,1.3637,-2.0576C1.0197,-2.7594,0.8431,-3.5729,0.834,-4.4981L0.834,-4.4981L0.834,-5.3662C0.834,-6.8656,1.1837,-8.0277,1.8833,-8.8525C2.5828,-9.6774,3.566,-10.0898,4.8329,-10.0898L4.8329,-10.0898C5.872,-10.0898,6.7083,-9.8244,7.3417,-9.2935C7.9753,-8.7625,8.3627,-8.0094,8.5039,-7.0342L8.5039,-7.0342L7.1914,-7.0342C6.9453,-8.3512,6.1614,-9.0097,4.8398,-9.0097L4.8398,-9.0097C3.9602,-9.0097,3.2937,-8.701,2.8403,-8.0835C2.3869,-7.466,2.1579,-6.5716,2.1533,-5.4004L2.1533,-5.4004L2.1533,-4.587C2.1533,-3.4704,2.4086,-2.5829,2.919,-1.9243C3.4293,-1.2657,4.1198,-0.9365,4.9903,-0.9365L4.9903,-0.9365C5.4824,-0.9365,5.9131,-0.9912,6.2822,-1.1005C6.6514,-1.2099,6.9567,-1.3945,7.1982,-1.6542L7.1982,-1.6542L7.1982,-3.8896L4.8945,-3.8896L4.8945,-4.956L8.5039,-4.956z">
            </path>
            <path fill="rgb(68,68,68)" stroke-width="0" transform="matrix(1,0,0,1,26.749,0)">
            </path>
          </g>
        </g>
      </g>
    </g>
  </g>
  <g transform="translate(164.5339,378.3594)translate(-164.5339,-378.3594)">
    <g transform="translate(127.2616,383.7579)translate(37.3983,-5.6473)">
      <rect x="-69.082" y="-3.0529" width="138.1639" height="6.1058" rx="4" ry="4" fill="rgb(209,209,209)">
      </rect>
    </g>
    <g transform="translate(79.8829,367.3002)rotate(45)translate(18.39,-2.75)">
      <rect x="-8" y="-8" width="16" height="16" rx="0" ry="0" stroke-width="2" stroke-linejoin="round" fill="rgb(245,245,245)" stroke="rgb(166,166,166)">
      </rect>
    </g>
    <g transform="translate(121.9692,367.3002)rotate(45)translate(18.39,-2.75)">
      <rect x="-8" y="-8" width="16" height="16" rx="0" ry="0" stroke-width="2" stroke-linejoin="round" fill="rgb(245,245,245)" stroke="rgb(166,166,166)">
      </rect>
    </g>
    <g transform="translate(150.5673,367.3002)rotate(45)translate(18.39,-2.75)">
      <rect x="-8" y="-8" width="16" height="16" rx="0" ry="0" stroke-width="2" stroke-linejoin="round" fill="rgb(245,245,245)" stroke="rgb(166,166,166)">
      </rect>
    </g>
    <g transform="translate(219.2885,367.3002)rotate(45)translate(18.39,-2.75)">
      <rect x="-8" y="-8" width="16" height="16" rx="0" ry="0" stroke-width="2" stroke-linejoin="round" fill="rgb(245,245,245)" stroke="rgb(166,166,166)">
      </rect>
    </g>
  </g>
  <g transform="translate(636.0618,403.9199)scale(0.4759,0.4759)translate(-193.5174,-271.0457)">
    <g transform="translate(137.5174,338.0457)">
      <path d="M0,0C0,0,18.357,-84.833,33.999,-64.267C49.641,-43.701,96.016,-42.935,116,-64.267C135.984,-85.599,146,1,146,1" fill="rgb(178,178,178)">
      </path>
    </g>
    <g transform="translate(208.5174,240.0457)">
      <ellipse cx="0" cy="0" rx="37" ry="37" fill="rgb(232,232,232)">
      </ellipse>
    </g>
    <g transform="translate(187.5174,321.0457)">
      <path d="M38,-27.395L61,18L-61,18L-84,-27.395L38,-27.395z" fill="rgb(79,101,121)">
      </path>
    </g>
  </g>
  <g transform="translate(750.8959,296.5869)translate(-254.3817,-1490.2793)translate(254.1729,1488.348)translate(0.3271,12.152)">
    <g filter="url(#efShadow4)">
      <rect x="-37.5" y="-36.5" width="75" height="73" rx="5" ry="5" stroke-width="4" stroke-linejoin="round" fill="rgb(0,0,0)" stroke="rgb(0,0,0)">
      </rect>
    </g>
  </g>
  <g transform="translate(750.8959,296.5869)translate(-254.3817,-1490.2793)translate(254.5864,1475.8885)translate(-254.4896,-1516.07)">
    <g transform="translate(254.4896,1519.142)scale(0.5,0.5)translate(0,-6.1438)">
      <path d="M74.827,-39.692L74.827,60.777L-75.646,60.777L-75.646,-60.777C-75.646,-64.641,-72.527,-67.777,-68.683,-67.777L-47.459,-67.777L45.129,-67.777L74.827,-39.692z" stroke-width="8" stroke-linecap="round" stroke-linejoin="round" fill="rgb(255,255,255)" stroke="rgb(0,0,0)">
      </path>
    </g>
  </g>
  <g transform="translate(750.8959,296.5869)translate(-254.3817,-1490.2793)translate(223.2974,1529.9085)scale(0.5,0.5)">
    <g class="drg tpbl" data-drg-tp="element" data-drg-v="971" data-test-id="export-png-noBorder 2.Text" data-gn-el-type="text">
      <g style="opacity:1">
        <g transform="translate(0, 0)">
          <path d="M 0 -45.9 L 28.4881 -45.9 L 28.4881 15.3 L 0 15.3 ZM 28.4881 -45.9 L 61.3836 -45.9 L 61.3836 15.3 L 28.4881 15.3 ZM 61.3836 -45.9 L 90.0711 -45.9 L 90.0711 15.3 L 61.3836 15.3 ZM 90.0711 -45.9 L 124.8098 -45.9 L 124.8098 15.3 L 90.0711 15.3 ZM 124.8098 -45.9 L 124.8098 -45.9 L 124.8098 15.3 L 124.8098 15.3 Z" fill="rgba(0,0,0,0)">
          </path>
          <g fill="rgb(255,255,255)" stroke-width="0" font-size="51px" style="font-family:Roboto-Bold;font-style:normal;font-weight:400">
            <path fill="rgb(255,255,255)" stroke-width="0" transform="matrix(1,0,0,1,0,0)" d="M17.8551,-11.1563L17.8551,-36.2579L25.3256,-36.2579L25.3256,-11.1563C25.3256,-8.849,24.8151,-6.8105,23.7941,-5.0429C22.773,-3.2752,21.3328,-1.9089,19.4738,-0.9461C17.6149,0.0168,15.5142,0.4983,13.1733,0.4983L13.1733,0.4983C9.3386,0.4983,6.35,-0.4774,4.2085,-2.4281C2.067,-4.3784,0.996,-7.139,0.996,-10.708L0.996,-10.708L8.5165,-10.708C8.5165,-8.9316,8.8903,-7.6199,9.637,-6.7733C10.3841,-5.9267,11.5632,-5.5034,13.1733,-5.5034L13.1733,-5.5034C14.6008,-5.5034,15.7386,-5.9935,16.5852,-6.9727C17.4313,-7.9519,17.8551,-9.3473,17.8551,-11.1563L17.8551,-11.1563z">
            </path>
            <path fill="rgb(255,255,255)" stroke-width="0" transform="matrix(1,0,0,1,28.4881,0)" d="M17.2574,-12.775L10.708,-12.775L10.708,0L3.2375,0L3.2375,-36.2579L17.3818,-36.2579C20.1042,-36.2579,22.4997,-35.7597,24.5662,-34.7636C26.6327,-33.7676,28.2229,-32.3518,29.3352,-30.5179C30.447,-28.6834,31.0034,-26.5955,31.0034,-24.2551L31.0034,-24.2551C31.0034,-20.7024,29.7871,-17.9005,27.3554,-15.8503C24.9232,-13.8006,21.5567,-12.775,17.2574,-12.775L17.2574,-12.775zM10.708,-30.2068L10.708,-18.8261L17.3818,-18.8261C19.3576,-18.8261,20.8646,-19.2913,21.9014,-20.2205C22.9388,-21.1502,23.458,-22.4788,23.458,-24.2051L23.458,-24.2051C23.458,-25.9814,22.9347,-27.4176,21.8892,-28.5131C20.8437,-29.6086,19.3989,-30.1736,17.5562,-30.2068L17.5562,-30.2068L10.708,-30.2068z">
            </path>
            <path fill="rgb(255,255,255)" stroke-width="0" transform="matrix(1,0,0,1,61.3836,0)" d="M25.0517,-21.5653L25.0517,-15.7136L10.708,-15.7136L10.708,-6.0017L27.542,-6.0017L27.542,0L3.2375,0L3.2375,-36.2579L27.4921,-36.2579L27.4921,-30.2068L10.708,-30.2068L10.708,-21.5653L25.0517,-21.5653z">
            </path>
            <path fill="rgb(255,255,255)" stroke-width="0" transform="matrix(1,0,0,1,90.0711,0)" d="M31.925,-19.0505L31.925,-4.5818C30.5806,-2.9718,28.6793,-1.7223,26.2222,-0.8344C23.7655,0.0541,21.0421,0.4983,18.054,0.4983L18.054,0.4983C14.917,0.4983,12.1645,-0.1867,9.7991,-1.5565C7.4338,-2.9259,5.6069,-4.9144,4.3207,-7.5205C3.0345,-10.1266,2.374,-13.1901,2.3409,-16.7096L2.3409,-16.7096L2.3409,-19.175C2.3409,-22.7934,2.9514,-25.9274,4.1713,-28.5753C5.3912,-31.2232,7.1512,-33.2489,9.4503,-34.6514C11.7494,-36.0539,14.4437,-36.7557,17.5313,-36.7557L17.5313,-36.7557C21.8305,-36.7557,25.193,-35.7301,27.6165,-33.6804C30.04,-31.6302,31.4767,-28.6457,31.925,-24.7279L31.925,-24.7279L24.6534,-24.7279C24.3214,-26.803,23.5865,-28.3228,22.4497,-29.2852C21.3129,-30.2476,19.7472,-30.7295,17.7551,-30.7295L17.7551,-30.7295C15.2153,-30.7295,13.2814,-29.7748,11.9534,-27.8659C10.6253,-25.9565,9.9521,-23.1173,9.9358,-19.3489L9.9358,-19.3489L9.9358,-17.033C9.9358,-13.2314,10.658,-10.3591,12.1023,-8.417C13.5466,-6.475,15.6641,-5.5034,18.4528,-5.5034L18.4528,-5.5034C21.2583,-5.5034,23.2591,-6.1016,24.454,-7.2966L24.454,-7.2966L24.454,-13.5471L17.6557,-13.5471L17.6557,-19.0505L31.925,-19.0505z">
            </path>
            <path fill="rgb(255,255,255)" stroke-width="0" transform="matrix(1,0,0,1,124.8098,0)">
            </path>
          </g>
        </g>
      </g>
    </g>
  </g>
  <g transform="translate(750.8959,296.5869)translate(-254.3817,-1490.2793)translate(254.6629,1479.6365)scale(0.3027,0.3027)translate(-193.5174,-271.0457)">
    <g transform="translate(137.5174,338.0457)">
      <path d="M0,0C0,0,18.357,-84.832,33.999,-64.266C49.641,-43.7,96.016,-42.934,116,-64.266C135.984,-85.598,146,1,146,1" fill="rgb(178,178,178)">
      </path>
    </g>
    <g transform="translate(208.5174,240.0457)">
      <ellipse cx="0" cy="0" rx="37" ry="37" fill="rgb(232,232,232)">
      </ellipse>
    </g>
    <g transform="translate(187.5174,321.0457)">
      <path d="M38,-27.395L61,18L-61,18L-84,-27.395L38,-27.395z" fill="rgb(79,101,121)">
      </path>
    </g>
  </g>
  <g transform="translate(523.2154,267.7203)translate(-254.3817,-1490.2793)translate(254.1729,1488.348)translate(0.3271,12.152)">
    <g filter="url(#efShadow5)">
      <rect x="-37.5" y="-36.5" width="75" height="73" rx="5" ry="5" stroke-width="4" stroke-linejoin="round" fill="rgb(0,0,0)" stroke="rgb(0,0,0)">
      </rect>
    </g>
  </g>
  <g transform="translate(523.2154,267.7203)translate(-254.3817,-1490.2793)translate(254.5864,1475.8885)translate(-254.4896,-1516.07)">
    <g transform="translate(254.4896,1519.142)scale(0.5,0.5)translate(0,-6.1438)">
      <path d="M74.827,-39.692L74.827,60.777L-75.646,60.777L-75.646,-60.777C-75.646,-64.641,-72.527,-67.777,-68.683,-67.777L-47.459,-67.777L45.129,-67.777L74.827,-39.692z" stroke-width="8" stroke-linecap="round" stroke-linejoin="round" fill="rgb(255,255,255)" stroke="rgb(0,0,0)">
      </path>
    </g>
  </g>
  <g transform="translate(523.2154,267.7203)translate(-254.3817,-1490.2793)translate(230.2974,1529.9085)scale(0.5,0.5)">
    <g class="drg tpbl" data-drg-tp="element" data-drg-v="36008" data-test-id="export-png-noBorder 3.Text" data-gn-el-type="text">
      <g style="opacity:1">
        <g transform="translate(0, 0)">
          <path d="M 0 -45.9 L 31.3517 -45.9 L 31.3517 15.3 L 0 15.3 ZM 31.3517 -45.9 L 64.696 -45.9 L 64.696 15.3 L 31.3517 15.3 ZM 64.696 -45.9 L 99.4346 -45.9 L 99.4346 15.3 L 64.696 15.3 ZM 99.4346 -45.9 L 99.4346 -45.9 L 99.4346 15.3 L 99.4346 15.3 Z" fill="rgba(0,0,0,0)">
          </path>
          <g fill="rgb(255,255,255)" stroke-width="0" font-size="51px" style="font-family:Roboto-Bold;font-style:normal;font-weight:400">
            <path fill="rgb(255,255,255)" stroke-width="0" transform="matrix(1,0,0,1,0,0)" d="M22.0386,-9.5125L22.0386,-9.5125C22.0386,-10.9237,21.5404,-12.0074,20.5443,-12.7622C19.5488,-13.5176,17.7551,-14.3147,15.1654,-15.1531C12.5761,-15.9911,10.5249,-16.8178,9.0148,-17.6307L9.0148,-17.6307C4.8975,-19.8553,2.8387,-22.8521,2.8387,-26.6205L2.8387,-26.6205C2.8387,-28.5794,3.391,-30.3271,4.4946,-31.8628C5.5988,-33.3979,7.1849,-34.5979,9.2514,-35.4608C11.3179,-36.3237,13.6384,-36.7557,16.2114,-36.7557L16.2114,-36.7557C18.8011,-36.7557,21.1089,-36.2865,23.1341,-35.3491C25.1593,-34.4112,26.7327,-33.0868,27.8531,-31.3767C28.9736,-29.6672,29.5341,-27.7246,29.5341,-25.55L29.5341,-25.55L22.0636,-25.55C22.0636,-27.2095,21.5404,-28.5008,20.4949,-29.4219C19.4489,-30.343,17.979,-30.804,16.0869,-30.804L16.0869,-30.804C14.2611,-30.804,12.8413,-30.4179,11.8284,-29.6463C10.8161,-28.8742,10.3096,-27.8567,10.3096,-26.5955L10.3096,-26.5955C10.3096,-25.4174,10.9033,-24.429,12.0901,-23.6324C13.2768,-22.8358,15.0246,-22.0881,17.3318,-21.3909L17.3318,-21.3909C21.5817,-20.1129,24.6784,-18.5268,26.6205,-16.6342C28.5626,-14.7421,29.5341,-12.3843,29.5341,-9.5625L29.5341,-9.5625C29.5341,-6.425,28.3468,-3.9632,25.9733,-2.1787C23.5992,-0.3942,20.4026,0.4983,16.3853,0.4983L16.3853,0.4983C13.5966,0.4983,11.0568,-0.0122,8.7659,-1.0328C6.475,-2.0538,4.7272,-3.4532,3.5236,-5.2295C2.32,-7.0059,1.7182,-9.0647,1.7182,-11.4051L1.7182,-11.4051L9.2137,-11.4051C9.2137,-7.4047,11.604,-5.404,16.3853,-5.404L16.3853,-5.404C18.1616,-5.404,19.5488,-5.765,20.5443,-6.4872C21.5404,-7.2089,22.0386,-8.2181,22.0386,-9.5125z">
            </path>
            <path fill="rgb(255,255,255)" stroke-width="0" transform="matrix(1,0,0,1,31.3517,0)" d="M8.467,-36.2579L16.6347,-8.9898L24.8523,-36.2579L33.1699,-36.2579L20.5443,0L12.75,0L0.1744,-36.2579L8.467,-36.2579z">
            </path>
            <path fill="rgb(255,255,255)" stroke-width="0" transform="matrix(1,0,0,1,64.696,0)" d="M31.925,-19.0505L31.925,-4.5818C30.5806,-2.9718,28.6793,-1.7223,26.2222,-0.8344C23.7655,0.0541,21.0421,0.4983,18.054,0.4983L18.054,0.4983C14.917,0.4983,12.1645,-0.1867,9.7991,-1.5565C7.4338,-2.9259,5.6069,-4.9144,4.3207,-7.5205C3.0345,-10.1266,2.374,-13.1901,2.3409,-16.7096L2.3409,-16.7096L2.3409,-19.175C2.3409,-22.7934,2.9514,-25.9274,4.1713,-28.5753C5.3912,-31.2232,7.1512,-33.2489,9.4503,-34.6514C11.7494,-36.0539,14.4437,-36.7557,17.5313,-36.7557L17.5313,-36.7557C21.8305,-36.7557,25.193,-35.7301,27.6165,-33.6804C30.04,-31.6302,31.4767,-28.6457,31.925,-24.7279L31.925,-24.7279L24.6534,-24.7279C24.3214,-26.803,23.5865,-28.3228,22.4497,-29.2852C21.3129,-30.2476,19.7472,-30.7295,17.7551,-30.7295L17.7551,-30.7295C15.2153,-30.7295,13.2814,-29.7748,11.9534,-27.8659C10.6253,-25.9565,9.9521,-23.1173,9.9358,-19.3489L9.9358,-19.3489L9.9358,-17.033C9.9358,-13.2314,10.658,-10.3591,12.1023,-8.417C13.5466,-6.475,15.6641,-5.5034,18.4528,-5.5034L18.4528,-5.5034C21.2583,-5.5034,23.2591,-6.1016,24.454,-7.2966L24.454,-7.2966L24.454,-13.5471L17.6557,-13.5471L17.6557,-19.0505L31.925,-19.0505z">
            </path>
            <path fill="rgb(255,255,255)" stroke-width="0" transform="matrix(1,0,0,1,99.4346,0)">
            </path>
          </g>
        </g>
      </g>
    </g>
  </g>
  <g transform="translate(523.2154,267.7203)translate(-254.3817,-1490.2793)translate(254.6629,1479.6365)scale(0.3027,0.3027)translate(-193.5174,-271.0457)">
    <g transform="translate(137.5174,338.0457)">
      <path d="M0,0C0,0,18.357,-84.832,33.999,-64.266C49.641,-43.7,96.016,-42.934,116,-64.266C135.984,-85.598,146,1,146,1" fill="rgb(178,178,178)">
      </path>
    </g>
    <g transform="translate(208.5174,240.0457)">
      <ellipse cx="0" cy="0" rx="37" ry="37" fill="rgb(232,232,232)">
      </ellipse>
    </g>
    <g transform="translate(187.5174,321.0457)">
      <path d="M38,-27.395L61,18L-61,18L-84,-27.395L38,-27.395z" fill="rgb(79,101,121)">
      </path>
    </g>
  </g>
  <g transform="translate(641.7879,240.2447)translate(-254.3817,-1490.2793)translate(254.1729,1488.348)translate(0.3271,12.152)">
    <g filter="url(#efShadow6)">
      <rect x="-37.5" y="-36.5" width="75" height="73" rx="5" ry="5" stroke-width="4" stroke-linejoin="round" fill="rgb(0,0,0)" stroke="rgb(0,0,0)">
      </rect>
    </g>
  </g>
  <g transform="translate(641.7879,240.2447)translate(-254.3817,-1490.2793)translate(254.5864,1475.8885)translate(-254.4896,-1516.07)">
    <g transform="translate(254.4896,1519.142)scale(0.5,0.5)translate(0,-6.1438)">
      <path d="M74.827,-39.692L74.827,60.777L-75.646,60.777L-75.646,-60.777C-75.646,-64.641,-72.527,-67.777,-68.683,-67.777L-47.459,-67.777L45.129,-67.777L74.827,-39.692z" stroke-width="8" stroke-linecap="round" stroke-linejoin="round" fill="rgb(255,255,255)" stroke="rgb(0,0,0)">
      </path>
    </g>
  </g>
  <g transform="translate(641.7879,240.2447)translate(-254.3817,-1490.2793)translate(228.2974,1529.9085)scale(0.5,0.5)">
    <g class="drg tpbl" data-drg-tp="element" data-drg-v="36575" data-test-id="export-png-noBorder 4.Text" data-gn-el-type="text">
      <g style="opacity:1">
        <g transform="translate(0, 0)">
          <path d="M 0 -45.9 L 32.8955 -45.9 L 32.8955 15.3 L 0 15.3 ZM 32.8955 -45.9 L 68.9041 -45.9 L 68.9041 15.3 L 32.8955 15.3 ZM 68.9041 -45.9 L 103.6427 -45.9 L 103.6427 15.3 L 68.9041 15.3 ZM 103.6427 -45.9 L 103.6427 -45.9 L 103.6427 15.3 L 103.6427 15.3 Z" fill="rgba(0,0,0,0)">
          </path>
          <g fill="rgb(255,255,255)" stroke-width="0" font-size="51px" style="font-family:Roboto-Bold;font-style:normal;font-weight:400">
            <path fill="rgb(255,255,255)" stroke-width="0" transform="matrix(1,0,0,1,0,0)" d="M17.2574,-12.775L10.708,-12.775L10.708,0L3.2375,0L3.2375,-36.2579L17.3818,-36.2579C20.1042,-36.2579,22.4997,-35.7597,24.5662,-34.7636C26.6327,-33.7676,28.2229,-32.3518,29.3352,-30.5179C30.447,-28.6834,31.0034,-26.5955,31.0034,-24.2551L31.0034,-24.2551C31.0034,-20.7024,29.7871,-17.9005,27.3554,-15.8503C24.9232,-13.8006,21.5567,-12.775,17.2574,-12.775L17.2574,-12.775zM10.708,-30.2068L10.708,-18.8261L17.3818,-18.8261C19.3576,-18.8261,20.8646,-19.2913,21.9014,-20.2205C22.9388,-21.1502,23.458,-22.4788,23.458,-24.2051L23.458,-24.2051C23.458,-25.9814,22.9347,-27.4176,21.8892,-28.5131C20.8437,-29.6086,19.3989,-30.1736,17.5562,-30.2068L17.5562,-30.2068L10.708,-30.2068z">
            </path>
            <path fill="rgb(255,255,255)" stroke-width="0" transform="matrix(1,0,0,1,32.8955,0)" d="M32.7216,-36.2579L32.7216,0L25.2511,0L10.708,-23.8563L10.708,0L3.2375,0L3.2375,-36.2579L10.708,-36.2579L25.2761,-12.3517L25.2761,-36.2579L32.7216,-36.2579z">
            </path>
            <path fill="rgb(255,255,255)" stroke-width="0" transform="matrix(1,0,0,1,68.9041,0)" d="M31.925,-19.0505L31.925,-4.5818C30.5806,-2.9718,28.6793,-1.7223,26.2222,-0.8344C23.7655,0.0541,21.0421,0.4983,18.054,0.4983L18.054,0.4983C14.917,0.4983,12.1645,-0.1867,9.7991,-1.5565C7.4338,-2.9259,5.6069,-4.9144,4.3207,-7.5205C3.0345,-10.1266,2.374,-13.1901,2.3409,-16.7096L2.3409,-16.7096L2.3409,-19.175C2.3409,-22.7934,2.9514,-25.9274,4.1713,-28.5753C5.3912,-31.2232,7.1512,-33.2489,9.4503,-34.6514C11.7494,-36.0539,14.4437,-36.7557,17.5313,-36.7557L17.5313,-36.7557C21.8305,-36.7557,25.193,-35.7301,27.6165,-33.6804C30.04,-31.6302,31.4767,-28.6457,31.925,-24.7279L31.925,-24.7279L24.6534,-24.7279C24.3214,-26.803,23.5865,-28.3228,22.4497,-29.2852C21.3129,-30.2476,19.7472,-30.7295,17.7551,-30.7295L17.7551,-30.7295C15.2153,-30.7295,13.2814,-29.7748,11.9534,-27.8659C10.6253,-25.9565,9.9521,-23.1173,9.9358,-19.3489L9.9358,-19.3489L9.9358,-17.033C9.9358,-13.2314,10.658,-10.3591,12.1023,-8.417C13.5466,-6.475,15.6641,-5.5034,18.4528,-5.5034L18.4528,-5.5034C21.2583,-5.5034,23.2591,-6.1016,24.454,-7.2966L24.454,-7.2966L24.454,-13.5471L17.6557,-13.5471L17.6557,-19.0505L31.925,-19.0505z">
            </path>
            <path fill="rgb(255,255,255)" stroke-width="0" transform="matrix(1,0,0,1,103.6427,0)">
            </path>
          </g>
        </g>
      </g>
    </g>
  </g>
  <g transform="translate(641.7879,240.2447)translate(-254.3817,-1490.2793)translate(254.6629,1479.6365)scale(0.3027,0.3027)translate(-193.5174,-271.0457)">
    <g transform="translate(137.5174,338.0457)">
      <path d="M0,0C0,0,18.357,-84.832,33.999,-64.266C49.641,-43.7,96.016,-42.934,116,-64.266C135.984,-85.598,146,1,146,1" fill="rgb(178,178,178)">
      </path>
    </g>
    <g transform="translate(208.5174,240.0457)">
      <ellipse cx="0" cy="0" rx="37" ry="37" fill="rgb(232,232,232)">
      </ellipse>
    </g>
    <g transform="translate(187.5174,321.0457)">
      <path d="M38,-27.395L61,18L-61,18L-84,-27.395L38,-27.395z" fill="rgb(79,101,121)">
      </path>
    </g>
  </g>
  <g transform="translate(509.8693,89.6821)translate(-254.3817,-1490.2793)translate(254.1729,1488.348)translate(0.3271,12.152)">
    <g filter="url(#efShadow7)">
      <rect x="-37.5" y="-36.5" width="75" height="73" rx="5" ry="5" stroke-width="4" stroke-linejoin="round" fill="rgb(0,0,0)" stroke="rgb(0,0,0)">
      </rect>
    </g>
  </g>
  <g transform="translate(509.8693,89.6821)translate(-254.3817,-1490.2793)translate(254.5864,1475.8885)translate(-254.4896,-1516.07)">
    <g transform="translate(254.4896,1519.142)scale(0.5,0.5)translate(0,-6.1438)">
      <path d="M74.827,-39.692L74.827,60.777L-75.646,60.777L-75.646,-60.777C-75.646,-64.641,-72.527,-67.777,-68.683,-67.777L-47.459,-67.777L45.129,-67.777L74.827,-39.692z" stroke-width="8" stroke-linecap="round" stroke-linejoin="round" fill="rgb(255,255,255)" stroke="rgb(0,0,0)">
      </path>
    </g>
  </g>
  <g transform="translate(509.8693,89.6821)translate(-254.3817,-1490.2793)translate(221.2974,1529.9085)scale(0.5,0.5)">
    <g class="drg tpbl" data-drg-tp="element" data-drg-v="38460" data-test-id="export-png-noBorder 5.Text" data-gn-el-type="text">
      <g style="opacity:1">
        <g transform="translate(0, 0)">
          <path d="M 0 -45.9 L 28.4881 -45.9 L 28.4881 15.3 L 0 15.3 ZM 28.4881 -45.9 L 59.8398 -45.9 L 59.8398 15.3 L 28.4881 15.3 ZM 59.8398 -45.9 L 95.0513 -45.9 L 95.0513 15.3 L 59.8398 15.3 ZM 95.0513 -45.9 L 131.0598 -45.9 L 131.0598 15.3 L 95.0513 15.3 ZM 131.0598 -45.9 L 131.0598 -45.9 L 131.0598 15.3 L 131.0598 15.3 Z" fill="rgba(0,0,0,0)">
          </path>
          <g fill="rgb(255,255,255)" stroke-width="0" font-size="51px" style="font-family:Roboto-Bold;font-style:normal;font-weight:400">
            <path fill="rgb(255,255,255)" stroke-width="0" transform="matrix(1,0,0,1,0,0)" d="M17.8551,-11.1563L17.8551,-36.2579L25.3256,-36.2579L25.3256,-11.1563C25.3256,-8.849,24.8151,-6.8105,23.7941,-5.0429C22.773,-3.2752,21.3328,-1.9089,19.4738,-0.9461C17.6149,0.0168,15.5142,0.4983,13.1733,0.4983L13.1733,0.4983C9.3386,0.4983,6.35,-0.4774,4.2085,-2.4281C2.067,-4.3784,0.996,-7.139,0.996,-10.708L0.996,-10.708L8.5165,-10.708C8.5165,-8.9316,8.8903,-7.6199,9.637,-6.7733C10.3841,-5.9267,11.5632,-5.5034,13.1733,-5.5034L13.1733,-5.5034C14.6008,-5.5034,15.7386,-5.9935,16.5852,-6.9727C17.4313,-7.9519,17.8551,-9.3473,17.8551,-11.1563L17.8551,-11.1563z">
            </path>
            <path fill="rgb(255,255,255)" stroke-width="0" transform="matrix(1,0,0,1,28.4881,0)" d="M22.0386,-9.5125L22.0386,-9.5125C22.0386,-10.9237,21.5404,-12.0074,20.5443,-12.7622C19.5488,-13.5176,17.7551,-14.3147,15.1654,-15.1531C12.5761,-15.9911,10.5249,-16.8178,9.0148,-17.6307L9.0148,-17.6307C4.8975,-19.8553,2.8387,-22.8521,2.8387,-26.6205L2.8387,-26.6205C2.8387,-28.5794,3.391,-30.3271,4.4946,-31.8628C5.5988,-33.3979,7.1849,-34.5979,9.2514,-35.4608C11.3179,-36.3237,13.6384,-36.7557,16.2114,-36.7557L16.2114,-36.7557C18.8011,-36.7557,21.1089,-36.2865,23.1341,-35.3491C25.1593,-34.4112,26.7327,-33.0868,27.8531,-31.3767C28.9736,-29.6672,29.5341,-27.7246,29.5341,-25.55L29.5341,-25.55L22.0636,-25.55C22.0636,-27.2095,21.5404,-28.5008,20.4949,-29.4219C19.4489,-30.343,17.979,-30.804,16.0869,-30.804L16.0869,-30.804C14.2611,-30.804,12.8413,-30.4179,11.8284,-29.6463C10.8161,-28.8742,10.3096,-27.8567,10.3096,-26.5955L10.3096,-26.5955C10.3096,-25.4174,10.9033,-24.429,12.0901,-23.6324C13.2768,-22.8358,15.0246,-22.0881,17.3318,-21.3909L17.3318,-21.3909C21.5817,-20.1129,24.6784,-18.5268,26.6205,-16.6342C28.5626,-14.7421,29.5341,-12.3843,29.5341,-9.5625L29.5341,-9.5625C29.5341,-6.425,28.3468,-3.9632,25.9733,-2.1787C23.5992,-0.3942,20.4026,0.4983,16.3853,0.4983L16.3853,0.4983C13.5966,0.4983,11.0568,-0.0122,8.7659,-1.0328C6.475,-2.0538,4.7272,-3.4532,3.5236,-5.2295C2.32,-7.0059,1.7182,-9.0647,1.7182,-11.4051L1.7182,-11.4051L9.2137,-11.4051C9.2137,-7.4047,11.604,-5.404,16.3853,-5.404L16.3853,-5.404C18.1616,-5.404,19.5488,-5.765,20.5443,-6.4872C21.5404,-7.2089,22.0386,-8.2181,22.0386,-9.5125z">
            </path>
            <path fill="rgb(255,255,255)" stroke-width="0" transform="matrix(1,0,0,1,59.8398,0)" d="M33.02,-18.9256L33.02,-17.3074C33.02,-13.7384,32.3891,-10.608,31.1278,-7.9188C29.8666,-5.2295,28.0607,-3.1538,25.7116,-1.6932C23.3626,-0.2326,20.6688,0.4983,17.6307,0.4983L17.6307,0.4983C14.6263,0.4983,11.9447,-0.2239,9.5875,-1.6682C7.2303,-3.1125,5.4035,-5.176,4.1091,-7.8565C2.8142,-10.5376,2.1578,-13.6216,2.1415,-17.108L2.1415,-17.108L2.1415,-18.9011C2.1415,-22.4701,2.7851,-25.6122,4.0713,-28.3264C5.3581,-31.0401,7.1762,-33.1245,9.5253,-34.577C11.8738,-36.029,14.56,-36.7557,17.5812,-36.7557C20.602,-36.7557,23.2881,-36.029,25.6372,-34.577C27.9863,-33.1245,29.8044,-31.0401,31.0906,-28.3264C32.3768,-25.6122,33.02,-22.4783,33.02,-18.9256L33.02,-18.9256zM25.45,-17.1824L25.45,-18.9506C25.45,-22.7521,24.7692,-25.6413,23.408,-27.6165C22.0473,-29.5922,20.1047,-30.5801,17.5812,-30.5801L17.5812,-30.5801C15.0746,-30.5801,13.1402,-29.6045,11.779,-27.6542C10.4178,-25.7035,9.7282,-22.8434,9.7119,-19.075L9.7119,-19.075L9.7119,-17.3074C9.7119,-13.6053,10.3928,-10.733,11.754,-8.6909C13.1152,-6.6489,15.0746,-5.6279,17.6307,-5.6279L17.6307,-5.6279C20.1374,-5.6279,22.0636,-6.6116,23.408,-8.5787C24.7529,-10.5458,25.4337,-13.414,25.45,-17.1824L25.45,-17.1824z">
            </path>
            <path fill="rgb(255,255,255)" stroke-width="0" transform="matrix(1,0,0,1,95.0513,0)" d="M32.7216,-36.2579L32.7216,0L25.2511,0L10.708,-23.8563L10.708,0L3.2375,0L3.2375,-36.2579L10.708,-36.2579L25.2761,-12.3517L25.2761,-36.2579L32.7216,-36.2579z">
            </path>
            <path fill="rgb(255,255,255)" stroke-width="0" transform="matrix(1,0,0,1,131.0598,0)">
            </path>
          </g>
        </g>
      </g>
    </g>
  </g>
  <g transform="translate(509.8693,89.6821)translate(-254.3817,-1490.2793)translate(221.2974,1482.6135)scale(0.5,0.5)">
    <g class="drg tpbl" data-drg-tp="element" data-drg-v="38818" data-test-id="export-png-noBorder 5.Text 2" data-gn-el-type="text">
      <g style="opacity:1">
        <g transform="translate(0, 0)">
          <path d="M 0 -45.9 L 27.6167 -45.9 L 27.6167 15.3 L 0 15.3 ZM 27.6167 -45.9 L 56.4536 -45.9 L 56.4536 15.3 L 27.6167 15.3 ZM 56.4536 -45.9 L 73.686 -45.9 L 73.686 15.3 L 56.4536 15.3 ZM 73.686 -45.9 L 90.9185 -45.9 L 90.9185 15.3 L 73.686 15.3 ZM 90.9185 -45.9 L 104.4404 -45.9 L 104.4404 15.3 L 90.9185 15.3 ZM 104.4404 -45.9 L 132.0073 -45.9 L 132.0073 15.3 L 104.4404 15.3 ZM 132.0073 -45.9 L 132.0073 -45.9 L 132.0073 15.3 L 132.0073 15.3 Z" fill="rgba(0,0,0,0)">
          </path>
          <g fill="rgb(0,0,0)" stroke-width="0" font-size="51px" style="font-family:Roboto-Bold;font-style:normal;font-weight:400">
            <path fill="rgb(0,0,0)" stroke-width="0" transform="matrix(1,0,0,1,0,0)" d="M10.708,-36.2579L10.708,-6.0017L26.571,-6.0017L26.571,0L3.2375,0L3.2375,-36.2579L10.708,-36.2579z">
            </path>
            <path fill="rgb(0,0,0)" stroke-width="0" transform="matrix(1,0,0,1,27.6167,0)" d="M1.6437,-13.3977L1.6437,-13.721C1.6437,-16.3941,2.1583,-18.7765,3.1875,-20.8682C4.2167,-22.9599,5.6984,-24.5784,7.6327,-25.7239C9.5666,-26.8697,11.8119,-27.4426,14.3687,-27.4426L14.3687,-27.4426C18.0044,-27.4426,20.9719,-26.3303,23.2713,-24.1057C25.5707,-21.881,26.8532,-18.8595,27.1187,-15.0409L27.1187,-15.0409L27.1682,-13.1983C27.1682,-9.0646,26.0144,-5.7484,23.7068,-3.2497C21.3993,-0.7511,18.3031,0.4983,14.4182,0.4983C10.5337,0.4983,7.4334,-0.747,5.1173,-3.2375C2.8016,-5.7276,1.6437,-9.1144,1.6437,-13.3977L1.6437,-13.3977zM8.8403,-13.1983L8.8403,-13.1983C8.8403,-10.6415,9.3218,-8.6867,10.2847,-7.3338C11.2475,-5.9806,12.6254,-5.304,14.4182,-5.304L14.4182,-5.304C16.1614,-5.304,17.5228,-5.9723,18.5023,-7.3088C19.4818,-8.6454,19.9716,-10.7828,19.9716,-13.721L19.9716,-13.721C19.9716,-16.2279,19.4818,-18.1703,18.5023,-19.5483C17.5228,-20.9263,16.1449,-21.6153,14.3687,-21.6153L14.3687,-21.6153C12.6089,-21.6153,11.2475,-20.9304,10.2847,-19.5605C9.3218,-18.191,8.8403,-16.0703,8.8403,-13.1983z">
            </path>
            <path fill="rgb(0,0,0)" stroke-width="0" transform="matrix(1,0,0,1,56.4536,0)" d="M4.1835,-33.5682L11.3801,-33.5682L11.3801,-26.9443L15.9875,-26.9443L15.9875,-21.6648L11.3801,-21.6648L11.3801,-8.2176C11.3801,-7.2218,11.5712,-6.5079,11.9534,-6.0761C12.3352,-5.6447,13.0655,-5.4289,14.1443,-5.4289L14.1443,-5.4289C14.9413,-5.4289,15.647,-5.4869,16.2614,-5.6029L16.2614,-5.6029L16.2614,-0.1494C14.85,0.2824,13.3974,0.4983,11.9034,0.4983L11.9034,0.4983C6.8564,0.4983,4.2832,-2.0502,4.1835,-7.1471L4.1835,-7.1471L4.1835,-21.6648L0.2489,-21.6648L0.2489,-26.9443L4.1835,-26.9443L4.1835,-33.5682z">
            </path>
            <path fill="rgb(0,0,0)" stroke-width="0" transform="matrix(1,0,0,1,73.686,0)" d="M4.1835,-33.5682L11.3801,-33.5682L11.3801,-26.9443L15.9875,-26.9443L15.9875,-21.6648L11.3801,-21.6648L11.3801,-8.2176C11.3801,-7.2218,11.5712,-6.5079,11.9534,-6.0761C12.3352,-5.6447,13.0655,-5.4289,14.1443,-5.4289L14.1443,-5.4289C14.9413,-5.4289,15.647,-5.4869,16.2614,-5.6029L16.2614,-5.6029L16.2614,-0.1494C14.85,0.2824,13.3974,0.4983,11.9034,0.4983L11.9034,0.4983C6.8564,0.4983,4.2832,-2.0502,4.1835,-7.1471L4.1835,-7.1471L4.1835,-21.6648L0.2489,-21.6648L0.2489,-26.9443L4.1835,-26.9443L4.1835,-33.5682z">
            </path>
            <path fill="rgb(0,0,0)" stroke-width="0" transform="matrix(1,0,0,1,90.9185,0)" d="M10.3596,-26.9443L10.3596,0L3.1375,0L3.1375,-26.9443L10.3596,-26.9443zM2.7142,-33.917L2.7142,-33.917C2.7142,-34.9962,3.0753,-35.8845,3.7975,-36.5818C4.5196,-37.2788,5.5032,-37.6273,6.7483,-37.6273L6.7483,-37.6273C7.9771,-37.6273,8.9566,-37.2788,9.6869,-36.5818C10.4176,-35.8845,10.7829,-34.9962,10.7829,-33.917L10.7829,-33.917C10.7829,-32.8212,10.4135,-31.9246,9.6747,-31.2273C8.9359,-30.5303,7.9604,-30.1818,6.7483,-30.1818C5.5366,-30.1818,4.5613,-30.5303,3.8224,-31.2273C3.0836,-31.9246,2.7142,-32.8212,2.7142,-33.917z">
            </path>
            <path fill="rgb(0,0,0)" stroke-width="0" transform="matrix(1,0,0,1,104.4404,0)" d="M15.1654,0.4983L15.1654,0.4983C11.2142,0.4983,7.9976,-0.7137,5.5156,-3.1375C3.034,-5.5614,1.7932,-8.7904,1.7932,-12.8245L1.7932,-12.8245L1.7932,-13.5221C1.7932,-16.2282,2.3161,-18.6478,3.3619,-20.781C4.4078,-22.9141,5.8895,-24.5577,7.8071,-25.7116C9.7243,-26.8656,11.9116,-27.4426,14.3687,-27.4426L14.3687,-27.4426C18.0543,-27.4426,20.9554,-26.2805,23.0719,-23.9562C25.1887,-21.632,26.2472,-18.3365,26.2472,-14.0699L26.2472,-14.0699L26.2472,-11.1313L9.0892,-11.1313C9.3218,-9.3714,10.0232,-7.9602,11.1935,-6.8978C12.3641,-5.8353,13.8458,-5.304,15.6386,-5.304L15.6386,-5.304C18.411,-5.304,20.5775,-6.3085,22.1381,-8.3176L22.1381,-8.3176L25.6744,-4.3579C24.5953,-2.8307,23.1343,-1.6395,21.2915,-0.7844C19.4487,0.0707,17.4066,0.4983,15.1654,0.4983zM14.3438,-21.6153L14.3438,-21.6153C12.9161,-21.6153,11.7581,-21.1339,10.8696,-20.171C9.9816,-19.2081,9.4131,-17.8301,9.1642,-16.037L9.1642,-16.037L19.175,-16.037L19.175,-16.6097C19.1417,-18.2036,18.71,-19.4363,17.8801,-20.3077C17.0498,-21.1795,15.871,-21.6153,14.3438,-21.6153z">
            </path>
            <path fill="rgb(0,0,0)" stroke-width="0" transform="matrix(1,0,0,1,132.0073,0)">
            </path>
          </g>
        </g>
      </g>
    </g>
  </g>
  <g transform="translate(660.3061,120.0818)translate(-407.05,-499.95)">
    <path d="M416.2699,478.5978C418.2198,476.2842,419.5992,473.074,419.5992,469.8638C419.5992,469.4187,419.5616,468.9672,419.4801,468.6036C416.3075,468.7227,412.533,470.7165,410.2571,473.3562C408.4701,475.3876,406.8023,478.5978,406.8023,481.8519C406.8023,482.341,406.8838,482.83,406.9215,482.9868C407.1221,483.0244,407.4481,483.0683,407.7742,483.0683C410.6207,483.0683,414.2008,481.1622,416.2699,478.5978zM430.9415,489.9777C430.5778,490.2599,424.1574,493.8776,424.1574,501.9219C424.1574,511.2264,432.3271,514.5181,432.5717,514.5996C432.534,514.8003,431.2738,519.1077,428.2642,523.4966C425.5807,527.3589,422.7781,531.2149,418.5145,531.2149C414.251,531.2149,413.1538,528.7383,408.2319,528.7383C403.4354,528.7383,401.73,531.2964,397.8301,531.2964C393.9302,531.2964,391.2091,527.7226,388.0804,523.3336C384.4564,518.1798,381.5283,510.1731,381.5283,502.574C381.5283,490.3853,389.4535,483.921,397.2533,483.921C401.3977,483.921,404.8524,486.6421,407.4544,486.6421C409.931,486.6421,413.7933,483.758,418.5083,483.758C420.2952,483.758,426.7156,483.921,430.9415,489.9777z" fill="rgb(0,0,0)">
    </path>
  </g>
  <g transform="translate(657.6734,42.8193)translate(-11.5,-12.5)">
    <path d="M41.555,15.1519L41.555,46.0909L6.1962,39.3373L6.1962,14.6215L41.555,15.1519zM-18.555,14.2679L2.6603,14.5862L2.6603,38.6655L-18.555,34.5993L-18.555,14.2679M41.555,-21.0909L41.555,9.8481L6.1962,10.3785L6.1962,-13.2766L41.555,-21.0909M-18.555,10.7321L-18.555,-7.8313L2.6603,-12.4987L2.6603,10.4138L-18.555,10.7321" fill="rgb(0,0,0)">
    </path>
  </g>
  <g transform="translate(757.9851,43.9602)scale(3.0753,3.0753)">
    <path d="M0,-4.2C6.0751,-4.2,11,-2.3196,11,0C11,2.3196,6.0751,4.2,0,4.2C-6.0751,4.2,-11,2.3196,-11,0C-11,-2.3196,-6.0751,-4.2,0,-4.2zM3.6373,-2.1C6.6749,3.1612,7.5088,8.3665,5.5,9.5263C3.4912,10.6861,-0.5997,7.3612,-3.6373,2.1C-6.6749,-3.1612,-7.5088,-8.3665,-5.5,-9.5263C-3.4912,-10.6861,0.5997,-7.3612,3.6373,-2.1zM3.6373,2.1C0.5997,7.3612,-3.4912,10.6861,-5.5,9.5263C-7.5088,8.3665,-6.6749,3.1612,-3.6373,-2.1C-0.5997,-7.3612,3.4912,-10.6861,5.5,-9.5263C7.5088,-8.3665,6.6749,-3.1612,3.6373,2.1zM-0.0257,-1.4009C0.8027,-1.4009,1.4743,-0.7293,1.4743,0.0991C1.4743,0.9275,0.8027,1.5991,-0.0257,1.5991C-0.8542,1.5991,-1.5257,0.9275,-1.5257,0.0991C-1.5257,-0.7293,-0.8542,-1.4009,-0.0257,-1.4009z" fill="none" stroke-linecap="round" stroke-linejoin="round" stroke="rgb(0,0,0)">
    </path>
    <g transform="rotate(60)">
    </g>
    <g transform="rotate(120)scale(1,1)">
    </g>
    <g transform="translate(-0.0257,0.0991)">
      <ellipse cx="0" cy="0" rx="1.5" ry="1.5" fill="rgb(0,0,0)">
      </ellipse>
    </g>
  </g>
  <g transform="translate(746.8287,120.2936)translate(-736.5303,-96.4324)">
    <path d="M759.0012,85.6245C760.9182,85.6245,762.4722,87.1786,762.4722,89.0956L762.4722,105.6577C762.4722,107.5747,760.9182,109.1287,759.0012,109.1287C757.0842,109.1287,755.5302,107.5747,755.5302,105.6577L755.5302,89.0956C755.5302,87.1786,757.0842,85.6245,759.0012,85.6245zM742.934,77.0438C742.934,77.8671,743.6014,78.5345,744.4248,78.5345C745.2481,78.5345,745.9155,77.8671,745.9155,77.0438C745.9155,76.2205,745.2481,75.553,744.4248,75.553C743.6014,75.553,742.934,76.2205,742.934,77.0438zM727.094,77.0438C727.094,77.8671,727.7615,78.5345,728.5848,78.5345C729.4081,78.5345,730.0755,77.8671,730.0755,77.0438C730.0755,76.2205,729.4081,75.553,728.5848,75.553C727.7615,75.553,727.094,76.2205,727.094,77.0438zM736.4907,69.2446C739.1267,69.2446,741.6237,69.8399,743.8545,70.9034L746.7333,65.5612C746.8754,65.2975,747.2043,65.1989,747.468,65.341C747.7317,65.4831,747.8303,65.8121,747.6882,66.0757L744.8184,71.4012C749.6152,74.0743,752.9943,78.9851,753.5442,84.7221L719.4269,84.833C719.9493,78.9849,723.4102,73.9827,728.3225,71.3134L725.3542,65.9944C725.2083,65.7328,725.302,65.4025,725.5635,65.2565C725.8251,65.1105,726.1555,65.2042,726.3014,65.4658L729.2925,70.8256C731.481,69.8109,733.9197,69.2446,736.4907,69.2446zM714.0595,85.6245C715.9765,85.6245,717.5305,87.1786,717.5305,89.0956L717.5305,105.6577C717.5305,107.5747,715.9765,109.1287,714.0595,109.1287C712.1425,109.1287,710.5884,107.5747,710.5884,105.6577L710.5884,89.0956C710.5884,87.1786,712.1425,85.6245,714.0595,85.6245zM753.7462,110.7535C753.7462,113.1497,751.8037,115.0923,749.4074,115.0923L746.4575,115.0923L746.4575,124.2061C746.4575,126.1231,744.9034,127.6771,742.9864,127.6771C741.0694,127.6771,739.5154,126.1231,739.5154,124.2061L739.5154,115.0923L733.6097,115.0923L733.6097,124.2061C733.6097,126.1231,732.0556,127.6771,730.1386,127.6771C728.2216,127.6771,726.6676,126.1231,726.6676,124.2061L726.6676,115.0923L723.8613,115.0923C721.4651,115.0923,719.5225,113.1497,719.5225,110.7535L719.5225,86.1339L753.7462,86.1339L753.7462,110.7535z" fill="rgb(0,0,0)">
    </path>
  </g>
  <g transform="translate(598.4828,63.0783)rotate(12.5453)scale(1,-1)translate(72.648,68.118)">
    <defs>
      <linearGradient id="gradient3" gradientUnits="userSpaceOnUse" x1="-159.751" y1="-68.118" x2="14.455" y2="-68.118">
        <stop offset="0%" stop-color="rgb(40,30,90)">
        </stop>
        <stop offset="100%" stop-color="rgb(40,30,90)">
        </stop>
      </linearGradient>
    </defs>
    <path d="M-71.7092,-14.2978L-63.7428,-9.992L-64.8191,-25.1572L-94.3172,-23.959L-85.819,-18.9187C-115.3749,-11.2135,-145.4985,-28.4857,-159.751,-63.158C-143.9603,-22.6098,-114.6122,-6.3228,-71.7092,-14.2978z" fill="url(#gradient3)">
    </path>
  </g>
  <g transform="translate(550.6666,222.8347)rotate(12.5453)scale(1,-1)translate(72.648,68.118)">
    <defs>
      <linearGradient id="gradient4" gradientUnits="userSpaceOnUse" x1="-159.751" y1="-68.118" x2="14.455" y2="-68.118">
        <stop offset="0%" stop-color="rgb(40,30,90)">
        </stop>
        <stop offset="100%" stop-color="rgb(40,30,90)">
        </stop>
      </linearGradient>
    </defs>
    <path d="M-71.709,-14.297L-63.742,-9.992L-64.819,-25.157L-94.317,-23.958L-85.818,-18.918C-115.373,-11.213,-145.499,-28.485,-159.751,-63.157C-143.961,-22.609,-114.611,-6.323,-71.709,-14.297z" fill="url(#gradient4)">
    </path>
  </g>
  <g transform="translate(502.9613,396.0362)rotate(12.5453)scale(1,-1)translate(72.648,68.118)">
    <defs>
      <linearGradient id="gradient5" gradientUnits="userSpaceOnUse" x1="-159.751" y1="-68.118" x2="14.455" y2="-68.118">
        <stop offset="0%" stop-color="rgb(40,30,90)">
        </stop>
        <stop offset="100%" stop-color="rgb(40,30,90)">
        </stop>
      </linearGradient>
    </defs>
    <path d="M-71.709,-14.297L-63.742,-9.992L-64.819,-25.157L-94.317,-23.958L-85.818,-18.918C-115.373,-11.213,-145.499,-28.485,-159.751,-63.157C-143.961,-22.609,-114.611,-6.323,-71.709,-14.297z" fill="url(#gradient5)">
    </path>
  </g>
</svg>