<svg xmlns="http://www.w3.org/2000/svg">

    <symbol id="chevron-left" viewBox="0 0 24 24">
        <path fill="currentColor" d="M15.41,16.58L10.83,12L15.41,7.41L14,6L8,12L14,18L15.41,16.58Z" />
    </symbol>
    <symbol id="chevron-right" viewBox="0 0 24 24">
        <path fill="currentColor" d="M8.59,16.58L13.17,12L8.59,7.41L10,6L16,12L10,18L8.59,16.58Z" />
    </symbol>
    <symbol id="apple" viewBox="0 0 24 24">
        <path fill="currentColor" d="M18.71,19.5C17.88,20.74 17,21.95 15.66,21.97C14.32,22 13.89,21.18 12.37,21.18C10.84,21.18 10.37,21.95 9.1,22C7.79,22.05 6.8,20.68 5.96,19.47C4.25,17 2.94,12.45 4.7,9.39C5.57,7.87 7.13,6.91 8.82,6.88C10.1,6.86 11.32,7.75 12.11,7.75C12.89,7.75 14.37,6.68 15.92,6.84C16.57,6.87 18.39,7.1 19.56,8.82C19.47,8.88 17.39,10.1 17.41,12.63C17.44,15.65 20.06,16.66 20.09,16.67C20.06,16.74 19.67,18.11 18.71,19.5M13,3.5C13.73,2.67 14.94,2.04 15.94,2C16.07,3.17 15.6,4.35 14.9,5.19C14.21,6.04 13.07,6.7 11.95,6.61C11.8,5.46 12.36,4.26 13,3.5Z" />	
    </symbol>
	<symbol id="windows" viewBox="0 0 24 24">
        <path fill="currentColor" d="M3,12V6.75L9,5.43V11.91L3,12M20,3V11.75L10,11.9V5.21L20,3M3,13L9,13.09V19.9L3,18.75V13M20,13.25V22L10,20.09V13.1L20,13.25Z" />
	</symbol>
    <symbol id="keyboard" viewBox="0 0 210 100">
        <g>
    <defs></defs>
    <g>
      <g opacity="1">
        <g transform="matrix(1,0,0,1,69,13.187)">
          <g>
            <path d="M7,-12C9.761,-12,12,-9.761,12,-7L12,7C12,9.761,9.761,12,7,12L-7,12C-9.761,12,-12,9.761,-12,7L-12,-7C-12,-9.761,-9.761,-12,-7,-12L7,-12z" fill="rgb(255,255,255)" opacity="1"></path>
          </g>
        </g>
      </g>
      <g opacity="1">
        <g transform="matrix(1,0,0,1,97.5,13.187)">
          <g>
            <path d="M7,-12C9.761,-12,12,-9.761,12,-7L12,7C12,9.761,9.761,12,7,12L-7,12C-9.761,12,-12,9.761,-12,7L-12,-7C-12,-9.761,-9.761,-12,-7,-12L7,-12z" fill="rgb(255,255,255)" opacity="1"></path>
          </g>
        </g>
      </g>
      <g opacity="1">
        <g transform="matrix(1,0,0,1,40.5,13.187)">
          <g>
            <path d="M7,-12C9.761,-12,12,-9.761,12,-7L12,7C12,9.761,9.761,12,7,12L-7,12C-9.761,12,-12,9.761,-12,7L-12,-7C-12,-9.761,-9.761,-12,-7,-12L7,-12z" fill="rgb(255,255,255)" opacity="1"></path>
          </g>
        </g>
      </g>
      <g opacity="1">
        <g transform="matrix(1,0,0,1,126,13.187)">
          <g>
            <path d="M7,-12C9.761,-12,12,-9.761,12,-7L12,7C12,9.761,9.761,12,7,12L-7,12C-9.761,12,-12,9.761,-12,7L-12,-7C-12,-9.761,-9.761,-12,-7,-12L7,-12z" fill="rgb(255,255,255)" opacity="1"></path>
          </g>
        </g>
      </g>
      <g opacity="1">
        <g transform="matrix(1,0,0,1,154.5,13.187)">
          <g>
            <path d="M18.5,-12C21.261,-12,23.5,-9.761,23.5,-7L23.5,7C23.5,9.761,21.261,12,18.5,12L-7,12C-9.761,12,-12,9.761,-12,7L-12,-7C-12,-9.761,-9.761,-12,-7,-12L18.5,-12z" fill="rgb(255,255,255)" opacity="1"></path>
          </g>
        </g>
      </g>
      <g opacity="1">
        <g transform="matrix(1,0,0,1,12,13.187)">
          <g>
            <path d="M7,-12C9.761,-12,12,-9.761,12,-7L12,7C12,9.761,9.761,12,7,12L-7,12C-9.761,12,-12,9.761,-12,7L-12,-7C-12,-9.761,-9.761,-12,-7,-12L7,-12z" fill="rgb(255,255,255)" opacity="1"></path>
          </g>
        </g>
      </g>
      <g opacity="1">
        <g transform="matrix(1,0,0,1,81,46.187)">
          <g>
            <path d="M7,-12C9.761,-12,12,-9.761,12,-7L12,7C12,9.761,9.761,12,7,12L-7,12C-9.761,12,-12,9.761,-12,7L-12,-7C-12,-9.761,-9.761,-12,-7,-12L7,-12z" fill="rgb(255,255,255)" opacity="1"></path>
          </g>
        </g>
      </g>
      <g opacity="1">
        <g transform="matrix(1,0,0,1,109.5,46.187)">
          <g>
            <path d="M7,-12C9.761,-12,12,-9.761,12,-7L12,7C12,9.761,9.761,12,7,12L-7,12C-9.761,12,-12,9.761,-12,7L-12,-7C-12,-9.761,-9.761,-12,-7,-12L7,-12z" fill="rgb(255,255,255)" opacity="1"></path>
          </g>
        </g>
      </g>
      <g opacity="1">
        <g transform="matrix(1,0,0,1,52.5,46.187)">
          <g>
            <path d="M7,-12C9.761,-12,12,-9.761,12,-7L12,7C12,9.761,9.761,12,7,12L-7,12C-9.761,12,-12,9.761,-12,7L-12,-7C-12,-9.761,-9.761,-12,-7,-12L7,-12z" fill="rgb(255,255,255)" opacity="1"></path>
          </g>
        </g>
      </g>
      <g opacity="1">
        <g transform="matrix(1,0,0,1,138,46.187)">
          <g>
            <path d="M7,-12C9.761,-12,12,-9.761,12,-7L12,7C12,9.761,9.761,12,7,12L-7,12C-9.761,12,-12,9.761,-12,7L-12,-7C-12,-9.761,-9.761,-12,-7,-12L7,-12z" fill="rgb(255,255,255)" opacity="1"></path>
          </g>
        </g>
      </g>
      <g opacity="1">
        <g transform="matrix(1,0,0,1,166.5,46.187)">
          <g>
            <path d="M7,-12C9.761,-12,12,-9.761,12,-7L12,7C12,9.761,9.761,12,7,12L-7,12C-9.761,12,-12,9.761,-12,7L-12,-7C-12,-9.761,-9.761,-12,-7,-12L7,-12z" fill="rgb(255,255,255)" opacity="1"></path>
          </g>
        </g>
      </g>
      <g opacity="1">
        <g transform="matrix(1,0,0,1,195,46.187)">
          <g>
            <path d="M7,-46C9.761,-46,12,-43.761,12,-41L12,7C12,9.761,9.761,12,7,12L-7,12C-9.761,12,-12,9.761,-12,7L-12,-41C-12,-43.761,-9.761,-46,-7,-46L7,-46z" fill="rgb(255,255,255)" opacity="1"></path>
          </g>
        </g>
      </g>
      <g opacity="1">
        <g transform="matrix(1,0,0,1,12,46.187)">
          <g>
            <path d="M18,-12C20.761,-12,23,-9.761,23,-7L23,7C23,9.761,20.761,12,18,12L-7,12C-9.761,12,-12,9.761,-12,7L-12,-7C-12,-9.761,-9.761,-12,-7,-12L18,-12z" fill="rgb(255,255,255)" opacity="1"></path>
          </g>
        </g>
      </g>
      <g opacity="1">
        <g transform="matrix(1,0,0,1,69,80.187)">
          <g>
            <path d="M76,-12C78.761,-12,81,-9.761,81,-7L81,7C81,9.761,78.761,12,76,12L-7,12C-9.761,12,-12,9.761,-12,7L-12,-7C-12,-9.761,-9.761,-12,-7,-12L76,-12z" fill="rgb(255,255,255)" opacity="1"></path>
          </g>
        </g>
      </g>
      <g opacity="1">
        <g transform="matrix(1,0,0,1,40.5,80.187)">
          <g>
            <path d="M7,-12C9.761,-12,12,-9.761,12,-7L12,7C12,9.761,9.761,12,7,12L-7,12C-9.761,12,-12,9.761,-12,7L-12,-7C-12,-9.761,-9.761,-12,-7,-12L7,-12z" fill="rgb(255,255,255)" opacity="1"></path>
          </g>
        </g>
      </g>
      <g opacity="1">
        <g transform="matrix(1,0,0,1,166,80.187)">
          <g>
            <path d="M7,-12C9.761,-12,12,-9.761,12,-7L12,7C12,9.761,9.761,12,7,12L-7,12C-9.761,12,-12,9.761,-12,7L-12,-7C-12,-9.761,-9.761,-12,-7,-12L7,-12z" fill="rgb(255,255,255)" opacity="1"></path>
          </g>
        </g>
      </g>
      <g opacity="1">
        <g transform="matrix(1,0,0,1,195,80.187)">
          <g>
            <path d="M7,-12C9.761,-12,12,-9.761,12,-7L12,7C12,9.761,9.761,12,7,12L-7,12C-9.761,12,-12,9.761,-12,7L-12,-7C-12,-9.761,-9.761,-12,-7,-12L7,-12z" fill="rgb(255,255,255)" opacity="1"></path>
          </g>
        </g>
      </g>
      <g opacity="1">
        <g transform="matrix(1,0,0,1,12,80.187)">
          <g>
            <path d="M7,-12C9.761,-12,12,-9.761,12,-7L12,7C12,9.761,9.761,12,7,12L-7,12C-9.761,12,-12,9.761,-12,7L-12,-7C-12,-9.761,-9.761,-12,-7,-12L7,-12z" fill="rgb(255,255,255)" opacity="1"></path>
          </g>
        </g>
      </g>
    </g>
  </g>
	</symbol>
</svg>